<svg xmlns="http://www.w3.org/2000/svg" xmlns:v="https://svgstorm.com"
viewBox = "0 0 1024 1024"
width="1024"
height="1024">
<g fill="None" fill-opacity="0.0" stroke="#000000" stroke-opacity="0.00" stroke-width="0.3"><path d="
M 0.00 1024.00 
L 1024.00 1024.00
L 1024.00 0.00
L 0.00 0.00
L 0.00 1024.00
M 426.00 115.00 
C 426.36 117.53 427.00 120.82 427.00 124.00
C 427.00 134.76 427.00 144.55 427.00 155.00
C 427.00 162.55 426.25 172.72 427.00 180.00 C 427.75 187.28 424.08 197.52 429.00 203.00
C 448.73 219.37 473.13 233.24 499.00 235.00
C 501.95 235.20 505.73 235.78 508.00 236.00
C 538.35 236.00 562.90 226.87 587.00 210.00
C 588.32 208.92 589.68 207.12 591.00 206.00
C 601.45 197.07 597.79 184.72 598.00 171.00 C 598.21 157.28 598.00 142.79 598.00 129.00
C 598.00 122.95 597.69 116.30 599.00 111.00
C 601.42 101.23 609.57 96.79 620.00 98.00 C 630.43 99.21 643.66 96.33 654.07 98.93 C 664.48 101.52 665.12 112.72 665.00 121.00
C 666.50 135.84 666.00 152.43 666.00 168.00
C 666.00 177.89 665.22 188.14 666.00 198.00
C 667.19 212.96 675.63 227.63 685.25 239.75 C 694.88 251.86 707.12 265.14 701.02 282.02 C 694.93 298.91 693.74 315.52 689.07 332.07 C 684.41 348.62 680.82 365.97 677.07 382.07 C 673.33 398.18 665.36 416.33 671.92 431.08 C 678.49 445.82 686.13 457.90 692.77 472.23 C 699.41 486.56 706.36 498.83 712.77 513.23 C 719.18 527.63 725.32 541.64 731.77 556.23 C 738.22 570.82 743.24 585.88 748.98 601.02 C 754.71 616.17 760.00 631.26 764.93 647.07 C 769.85 662.88 774.31 679.17 778.33 695.67 C 782.34 712.17 786.92 728.92 789.93 746.07 C 792.93 763.22 796.83 782.23 798.00 800.00
C 798.19 801.01 798.94 802.41 799.00 804.00
C 799.05 805.33 798.95 806.67 799.00 808.00
C 799.13 808.83 799.84 810.64 800.00 812.00
C 800.47 816.05 800.83 819.76 801.00 824.00
C 801.17 825.23 801.97 827.15 802.00 829.00
C 802.02 830.33 801.98 831.67 802.00 833.00
C 802.16 834.21 802.95 836.17 803.00 838.00
C 803.05 839.66 803.00 841.34 803.00 843.00
C 803.39 846.69 803.93 850.25 803.00 854.00
C 798.28 873.06 774.84 875.27 758.98 881.98 C 743.11 888.69 722.88 893.01 703.98 896.98 C 685.07 900.94 661.09 905.20 641.00 906.00
C 639.84 906.16 637.75 906.88 636.00 907.00
C 630.26 907.40 624.91 907.83 619.00 908.00
C 617.58 908.16 615.02 908.87 613.00 909.00
C 606.01 909.45 599.24 910.00 592.00 910.00
C 589.25 910.27 585.42 911.00 582.00 911.00
C 565.53 911.00 548.79 912.00 532.00 912.00
C 520.97 913.07 507.90 912.30 497.00 912.00
C 478.38 913.38 456.07 911.63 437.00 911.00 C 417.93 910.37 397.50 907.81 379.00 906.00 C 360.49 904.19 342.27 900.86 324.78 897.22 C 307.29 893.58 289.91 890.65 273.78 884.22 C 257.65 877.80 243.37 877.11 229.30 865.70 C 215.24 854.29 224.13 831.58 225.00 815.00 C 225.87 798.41 231.38 776.78 233.78 759.78 C 236.17 742.78 240.50 724.01 244.33 707.33 C 248.16 690.64 252.89 673.97 257.78 657.78 C 262.66 641.58 267.49 624.69 272.98 608.98 C 278.47 593.26 284.74 578.97 290.77 563.77 C 296.81 548.57 302.80 534.49 309.77 519.77 C 316.74 505.05 323.12 490.93 330.31 476.31 C 337.49 461.68 343.53 449.37 351.77 434.77 C 360.01 420.18 352.55 401.75 348.22 385.78 C 343.90 369.81 342.14 352.18 336.67 335.33 C 331.20 318.48 331.52 302.66 325.00 286.00 C 318.49 269.34 327.35 254.65 338.25 242.25 C 349.15 229.84 355.60 214.33 359.00 199.00
C 360.04 188.91 359.00 178.15 359.00 168.00
C 359.00 150.40 356.57 129.59 360.00 113.00
C 363.61 95.57 379.29 98.22 394.00 98.00 C 408.71 97.78 425.29 96.51 426.00 115.00 Z"/>
</g>
<g fill="None" fill-opacity="0.0" stroke="#010204" stroke-opacity="1.00" stroke-width="0.3"><path d="
M 360.00 113.00 
C 358.36 130.99 360.00 149.92 360.00 168.00
C 360.00 178.09 361.05 189.77 359.00 199.00
C 355.60 214.33 349.15 229.84 338.25 242.25 C 327.35 254.65 318.49 269.34 325.00 286.00 C 331.52 302.66 331.20 318.48 336.67 335.33 C 342.14 352.18 343.90 369.81 348.22 385.78 C 352.55 401.75 360.01 420.18 351.77 434.77 C 343.53 449.37 337.49 461.68 330.31 476.31 C 323.12 490.93 316.74 505.05 309.77 519.77 C 302.80 534.49 296.81 548.57 290.77 563.77 C 284.74 578.97 278.47 593.26 272.98 608.98 C 267.49 624.69 262.66 641.58 257.78 657.78 C 252.89 673.97 248.16 690.64 244.33 707.33 C 240.50 724.01 236.17 742.78 233.78 759.78 C 231.38 776.78 225.87 798.41 225.00 815.00 C 224.13 831.58 215.24 854.29 229.30 865.70 C 243.37 877.11 257.65 877.80 273.78 884.22 C 289.91 890.65 307.29 893.58 324.78 897.22 C 342.27 900.86 360.49 904.19 379.00 906.00 C 397.50 907.81 417.93 910.37 437.00 911.00 C 456.07 911.63 478.38 913.38 497.00 912.00
C 508.52 911.15 520.44 912.00 532.00 912.00
C 548.79 912.00 565.53 911.00 582.00 911.00
C 584.75 910.73 588.58 910.00 592.00 910.00
C 599.24 910.00 606.01 909.45 613.00 909.00
C 614.58 908.75 616.81 908.06 619.00 908.00
C 624.91 907.83 630.26 907.40 636.00 907.00
C 637.30 906.77 639.12 906.08 641.00 906.00
C 661.09 905.20 685.07 900.94 703.98 896.98 C 722.88 893.01 743.11 888.69 758.98 881.98 C 774.84 875.27 798.28 873.06 803.00 854.00
C 803.44 850.46 803.00 846.57 803.00 843.00
C 803.00 841.34 803.05 839.66 803.00 838.00
C 802.85 836.80 802.03 834.83 802.00 833.00
C 801.98 831.67 802.02 830.33 802.00 829.00
C 801.84 827.81 801.07 825.80 801.00 824.00
C 800.83 819.76 800.47 816.05 800.00 812.00
C 799.72 810.86 799.06 809.69 799.00 808.00
C 798.95 806.67 799.05 805.33 799.00 804.00
C 798.86 803.10 798.10 801.47 798.00 800.00
C 796.83 782.23 792.93 763.22 789.93 746.07 C 786.92 728.92 782.34 712.17 778.33 695.67 C 774.31 679.17 769.85 662.88 764.93 647.07 C 760.00 631.26 754.71 616.17 748.98 601.02 C 743.24 585.88 738.22 570.82 731.77 556.23 C 725.32 541.64 719.18 527.63 712.77 513.23 C 706.36 498.83 699.41 486.56 692.77 472.23 C 686.13 457.90 678.49 445.82 671.92 431.08 C 665.36 416.33 673.33 398.18 677.07 382.07 C 680.82 365.97 684.41 348.62 689.07 332.07 C 693.74 315.52 694.93 298.91 701.02 282.02 C 707.12 265.14 694.88 251.86 685.25 239.75 C 675.63 227.63 667.19 212.96 666.00 198.00
C 664.24 188.88 665.00 177.87 665.00 168.00
C 665.00 152.34 664.77 136.66 665.00 121.00
C 665.12 112.72 664.48 101.52 654.07 98.93 C 643.66 96.33 630.43 99.21 620.00 98.00 C 609.57 96.79 601.42 101.23 599.00 111.00
C 598.29 116.74 598.50 123.88 598.00 129.00
C 598.00 142.79 598.21 157.28 598.00 171.00 C 597.79 184.72 601.45 197.07 591.00 206.00
C 589.60 207.40 588.65 208.85 587.00 210.00
C 562.90 226.87 538.35 236.00 508.00 236.00
C 504.75 236.00 501.56 235.46 499.00 235.00
C 473.13 233.24 448.73 219.37 429.00 203.00
C 423.11 198.11 426.55 188.62 426.00 181.00 C 425.46 173.38 426.00 162.88 426.00 155.00
C 426.00 144.67 426.00 134.33 426.00 124.00
C 426.00 121.01 426.11 117.99 426.00 115.00
C 425.29 96.51 408.71 97.78 394.00 98.00 C 379.29 98.22 363.61 95.57 360.00 113.00
M 394.00 196.00 
C 393.78 196.30 393.29 196.78 393.00 197.00
C 391.51 198.13 389.94 182.26 391.00 177.00 C 392.06 171.74 389.59 158.72 391.00 153.00 C 392.41 147.28 387.83 134.01 392.00 130.00
C 396.89 129.50 395.11 145.07 395.00 150.00 C 394.89 154.93 395.83 167.18 395.00 173.00 C 394.17 178.82 397.45 191.32 394.00 196.00
M 632.00 197.00 
C 631.20 196.53 630.24 195.00 630.00 194.00
C 628.46 187.69 630.29 179.51 630.00 173.00 C 629.71 166.49 629.24 158.38 630.00 152.00 C 630.76 145.62 627.67 136.84 630.00 131.00
C 630.32 130.19 631.10 129.87 632.00 130.00
C 636.23 130.62 633.40 142.10 634.00 146.00 C 634.60 149.90 633.73 159.50 634.00 164.00 C 634.27 168.50 633.88 177.91 634.00 182.00 C 634.12 186.09 634.82 198.67 632.00 197.00
M 503.00 267.00 
C 509.67 267.00 516.33 267.00 523.00 267.00
C 525.33 267.00 527.67 267.09 530.00 267.00
C 531.15 266.84 533.26 266.12 535.00 266.00
C 547.72 265.11 561.35 261.21 572.69 255.69 C 584.04 250.18 593.44 247.22 603.23 238.23 C 613.02 229.24 626.50 224.95 641.00 228.00
C 646.32 241.81 654.54 254.44 664.00 266.00
C 667.32 269.32 669.52 269.83 669.00 274.00
C 668.11 281.16 666.72 282.34 665.02 290.02 C 663.33 297.71 663.23 297.41 661.01 307.01 C 658.78 316.60 654.89 330.32 653.01 340.01 C 651.12 349.70 650.55 349.56 649.01 357.01 C 647.47 364.45 646.73 366.97 645.02 373.02 C 643.31 379.08 643.65 385.01 641.07 390.07 C 638.49 395.14 641.18 404.09 638.00 408.00
C 634.37 412.46 622.12 407.65 616.00 409.00 C 609.88 410.35 599.97 408.39 593.00 409.00 C 586.03 409.61 577.35 408.73 570.00 409.00 C 562.65 409.27 554.51 408.89 547.00 409.00 C 539.49 409.11 531.57 408.97 524.00 409.00 C 516.43 409.03 508.57 409.03 501.00 409.00 C 493.43 408.97 485.51 409.11 478.00 409.00 C 470.49 408.89 462.35 409.27 455.00 409.00 C 447.65 408.73 438.98 409.60 432.00 409.00 C 425.02 408.40 415.14 410.34 409.00 409.00 C 402.86 407.66 390.61 412.43 387.00 408.00
C 384.07 404.40 386.59 395.60 384.02 390.98 C 381.46 386.36 381.99 379.15 380.02 373.98 C 378.06 368.80 377.60 362.42 376.01 356.99 C 374.41 351.56 373.27 345.57 372.01 339.99 C 370.74 334.41 369.09 328.61 368.01 322.99 C 366.93 317.38 364.26 312.03 363.67 306.33 C 363.09 300.63 359.53 295.09 359.67 289.33 C 359.82 283.56 352.96 278.39 356.33 272.33 C 359.71 266.27 360.98 268.36 365.92 260.92 C 370.86 253.48 377.36 243.04 380.77 234.77 C 384.18 226.50 386.57 227.05 395.00 228.00 C 403.43 228.95 404.97 224.37 412.70 231.30 C 420.42 238.23 428.41 243.12 437.70 248.30 C 446.99 253.48 456.55 257.43 467.07 260.93 C 477.60 264.42 491.16 267.00 503.00 267.00
M 641.00 441.00 
C 646.45 445.56 646.96 457.13 651.77 463.23 C 656.58 469.33 658.69 479.21 662.92 486.08 C 667.15 492.94 670.30 500.66 673.92 508.08 C 677.55 515.49 681.07 523.64 684.77 531.23 C 688.47 538.82 691.48 547.30 694.93 555.07 C 698.37 562.85 701.64 570.13 704.92 578.08 C 708.21 586.02 711.09 594.58 714.32 602.68 C 717.55 610.78 720.27 618.60 722.98 627.02 C 725.68 635.45 728.86 643.73 731.78 652.22 C 734.69 660.72 736.63 670.01 739.33 678.67 C 742.02 687.34 744.11 695.70 746.33 704.67 C 748.55 713.65 750.89 722.84 752.98 732.02 C 755.06 741.21 756.52 750.20 758.33 759.67 C 760.14 769.14 761.57 779.23 763.00 789.00 C 764.43 798.77 765.85 809.05 767.00 819.00
C 767.28 820.14 767.94 821.31 768.00 823.00
C 768.05 824.33 767.95 825.67 768.00 827.00
C 768.14 827.91 768.91 829.51 769.00 831.00
C 769.24 835.08 768.45 839.26 770.00 843.00
C 727.79 860.31 682.75 869.02 637.00 874.00
C 635.34 874.32 633.25 874.94 631.00 875.00
C 615.86 875.42 601.10 878.00 586.00 878.00
C 583.89 878.20 580.79 879.04 578.00 879.00
C 574.91 878.96 570.71 879.00 567.00 879.00
C 562.94 879.39 557.74 880.00 553.00 880.00
C 546.33 880.00 539.67 880.00 533.00 880.00
C 520.43 881.22 505.50 881.21 493.00 880.00
C 486.67 880.00 480.33 880.00 474.00 880.00
C 468.94 880.00 463.32 879.42 459.00 879.00
C 441.19 879.00 423.77 876.50 406.00 876.00
C 403.71 875.94 401.65 875.32 400.00 875.00
C 392.35 874.27 384.80 873.44 377.00 873.00
C 375.46 872.91 373.92 872.14 373.00 872.00
C 371.67 871.95 370.33 872.05 369.00 872.00
C 367.19 871.93 366.22 871.33 365.00 871.00
C 326.66 865.84 291.44 857.15 256.00 843.00
C 255.97 831.75 258.50 821.14 259.00 810.00
C 259.13 808.36 259.76 807.07 260.00 806.00
C 260.97 795.93 262.77 785.22 264.33 775.33 C 265.89 765.44 267.96 755.63 269.98 745.98 C 271.99 736.33 273.70 726.40 275.99 716.99 C 278.29 707.58 281.04 698.57 283.32 689.32 C 285.60 680.08 288.20 670.94 290.98 661.98 C 293.75 653.01 296.67 644.17 299.33 635.33 C 301.98 626.49 305.89 618.40 308.78 609.78 C 311.66 601.16 314.77 592.57 318.31 584.31 C 321.85 576.05 324.77 567.45 328.32 559.32 C 331.88 551.19 335.63 543.26 339.31 535.31 C 342.98 527.35 346.14 518.91 350.31 511.31 C 354.47 503.70 357.23 494.93 361.77 487.77 C 366.31 480.61 368.25 470.70 373.31 464.31 C 378.36 457.91 378.93 445.70 385.00 441.00
C 391.25 436.16 403.61 441.46 412.00 440.00 C 420.39 438.54 431.96 440.65 441.00 440.00 C 450.04 439.35 460.72 440.28 470.00 440.00 C 479.28 439.72 488.61 440.07 498.00 440.00 C 507.39 439.93 517.59 439.91 527.00 440.00 C 536.41 440.09 546.73 439.70 556.00 440.00 C 565.27 440.30 575.06 439.26 584.00 440.00 C 592.94 440.74 604.73 438.39 613.00 440.00 C 621.27 441.61 634.99 435.97 641.00 441.00 Z"/>
</g>
<g fill="None" fill-opacity="0.0" stroke="#4E4E4E" stroke-opacity="1.00" stroke-width="0.3"><path d="
M 598.00 129.00 
C 598.50 123.88 598.29 116.74 599.00 111.00
C 597.69 116.30 598.00 122.95 598.00 129.00 Z"/>
</g>
<g fill="None" fill-opacity="0.0" stroke="#8B8B8C" stroke-opacity="0.99" stroke-width="0.3"><path d="
M 359.00 168.00 
C 359.00 167.96 360.00 168.00 360.00 168.00
C 360.00 149.92 358.36 130.99 360.00 113.00
C 356.57 129.59 359.00 150.40 359.00 168.00 Z"/>
</g>
<g fill="None" fill-opacity="0.0" stroke="#E8E8E8" stroke-opacity="0.42" stroke-width="0.3"><path d="
M 426.00 124.00 
C 426.00 123.96 427.00 124.00 427.00 124.00
C 427.00 120.82 426.36 117.53 426.00 115.00
C 426.11 117.99 426.00 121.01 426.00 124.00 Z"/>
</g>
<g fill="None" fill-opacity="0.0" stroke="#C0BFBF" stroke-opacity="0.85" stroke-width="0.3"><path d="
M 665.00 168.00 
C 665.00 167.96 666.00 168.00 666.00 168.00
C 666.00 152.43 666.50 135.84 665.00 121.00
C 664.77 136.66 665.00 152.34 665.00 168.00 Z"/>
</g>
<g fill="None" fill-opacity="0.0" stroke="#ADADAD" stroke-opacity="0.96" stroke-width="0.3"><path d="
M 426.00 155.00 
C 426.00 154.96 427.00 155.00 427.00 155.00
C 427.00 144.55 427.00 134.76 427.00 124.00
C 427.00 124.00 426.00 123.96 426.00 124.00
C 426.00 134.33 426.00 144.67 426.00 155.00 Z"/>
</g>
<g fill="None" fill-opacity="0.0" stroke="#5E5F60" stroke-opacity="1.00" stroke-width="0.3"><path d="
M 393.00 197.00 
C 389.61 195.11 392.80 186.29 392.00 182.00 C 391.20 177.71 392.35 170.03 392.00 165.00 C 391.65 159.97 392.13 153.33 392.00 148.00 C 391.87 142.67 392.00 136.42 392.00 131.00
C 392.00 130.50 392.00 130.00 392.00 130.00
C 387.83 134.01 392.41 147.28 391.00 153.00 C 389.59 158.72 392.06 171.74 391.00 177.00 C 389.94 182.26 391.51 198.13 393.00 197.00 Z"/>
</g>
<g fill="None" fill-opacity="0.0" stroke="#E7E8E8" stroke-opacity="0.37" stroke-width="0.3"><path d="
M 392.00 131.00 
C 396.54 132.21 393.46 145.52 394.00 151.00 C 394.54 156.48 394.19 166.55 394.00 173.00 C 393.81 179.45 394.96 189.36 394.00 196.00
C 397.45 191.32 394.17 178.82 395.00 173.00 C 395.83 167.18 394.89 154.93 395.00 150.00 C 395.11 145.07 396.89 129.50 392.00 130.00
C 392.00 130.00 392.00 130.50 392.00 131.00 Z"/>
</g>
<g fill="None" fill-opacity="0.0" stroke="#000000" stroke-opacity="0.00" stroke-width="0.3"><path d="
M 630.00 131.00 
C 628.97 136.26 631.62 144.52 631.00 151.00 C 630.38 157.48 630.41 166.42 631.00 173.00 C 631.59 179.58 629.22 188.49 630.00 194.00
C 630.24 195.00 631.20 196.53 632.00 197.00
C 633.79 192.68 633.01 186.05 633.00 181.00 C 632.99 175.95 633.36 168.77 633.00 164.00 C 632.64 159.23 633.95 150.89 633.00 147.00 C 632.05 143.11 635.51 131.58 632.00 130.00
C 631.10 129.87 630.32 130.19 630.00 131.00 Z"/>
</g>
<g fill="None" fill-opacity="0.0" stroke="#636363" stroke-opacity="1.00" stroke-width="0.3"><path d="
M 632.00 197.00 
C 634.82 198.67 634.12 186.09 634.00 182.00 C 633.88 177.91 634.27 168.50 634.00 164.00 C 633.73 159.50 634.60 149.90 634.00 146.00 C 633.40 142.10 636.23 130.62 632.00 130.00
C 635.51 131.58 632.05 143.11 633.00 147.00 C 633.95 150.89 632.64 159.23 633.00 164.00 C 633.36 168.77 632.99 175.95 633.00 181.00 C 633.01 186.05 633.79 192.68 632.00 197.00 Z"/>
</g>
<g fill="None" fill-opacity="0.0" stroke="#000000" stroke-opacity="0.00" stroke-width="0.3"><path d="
M 393.00 197.00 
C 393.29 196.78 393.78 196.30 394.00 196.00
C 394.96 189.36 393.81 179.45 394.00 173.00 C 394.19 166.55 394.54 156.48 394.00 151.00 C 393.46 145.52 396.54 132.21 392.00 131.00
C 392.00 136.42 391.87 142.67 392.00 148.00 C 392.13 153.33 391.65 159.97 392.00 165.00 C 392.35 170.03 391.20 177.71 392.00 182.00 C 392.80 186.29 389.61 195.11 393.00 197.00 Z"/>
</g>
<g fill="None" fill-opacity="0.0" stroke="#E9E9EA" stroke-opacity="0.36" stroke-width="0.3"><path d="
M 630.00 194.00 
C 629.22 188.49 631.59 179.58 631.00 173.00 C 630.41 166.42 630.38 157.48 631.00 151.00 C 631.62 144.52 628.97 136.26 630.00 131.00
C 627.67 136.84 630.76 145.62 630.00 152.00 C 629.24 158.38 629.71 166.49 630.00 173.00 C 630.29 179.51 628.46 187.69 630.00 194.00 Z"/>
</g>
<g fill="None" fill-opacity="0.0" stroke="#5D5E5E" stroke-opacity="1.00" stroke-width="0.3"><path d="
M 429.00 203.00 
C 424.08 197.52 427.75 187.28 427.00 180.00 C 426.25 172.72 427.00 162.55 427.00 155.00
C 427.00 155.00 426.00 154.96 426.00 155.00
C 426.00 162.88 425.46 173.38 426.00 181.00 C 426.55 188.62 423.11 198.11 429.00 203.00 Z"/>
</g>
<g fill="None" fill-opacity="0.0" stroke="#656667" stroke-opacity="1.00" stroke-width="0.3"><path d="
M 359.00 199.00 
C 361.05 189.77 360.00 178.09 360.00 168.00
C 360.00 168.00 359.00 167.96 359.00 168.00
C 359.00 178.15 360.04 188.91 359.00 199.00 Z"/>
</g>
<g fill="None" fill-opacity="0.0" stroke="#898989" stroke-opacity="1.00" stroke-width="0.3"><path d="
M 666.00 198.00 
C 665.22 188.14 666.00 177.89 666.00 168.00
C 666.00 168.00 665.00 167.96 665.00 168.00
C 665.00 177.87 664.24 188.88 666.00 198.00 Z"/>
</g>
<g fill="None" fill-opacity="0.0" stroke="#969696" stroke-opacity="0.84" stroke-width="0.3"><path d="
M 587.00 210.00 
C 588.65 208.85 589.60 207.40 591.00 206.00
C 589.68 207.12 588.32 208.92 587.00 210.00 Z"/>
</g>
<g fill="None" fill-opacity="0.0" stroke="#000000" stroke-opacity="0.00" stroke-width="0.3"><path d="
M 387.00 408.00 
C 470.66 408.00 554.33 408.00 638.00 408.00
C 641.18 404.09 638.49 395.14 641.07 390.07 C 643.65 385.01 643.31 379.08 645.02 373.02 C 646.73 366.97 647.47 364.45 649.01 357.01 C 650.55 349.56 651.12 349.70 653.01 340.01 C 654.89 330.32 658.78 316.60 661.01 307.01 C 663.23 297.41 663.33 297.71 665.02 290.02 C 666.72 282.34 668.11 281.16 669.00 274.00
C 668.80 270.61 666.12 268.48 664.00 266.00
C 654.54 254.44 646.32 241.81 641.00 228.00
C 626.50 224.95 613.02 229.24 603.23 238.23 C 593.44 247.22 584.04 250.18 572.69 255.69 C 561.35 261.21 547.72 265.11 535.00 266.00
C 533.70 266.23 531.89 266.93 530.00 267.00
C 527.67 267.09 525.33 267.00 523.00 267.00
C 516.71 267.60 509.23 267.60 503.00 267.00
C 491.16 267.00 477.60 264.42 467.07 260.93 C 456.55 257.43 446.99 253.48 437.70 248.30 C 428.41 243.12 420.42 238.23 412.70 231.30 C 404.97 224.37 403.43 228.95 395.00 228.00 C 386.57 227.05 384.18 226.50 380.77 234.77 C 377.36 243.04 370.86 253.48 365.92 260.92 C 360.98 268.36 359.71 266.27 356.33 272.33 C 352.96 278.39 359.82 283.56 359.67 289.33 C 359.53 295.09 363.09 300.63 363.67 306.33 C 364.26 312.03 366.93 317.38 368.01 322.99 C 369.09 328.61 370.74 334.41 372.01 339.99 C 373.27 345.57 374.41 351.56 376.01 356.99 C 377.60 362.42 378.06 368.80 380.02 373.98 C 381.99 379.15 381.46 386.36 384.02 390.98 C 386.59 395.60 384.07 404.40 387.00 408.00 Z"/>
</g>
<g fill="None" fill-opacity="0.0" stroke="#BABBBA" stroke-opacity="0.67" stroke-width="0.3"><path d="
M 508.00 236.00 
C 505.73 235.78 501.95 235.20 499.00 235.00
C 501.56 235.46 504.75 236.00 508.00 236.00 Z"/>
</g>
<g fill="None" fill-opacity="0.0" stroke="#ABABAB" stroke-opacity="0.80" stroke-width="0.3"><path d="
M 530.00 267.00 
C 531.89 266.93 533.70 266.23 535.00 266.00
C 533.26 266.12 531.15 266.84 530.00 267.00 Z"/>
</g>
<g fill="None" fill-opacity="0.0" stroke="#838282" stroke-opacity="0.89" stroke-width="0.3"><path d="
M 669.00 274.00 
C 669.52 269.83 667.32 269.32 664.00 266.00
C 666.12 268.48 668.80 270.61 669.00 274.00 Z"/>
</g>
<g fill="None" fill-opacity="0.0" stroke="#BEBFBF" stroke-opacity="0.88" stroke-width="0.3"><path d="
M 523.00 267.00 
C 516.33 267.00 509.67 267.00 503.00 267.00
C 509.23 267.60 516.71 267.60 523.00 267.00 Z"/>
</g>
<g fill="None" fill-opacity="0.0" stroke="#8F9191" stroke-opacity="1.00" stroke-width="0.3"><path d="
M 638.00 408.00 
C 554.33 408.00 470.66 408.00 387.00 408.00
C 390.61 412.43 402.86 407.66 409.00 409.00 C 415.14 410.34 425.02 408.40 432.00 409.00 C 438.98 409.60 447.65 408.73 455.00 409.00 C 462.35 409.27 470.49 408.89 478.00 409.00 C 485.51 409.11 493.43 408.97 501.00 409.00 C 508.57 409.03 516.43 409.03 524.00 409.00 C 531.57 408.97 539.49 409.11 547.00 409.00 C 554.51 408.89 562.65 409.27 570.00 409.00 C 577.35 408.73 586.03 409.61 593.00 409.00 C 599.97 408.39 609.88 410.35 616.00 409.00 C 622.12 407.65 634.37 412.46 638.00 408.00 Z"/>
</g>
<g fill="None" fill-opacity="0.0" stroke="#C6C6C6" stroke-opacity="1.00" stroke-width="0.3"><path d="
M 385.00 441.00 
C 470.33 441.00 555.67 441.00 641.00 441.00
C 634.99 435.97 621.27 441.61 613.00 440.00 C 604.73 438.39 592.94 440.74 584.00 440.00 C 575.06 439.26 565.27 440.30 556.00 440.00 C 546.73 439.70 536.41 440.09 527.00 440.00 C 517.59 439.91 507.39 439.93 498.00 440.00 C 488.61 440.07 479.28 439.72 470.00 440.00 C 460.72 440.28 450.04 439.35 441.00 440.00 C 431.96 440.65 420.39 438.54 412.00 440.00 C 403.61 441.46 391.25 436.16 385.00 441.00 Z"/>
</g>
<g fill="None" fill-opacity="0.0" stroke="#000000" stroke-opacity="0.00" stroke-width="0.3"><path d="
M 260.00 806.00 
C 259.85 807.56 259.20 809.01 259.00 810.00
C 258.50 821.14 255.97 831.75 256.00 843.00
C 291.44 857.15 326.66 865.84 365.00 871.00
C 366.34 871.18 368.21 871.88 369.00 872.00
C 370.33 872.05 371.67 871.95 373.00 872.00
C 374.63 872.06 376.00 872.83 377.00 873.00
C 384.80 873.44 392.35 874.27 400.00 875.00
C 401.96 875.19 404.68 875.85 406.00 876.00
C 423.77 876.50 441.19 879.00 459.00 879.00
C 464.06 879.00 469.68 879.58 474.00 880.00
C 480.33 880.00 486.67 880.00 493.00 880.00
C 506.33 880.00 519.67 880.00 533.00 880.00
C 539.67 880.00 546.33 880.00 553.00 880.00
C 557.06 879.61 562.26 879.00 567.00 879.00
C 570.71 879.00 574.91 878.96 578.00 879.00
C 580.11 878.79 583.22 878.00 586.00 878.00
C 601.10 878.00 615.86 875.42 631.00 875.00
C 632.37 874.84 635.05 874.19 637.00 874.00
C 682.75 869.02 727.79 860.31 770.00 843.00
C 768.45 839.26 769.24 835.08 769.00 831.00
C 768.83 830.02 768.06 828.57 768.00 827.00
C 767.95 825.67 768.05 824.33 768.00 823.00
C 767.87 822.17 767.16 820.36 767.00 819.00
C 765.85 809.05 764.43 798.77 763.00 789.00 C 761.57 779.23 760.14 769.14 758.33 759.67 C 756.52 750.20 755.06 741.21 752.98 732.02 C 750.89 722.84 748.55 713.65 746.33 704.67 C 744.11 695.70 742.02 687.34 739.33 678.67 C 736.63 670.01 734.69 660.72 731.78 652.22 C 728.86 643.73 725.68 635.45 722.98 627.02 C 720.27 618.60 717.55 610.78 714.32 602.68 C 711.09 594.58 708.21 586.02 704.92 578.08 C 701.64 570.13 698.37 562.85 694.93 555.07 C 691.48 547.30 688.47 538.82 684.77 531.23 C 681.07 523.64 677.55 515.49 673.92 508.08 C 670.30 500.66 667.15 492.94 662.92 486.08 C 658.69 479.21 656.58 469.33 651.77 463.23 C 646.96 457.13 646.45 445.56 641.00 441.00
C 555.67 441.00 470.33 441.00 385.00 441.00
C 378.93 445.70 378.36 457.91 373.31 464.31 C 368.25 470.70 366.31 480.61 361.77 487.77 C 357.23 494.93 354.47 503.70 350.31 511.31 C 346.14 518.91 342.98 527.35 339.31 535.31 C 335.63 543.26 331.88 551.19 328.32 559.32 C 324.77 567.45 321.85 576.05 318.31 584.31 C 314.77 592.57 311.66 601.16 308.78 609.78 C 305.89 618.40 301.98 626.49 299.33 635.33 C 296.67 644.17 293.75 653.01 290.98 661.98 C 288.20 670.94 285.60 680.08 283.32 689.32 C 281.04 698.57 278.29 707.58 275.99 716.99 C 273.70 726.40 271.99 736.33 269.98 745.98 C 267.96 755.63 265.89 765.44 264.33 775.33 C 262.77 785.22 260.97 795.93 260.00 806.00 Z"/>
</g>
<g fill="None" fill-opacity="0.0" stroke="#A3A3A2" stroke-opacity="0.82" stroke-width="0.3"><path d="
M 799.00 804.00 
C 798.94 802.41 798.19 801.01 798.00 800.00
C 798.10 801.47 798.86 803.10 799.00 804.00 Z"/>
</g>
<g fill="None" fill-opacity="0.0" stroke="#CCCBCC" stroke-opacity="0.58" stroke-width="0.3"><path d="
M 259.00 810.00 
C 259.20 809.01 259.85 807.56 260.00 806.00
C 259.76 807.07 259.13 808.36 259.00 810.00 Z"/>
</g>
<g fill="None" fill-opacity="0.0" stroke="#959797" stroke-opacity="0.85" stroke-width="0.3"><path d="
M 800.00 812.00 
C 799.84 810.64 799.13 808.83 799.00 808.00
C 799.06 809.69 799.72 810.86 800.00 812.00 Z"/>
</g>
<g fill="None" fill-opacity="0.0" stroke="#C0C1C1" stroke-opacity="0.70" stroke-width="0.3"><path d="
M 768.00 823.00 
C 767.94 821.31 767.28 820.14 767.00 819.00
C 767.16 820.36 767.87 822.17 768.00 823.00 Z"/>
</g>
<g fill="None" fill-opacity="0.0" stroke="#999998" stroke-opacity="0.81" stroke-width="0.3"><path d="
M 802.00 829.00 
C 801.97 827.15 801.17 825.23 801.00 824.00
C 801.07 825.80 801.84 827.81 802.00 829.00 Z"/>
</g>
<g fill="None" fill-opacity="0.0" stroke="#A1A2A2" stroke-opacity="0.84" stroke-width="0.3"><path d="
M 769.00 831.00 
C 768.91 829.51 768.14 827.91 768.00 827.00
C 768.06 828.57 768.83 830.02 769.00 831.00 Z"/>
</g>
<g fill="None" fill-opacity="0.0" stroke="#9B9D9B" stroke-opacity="0.84" stroke-width="0.3"><path d="
M 803.00 838.00 
C 802.95 836.17 802.16 834.21 802.00 833.00
C 802.03 834.83 802.85 836.80 803.00 838.00 Z"/>
</g>
<g fill="None" fill-opacity="0.0" stroke="#969596" stroke-opacity="0.87" stroke-width="0.3"><path d="
M 803.00 854.00 
C 803.93 850.25 803.39 846.69 803.00 843.00
C 803.00 846.57 803.44 850.46 803.00 854.00 Z"/>
</g>
<g fill="None" fill-opacity="0.0" stroke="#A2A4A4" stroke-opacity="0.80" stroke-width="0.3"><path d="
M 369.00 872.00 
C 368.21 871.88 366.34 871.18 365.00 871.00
C 366.22 871.33 367.19 871.93 369.00 872.00 Z"/>
</g>
<g fill="None" fill-opacity="0.0" stroke="#AFAEB2" stroke-opacity="0.73" stroke-width="0.3"><path d="
M 377.00 873.00 
C 376.00 872.83 374.63 872.06 373.00 872.00
C 373.92 872.14 375.46 872.91 377.00 873.00 Z"/>
</g>
<g fill="None" fill-opacity="0.0" stroke="#8A8A8C" stroke-opacity="0.88" stroke-width="0.3"><path d="
M 631.00 875.00 
C 633.25 874.94 635.34 874.32 637.00 874.00
C 635.05 874.19 632.37 874.84 631.00 875.00 Z"/>
</g>
<g fill="None" fill-opacity="0.0" stroke="#A9AAA8" stroke-opacity="0.77" stroke-width="0.3"><path d="
M 406.00 876.00 
C 404.68 875.85 401.96 875.19 400.00 875.00
C 401.65 875.32 403.71 875.94 406.00 876.00 Z"/>
</g>
<g fill="None" fill-opacity="0.0" stroke="#949596" stroke-opacity="0.93" stroke-width="0.3"><path d="
M 578.00 879.00 
C 580.79 879.04 583.89 878.20 586.00 878.00
C 583.22 878.00 580.11 878.79 578.00 879.00 Z"/>
</g>
<g fill="None" fill-opacity="0.0" stroke="#9E9E9E" stroke-opacity="0.88" stroke-width="0.3"><path d="
M 474.00 880.00 
C 469.68 879.58 464.06 879.00 459.00 879.00
C 463.32 879.42 468.94 880.00 474.00 880.00 Z"/>
</g>
<g fill="None" fill-opacity="0.0" stroke="#929292" stroke-opacity="0.85" stroke-width="0.3"><path d="
M 553.00 880.00 
C 557.74 880.00 562.94 879.39 567.00 879.00
C 562.26 879.00 557.06 879.61 553.00 880.00 Z"/>
</g>
<g fill="None" fill-opacity="0.0" stroke="#727373" stroke-opacity="1.00" stroke-width="0.3"><path d="
M 533.00 880.00 
C 519.67 880.00 506.33 880.00 493.00 880.00
C 505.50 881.21 520.43 881.22 533.00 880.00 Z"/>
</g>
<g fill="None" fill-opacity="0.0" stroke="#B8B9BA" stroke-opacity="0.70" stroke-width="0.3"><path d="
M 636.00 907.00 
C 637.75 906.88 639.84 906.16 641.00 906.00
C 639.12 906.08 637.30 906.77 636.00 907.00 Z"/>
</g>
<g fill="None" fill-opacity="0.0" stroke="#ACAEAF" stroke-opacity="0.75" stroke-width="0.3"><path d="
M 613.00 909.00 
C 615.02 908.87 617.58 908.16 619.00 908.00
C 616.81 908.06 614.58 908.75 613.00 909.00 Z"/>
</g>
<g fill="None" fill-opacity="0.0" stroke="#9A9A9A" stroke-opacity="0.87" stroke-width="0.3"><path d="
M 582.00 911.00 
C 585.42 911.00 589.25 910.27 592.00 910.00
C 588.58 910.00 584.75 910.73 582.00 911.00 Z"/>
</g>
<g fill="None" fill-opacity="0.0" stroke="#EEEFEE" stroke-opacity="0.20" stroke-width="0.3"><path d="
M 532.00 912.00 
C 520.44 912.00 508.52 911.15 497.00 912.00
C 507.90 912.30 520.97 913.07 532.00 912.00 Z"/>
</g>
<g fill="#000000" fill-opacity="0.00" stroke="None">
<path d="
M 0.00 1024.00 
L 1024.00 1024.00
L 1024.00 0.00
L 0.00 0.00
L 0.00 1024.00
M 426.00 115.00 
C 426.36 117.53 427.00 120.82 427.00 124.00
C 427.00 134.76 427.00 144.55 427.00 155.00
C 427.00 162.55 426.25 172.72 427.00 180.00 C 427.75 187.28 424.08 197.52 429.00 203.00
C 448.73 219.37 473.13 233.24 499.00 235.00
C 501.95 235.20 505.73 235.78 508.00 236.00
C 538.35 236.00 562.90 226.87 587.00 210.00
C 588.32 208.92 589.68 207.12 591.00 206.00
C 601.45 197.07 597.79 184.72 598.00 171.00 C 598.21 157.28 598.00 142.79 598.00 129.00
C 598.00 122.95 597.69 116.30 599.00 111.00
C 601.42 101.23 609.57 96.79 620.00 98.00 C 630.43 99.21 643.66 96.33 654.07 98.93 C 664.48 101.52 665.12 112.72 665.00 121.00
C 666.50 135.84 666.00 152.43 666.00 168.00
C 666.00 177.89 665.22 188.14 666.00 198.00
C 667.19 212.96 675.63 227.63 685.25 239.75 C 694.88 251.86 707.12 265.14 701.02 282.02 C 694.93 298.91 693.74 315.52 689.07 332.07 C 684.41 348.62 680.82 365.97 677.07 382.07 C 673.33 398.18 665.36 416.33 671.92 431.08 C 678.49 445.82 686.13 457.90 692.77 472.23 C 699.41 486.56 706.36 498.83 712.77 513.23 C 719.18 527.63 725.32 541.64 731.77 556.23 C 738.22 570.82 743.24 585.88 748.98 601.02 C 754.71 616.17 760.00 631.26 764.93 647.07 C 769.85 662.88 774.31 679.17 778.33 695.67 C 782.34 712.17 786.92 728.92 789.93 746.07 C 792.93 763.22 796.83 782.23 798.00 800.00
C 798.19 801.01 798.94 802.41 799.00 804.00
C 799.05 805.33 798.95 806.67 799.00 808.00
C 799.13 808.83 799.84 810.64 800.00 812.00
C 800.47 816.05 800.83 819.76 801.00 824.00
C 801.17 825.23 801.97 827.15 802.00 829.00
C 802.02 830.33 801.98 831.67 802.00 833.00
C 802.16 834.21 802.95 836.17 803.00 838.00
C 803.05 839.66 803.00 841.34 803.00 843.00
C 803.39 846.69 803.93 850.25 803.00 854.00
C 798.28 873.06 774.84 875.27 758.98 881.98 C 743.11 888.69 722.88 893.01 703.98 896.98 C 685.07 900.94 661.09 905.20 641.00 906.00
C 639.84 906.16 637.75 906.88 636.00 907.00
C 630.26 907.40 624.91 907.83 619.00 908.00
C 617.58 908.16 615.02 908.87 613.00 909.00
C 606.01 909.45 599.24 910.00 592.00 910.00
C 589.25 910.27 585.42 911.00 582.00 911.00
C 565.53 911.00 548.79 912.00 532.00 912.00
C 520.97 913.07 507.90 912.30 497.00 912.00
C 478.38 913.38 456.07 911.63 437.00 911.00 C 417.93 910.37 397.50 907.81 379.00 906.00 C 360.49 904.19 342.27 900.86 324.78 897.22 C 307.29 893.58 289.91 890.65 273.78 884.22 C 257.65 877.80 243.37 877.11 229.30 865.70 C 215.24 854.29 224.13 831.58 225.00 815.00 C 225.87 798.41 231.38 776.78 233.78 759.78 C 236.17 742.78 240.50 724.01 244.33 707.33 C 248.16 690.64 252.89 673.97 257.78 657.78 C 262.66 641.58 267.49 624.69 272.98 608.98 C 278.47 593.26 284.74 578.97 290.77 563.77 C 296.81 548.57 302.80 534.49 309.77 519.77 C 316.74 505.05 323.12 490.93 330.31 476.31 C 337.49 461.68 343.53 449.37 351.77 434.77 C 360.01 420.18 352.55 401.75 348.22 385.78 C 343.90 369.81 342.14 352.18 336.67 335.33 C 331.20 318.48 331.52 302.66 325.00 286.00 C 318.49 269.34 327.35 254.65 338.25 242.25 C 349.15 229.84 355.60 214.33 359.00 199.00
C 360.04 188.91 359.00 178.15 359.00 168.00
C 359.00 150.40 356.57 129.59 360.00 113.00
C 363.61 95.57 379.29 98.22 394.00 98.00 C 408.71 97.78 425.29 96.51 426.00 115.00 Z"/>
</g>
<g fill="#010204" fill-opacity="1.00" stroke="None">
<path d="
M 360.00 113.00 
C 358.36 130.99 360.00 149.92 360.00 168.00
C 360.00 178.09 361.05 189.77 359.00 199.00
C 355.60 214.33 349.15 229.84 338.25 242.25 C 327.35 254.65 318.49 269.34 325.00 286.00 C 331.52 302.66 331.20 318.48 336.67 335.33 C 342.14 352.18 343.90 369.81 348.22 385.78 C 352.55 401.75 360.01 420.18 351.77 434.77 C 343.53 449.37 337.49 461.68 330.31 476.31 C 323.12 490.93 316.74 505.05 309.77 519.77 C 302.80 534.49 296.81 548.57 290.77 563.77 C 284.74 578.97 278.47 593.26 272.98 608.98 C 267.49 624.69 262.66 641.58 257.78 657.78 C 252.89 673.97 248.16 690.64 244.33 707.33 C 240.50 724.01 236.17 742.78 233.78 759.78 C 231.38 776.78 225.87 798.41 225.00 815.00 C 224.13 831.58 215.24 854.29 229.30 865.70 C 243.37 877.11 257.65 877.80 273.78 884.22 C 289.91 890.65 307.29 893.58 324.78 897.22 C 342.27 900.86 360.49 904.19 379.00 906.00 C 397.50 907.81 417.93 910.37 437.00 911.00 C 456.07 911.63 478.38 913.38 497.00 912.00
C 508.52 911.15 520.44 912.00 532.00 912.00
C 548.79 912.00 565.53 911.00 582.00 911.00
C 584.75 910.73 588.58 910.00 592.00 910.00
C 599.24 910.00 606.01 909.45 613.00 909.00
C 614.58 908.75 616.81 908.06 619.00 908.00
C 624.91 907.83 630.26 907.40 636.00 907.00
C 637.30 906.77 639.12 906.08 641.00 906.00
C 661.09 905.20 685.07 900.94 703.98 896.98 C 722.88 893.01 743.11 888.69 758.98 881.98 C 774.84 875.27 798.28 873.06 803.00 854.00
C 803.44 850.46 803.00 846.57 803.00 843.00
C 803.00 841.34 803.05 839.66 803.00 838.00
C 802.85 836.80 802.03 834.83 802.00 833.00
C 801.98 831.67 802.02 830.33 802.00 829.00
C 801.84 827.81 801.07 825.80 801.00 824.00
C 800.83 819.76 800.47 816.05 800.00 812.00
C 799.72 810.86 799.06 809.69 799.00 808.00
C 798.95 806.67 799.05 805.33 799.00 804.00
C 798.86 803.10 798.10 801.47 798.00 800.00
C 796.83 782.23 792.93 763.22 789.93 746.07 C 786.92 728.92 782.34 712.17 778.33 695.67 C 774.31 679.17 769.85 662.88 764.93 647.07 C 760.00 631.26 754.71 616.17 748.98 601.02 C 743.24 585.88 738.22 570.82 731.77 556.23 C 725.32 541.64 719.18 527.63 712.77 513.23 C 706.36 498.83 699.41 486.56 692.77 472.23 C 686.13 457.90 678.49 445.82 671.92 431.08 C 665.36 416.33 673.33 398.18 677.07 382.07 C 680.82 365.97 684.41 348.62 689.07 332.07 C 693.74 315.52 694.93 298.91 701.02 282.02 C 707.12 265.14 694.88 251.86 685.25 239.75 C 675.63 227.63 667.19 212.96 666.00 198.00
C 664.24 188.88 665.00 177.87 665.00 168.00
C 665.00 152.34 664.77 136.66 665.00 121.00
C 665.12 112.72 664.48 101.52 654.07 98.93 C 643.66 96.33 630.43 99.21 620.00 98.00 C 609.57 96.79 601.42 101.23 599.00 111.00
C 598.29 116.74 598.50 123.88 598.00 129.00
C 598.00 142.79 598.21 157.28 598.00 171.00 C 597.79 184.72 601.45 197.07 591.00 206.00
C 589.60 207.40 588.65 208.85 587.00 210.00
C 562.90 226.87 538.35 236.00 508.00 236.00
C 504.75 236.00 501.56 235.46 499.00 235.00
C 473.13 233.24 448.73 219.37 429.00 203.00
C 423.11 198.11 426.55 188.62 426.00 181.00 C 425.46 173.38 426.00 162.88 426.00 155.00
C 426.00 144.67 426.00 134.33 426.00 124.00
C 426.00 121.01 426.11 117.99 426.00 115.00
C 425.29 96.51 408.71 97.78 394.00 98.00 C 379.29 98.22 363.61 95.57 360.00 113.00
M 394.00 196.00 
C 393.78 196.30 393.29 196.78 393.00 197.00
C 391.51 198.13 389.94 182.26 391.00 177.00 C 392.06 171.74 389.59 158.72 391.00 153.00 C 392.41 147.28 387.83 134.01 392.00 130.00
C 396.89 129.50 395.11 145.07 395.00 150.00 C 394.89 154.93 395.83 167.18 395.00 173.00 C 394.17 178.82 397.45 191.32 394.00 196.00
M 632.00 197.00 
C 631.20 196.53 630.24 195.00 630.00 194.00
C 628.46 187.69 630.29 179.51 630.00 173.00 C 629.71 166.49 629.24 158.38 630.00 152.00 C 630.76 145.62 627.67 136.84 630.00 131.00
C 630.32 130.19 631.10 129.87 632.00 130.00
C 636.23 130.62 633.40 142.10 634.00 146.00 C 634.60 149.90 633.73 159.50 634.00 164.00 C 634.27 168.50 633.88 177.91 634.00 182.00 C 634.12 186.09 634.82 198.67 632.00 197.00
M 503.00 267.00 
C 509.67 267.00 516.33 267.00 523.00 267.00
C 525.33 267.00 527.67 267.09 530.00 267.00
C 531.15 266.84 533.26 266.12 535.00 266.00
C 547.72 265.11 561.35 261.21 572.69 255.69 C 584.04 250.18 593.44 247.22 603.23 238.23 C 613.02 229.24 626.50 224.95 641.00 228.00
C 646.32 241.81 654.54 254.44 664.00 266.00
C 667.32 269.32 669.52 269.83 669.00 274.00
C 668.11 281.16 666.72 282.34 665.02 290.02 C 663.33 297.71 663.23 297.41 661.01 307.01 C 658.78 316.60 654.89 330.32 653.01 340.01 C 651.12 349.70 650.55 349.56 649.01 357.01 C 647.47 364.45 646.73 366.97 645.02 373.02 C 643.31 379.08 643.65 385.01 641.07 390.07 C 638.49 395.14 641.18 404.09 638.00 408.00
C 634.37 412.46 622.12 407.65 616.00 409.00 C 609.88 410.35 599.97 408.39 593.00 409.00 C 586.03 409.61 577.35 408.73 570.00 409.00 C 562.65 409.27 554.51 408.89 547.00 409.00 C 539.49 409.11 531.57 408.97 524.00 409.00 C 516.43 409.03 508.57 409.03 501.00 409.00 C 493.43 408.97 485.51 409.11 478.00 409.00 C 470.49 408.89 462.35 409.27 455.00 409.00 C 447.65 408.73 438.98 409.60 432.00 409.00 C 425.02 408.40 415.14 410.34 409.00 409.00 C 402.86 407.66 390.61 412.43 387.00 408.00
C 384.07 404.40 386.59 395.60 384.02 390.98 C 381.46 386.36 381.99 379.15 380.02 373.98 C 378.06 368.80 377.60 362.42 376.01 356.99 C 374.41 351.56 373.27 345.57 372.01 339.99 C 370.74 334.41 369.09 328.61 368.01 322.99 C 366.93 317.38 364.26 312.03 363.67 306.33 C 363.09 300.63 359.53 295.09 359.67 289.33 C 359.82 283.56 352.96 278.39 356.33 272.33 C 359.71 266.27 360.98 268.36 365.92 260.92 C 370.86 253.48 377.36 243.04 380.77 234.77 C 384.18 226.50 386.57 227.05 395.00 228.00 C 403.43 228.95 404.97 224.37 412.70 231.30 C 420.42 238.23 428.41 243.12 437.70 248.30 C 446.99 253.48 456.55 257.43 467.07 260.93 C 477.60 264.42 491.16 267.00 503.00 267.00
M 641.00 441.00 
C 646.45 445.56 646.96 457.13 651.77 463.23 C 656.58 469.33 658.69 479.21 662.92 486.08 C 667.15 492.94 670.30 500.66 673.92 508.08 C 677.55 515.49 681.07 523.64 684.77 531.23 C 688.47 538.82 691.48 547.30 694.93 555.07 C 698.37 562.85 701.64 570.13 704.92 578.08 C 708.21 586.02 711.09 594.58 714.32 602.68 C 717.55 610.78 720.27 618.60 722.98 627.02 C 725.68 635.45 728.86 643.73 731.78 652.22 C 734.69 660.72 736.63 670.01 739.33 678.67 C 742.02 687.34 744.11 695.70 746.33 704.67 C 748.55 713.65 750.89 722.84 752.98 732.02 C 755.06 741.21 756.52 750.20 758.33 759.67 C 760.14 769.14 761.57 779.23 763.00 789.00 C 764.43 798.77 765.85 809.05 767.00 819.00
C 767.28 820.14 767.94 821.31 768.00 823.00
C 768.05 824.33 767.95 825.67 768.00 827.00
C 768.14 827.91 768.91 829.51 769.00 831.00
C 769.24 835.08 768.45 839.26 770.00 843.00
C 727.79 860.31 682.75 869.02 637.00 874.00
C 635.34 874.32 633.25 874.94 631.00 875.00
C 615.86 875.42 601.10 878.00 586.00 878.00
C 583.89 878.20 580.79 879.04 578.00 879.00
C 574.91 878.96 570.71 879.00 567.00 879.00
C 562.94 879.39 557.74 880.00 553.00 880.00
C 546.33 880.00 539.67 880.00 533.00 880.00
C 520.43 881.22 505.50 881.21 493.00 880.00
C 486.67 880.00 480.33 880.00 474.00 880.00
C 468.94 880.00 463.32 879.42 459.00 879.00
C 441.19 879.00 423.77 876.50 406.00 876.00
C 403.71 875.94 401.65 875.32 400.00 875.00
C 392.35 874.27 384.80 873.44 377.00 873.00
C 375.46 872.91 373.92 872.14 373.00 872.00
C 371.67 871.95 370.33 872.05 369.00 872.00
C 367.19 871.93 366.22 871.33 365.00 871.00
C 326.66 865.84 291.44 857.15 256.00 843.00
C 255.97 831.75 258.50 821.14 259.00 810.00
C 259.13 808.36 259.76 807.07 260.00 806.00
C 260.97 795.93 262.77 785.22 264.33 775.33 C 265.89 765.44 267.96 755.63 269.98 745.98 C 271.99 736.33 273.70 726.40 275.99 716.99 C 278.29 707.58 281.04 698.57 283.32 689.32 C 285.60 680.08 288.20 670.94 290.98 661.98 C 293.75 653.01 296.67 644.17 299.33 635.33 C 301.98 626.49 305.89 618.40 308.78 609.78 C 311.66 601.16 314.77 592.57 318.31 584.31 C 321.85 576.05 324.77 567.45 328.32 559.32 C 331.88 551.19 335.63 543.26 339.31 535.31 C 342.98 527.35 346.14 518.91 350.31 511.31 C 354.47 503.70 357.23 494.93 361.77 487.77 C 366.31 480.61 368.25 470.70 373.31 464.31 C 378.36 457.91 378.93 445.70 385.00 441.00
C 391.25 436.16 403.61 441.46 412.00 440.00 C 420.39 438.54 431.96 440.65 441.00 440.00 C 450.04 439.35 460.72 440.28 470.00 440.00 C 479.28 439.72 488.61 440.07 498.00 440.00 C 507.39 439.93 517.59 439.91 527.00 440.00 C 536.41 440.09 546.73 439.70 556.00 440.00 C 565.27 440.30 575.06 439.26 584.00 440.00 C 592.94 440.74 604.73 438.39 613.00 440.00 C 621.27 441.61 634.99 435.97 641.00 441.00 Z"/>
</g>
<g fill="#4E4E4E" fill-opacity="1.00" stroke="None">
<path d="
M 598.00 129.00 
C 598.50 123.88 598.29 116.74 599.00 111.00
C 597.69 116.30 598.00 122.95 598.00 129.00 Z"/>
</g>
<g fill="#8B8B8C" fill-opacity="0.99" stroke="None">
<path d="
M 359.00 168.00 
C 359.00 167.96 360.00 168.00 360.00 168.00
C 360.00 149.92 358.36 130.99 360.00 113.00
C 356.57 129.59 359.00 150.40 359.00 168.00 Z"/>
</g>
<g fill="#E8E8E8" fill-opacity="0.42" stroke="None">
<path d="
M 426.00 124.00 
C 426.00 123.96 427.00 124.00 427.00 124.00
C 427.00 120.82 426.36 117.53 426.00 115.00
C 426.11 117.99 426.00 121.01 426.00 124.00 Z"/>
</g>
<g fill="#C0BFBF" fill-opacity="0.85" stroke="None">
<path d="
M 665.00 168.00 
C 665.00 167.96 666.00 168.00 666.00 168.00
C 666.00 152.43 666.50 135.84 665.00 121.00
C 664.77 136.66 665.00 152.34 665.00 168.00 Z"/>
</g>
<g fill="#ADADAD" fill-opacity="0.96" stroke="None">
<path d="
M 426.00 155.00 
C 426.00 154.96 427.00 155.00 427.00 155.00
C 427.00 144.55 427.00 134.76 427.00 124.00
C 427.00 124.00 426.00 123.96 426.00 124.00
C 426.00 134.33 426.00 144.67 426.00 155.00 Z"/>
</g>
<g fill="#5E5F60" fill-opacity="1.00" stroke="None">
<path d="
M 393.00 197.00 
C 389.61 195.11 392.80 186.29 392.00 182.00 C 391.20 177.71 392.35 170.03 392.00 165.00 C 391.65 159.97 392.13 153.33 392.00 148.00 C 391.87 142.67 392.00 136.42 392.00 131.00
C 392.00 130.50 392.00 130.00 392.00 130.00
C 387.83 134.01 392.41 147.28 391.00 153.00 C 389.59 158.72 392.06 171.74 391.00 177.00 C 389.94 182.26 391.51 198.13 393.00 197.00 Z"/>
</g>
<g fill="#E7E8E8" fill-opacity="0.37" stroke="None">
<path d="
M 392.00 131.00 
C 396.54 132.21 393.46 145.52 394.00 151.00 C 394.54 156.48 394.19 166.55 394.00 173.00 C 393.81 179.45 394.96 189.36 394.00 196.00
C 397.45 191.32 394.17 178.82 395.00 173.00 C 395.83 167.18 394.89 154.93 395.00 150.00 C 395.11 145.07 396.89 129.50 392.00 130.00
C 392.00 130.00 392.00 130.50 392.00 131.00 Z"/>
</g>
<g fill="#000000" fill-opacity="0.00" stroke="None">
<path d="
M 630.00 131.00 
C 628.97 136.26 631.62 144.52 631.00 151.00 C 630.38 157.48 630.41 166.42 631.00 173.00 C 631.59 179.58 629.22 188.49 630.00 194.00
C 630.24 195.00 631.20 196.53 632.00 197.00
C 633.79 192.68 633.01 186.05 633.00 181.00 C 632.99 175.95 633.36 168.77 633.00 164.00 C 632.64 159.23 633.95 150.89 633.00 147.00 C 632.05 143.11 635.51 131.58 632.00 130.00
C 631.10 129.87 630.32 130.19 630.00 131.00 Z"/>
</g>
<g fill="#636363" fill-opacity="1.00" stroke="None">
<path d="
M 632.00 197.00 
C 634.82 198.67 634.12 186.09 634.00 182.00 C 633.88 177.91 634.27 168.50 634.00 164.00 C 633.73 159.50 634.60 149.90 634.00 146.00 C 633.40 142.10 636.23 130.62 632.00 130.00
C 635.51 131.58 632.05 143.11 633.00 147.00 C 633.95 150.89 632.64 159.23 633.00 164.00 C 633.36 168.77 632.99 175.95 633.00 181.00 C 633.01 186.05 633.79 192.68 632.00 197.00 Z"/>
</g>
<g fill="#000000" fill-opacity="0.00" stroke="None">
<path d="
M 393.00 197.00 
C 393.29 196.78 393.78 196.30 394.00 196.00
C 394.96 189.36 393.81 179.45 394.00 173.00 C 394.19 166.55 394.54 156.48 394.00 151.00 C 393.46 145.52 396.54 132.21 392.00 131.00
C 392.00 136.42 391.87 142.67 392.00 148.00 C 392.13 153.33 391.65 159.97 392.00 165.00 C 392.35 170.03 391.20 177.71 392.00 182.00 C 392.80 186.29 389.61 195.11 393.00 197.00 Z"/>
</g>
<g fill="#E9E9EA" fill-opacity="0.36" stroke="None">
<path d="
M 630.00 194.00 
C 629.22 188.49 631.59 179.58 631.00 173.00 C 630.41 166.42 630.38 157.48 631.00 151.00 C 631.62 144.52 628.97 136.26 630.00 131.00
C 627.67 136.84 630.76 145.62 630.00 152.00 C 629.24 158.38 629.71 166.49 630.00 173.00 C 630.29 179.51 628.46 187.69 630.00 194.00 Z"/>
</g>
<g fill="#5D5E5E" fill-opacity="1.00" stroke="None">
<path d="
M 429.00 203.00 
C 424.08 197.52 427.75 187.28 427.00 180.00 C 426.25 172.72 427.00 162.55 427.00 155.00
C 427.00 155.00 426.00 154.96 426.00 155.00
C 426.00 162.88 425.46 173.38 426.00 181.00 C 426.55 188.62 423.11 198.11 429.00 203.00 Z"/>
</g>
<g fill="#656667" fill-opacity="1.00" stroke="None">
<path d="
M 359.00 199.00 
C 361.05 189.77 360.00 178.09 360.00 168.00
C 360.00 168.00 359.00 167.96 359.00 168.00
C 359.00 178.15 360.04 188.91 359.00 199.00 Z"/>
</g>
<g fill="#898989" fill-opacity="1.00" stroke="None">
<path d="
M 666.00 198.00 
C 665.22 188.14 666.00 177.89 666.00 168.00
C 666.00 168.00 665.00 167.96 665.00 168.00
C 665.00 177.87 664.24 188.88 666.00 198.00 Z"/>
</g>
<g fill="#969696" fill-opacity="0.84" stroke="None">
<path d="
M 587.00 210.00 
C 588.65 208.85 589.60 207.40 591.00 206.00
C 589.68 207.12 588.32 208.92 587.00 210.00 Z"/>
</g>
<g fill="#000000" fill-opacity="0.00" stroke="None">
<path d="
M 387.00 408.00 
C 470.66 408.00 554.33 408.00 638.00 408.00
C 641.18 404.09 638.49 395.14 641.07 390.07 C 643.65 385.01 643.31 379.08 645.02 373.02 C 646.73 366.97 647.47 364.45 649.01 357.01 C 650.55 349.56 651.12 349.70 653.01 340.01 C 654.89 330.32 658.78 316.60 661.01 307.01 C 663.23 297.41 663.33 297.71 665.02 290.02 C 666.72 282.34 668.11 281.16 669.00 274.00
C 668.80 270.61 666.12 268.48 664.00 266.00
C 654.54 254.44 646.32 241.81 641.00 228.00
C 626.50 224.95 613.02 229.24 603.23 238.23 C 593.44 247.22 584.04 250.18 572.69 255.69 C 561.35 261.21 547.72 265.11 535.00 266.00
C 533.70 266.23 531.89 266.93 530.00 267.00
C 527.67 267.09 525.33 267.00 523.00 267.00
C 516.71 267.60 509.23 267.60 503.00 267.00
C 491.16 267.00 477.60 264.42 467.07 260.93 C 456.55 257.43 446.99 253.48 437.70 248.30 C 428.41 243.12 420.42 238.23 412.70 231.30 C 404.97 224.37 403.43 228.95 395.00 228.00 C 386.57 227.05 384.18 226.50 380.77 234.77 C 377.36 243.04 370.86 253.48 365.92 260.92 C 360.98 268.36 359.71 266.27 356.33 272.33 C 352.96 278.39 359.82 283.56 359.67 289.33 C 359.53 295.09 363.09 300.63 363.67 306.33 C 364.26 312.03 366.93 317.38 368.01 322.99 C 369.09 328.61 370.74 334.41 372.01 339.99 C 373.27 345.57 374.41 351.56 376.01 356.99 C 377.60 362.42 378.06 368.80 380.02 373.98 C 381.99 379.15 381.46 386.36 384.02 390.98 C 386.59 395.60 384.07 404.40 387.00 408.00 Z"/>
</g>
<g fill="#BABBBA" fill-opacity="0.67" stroke="None">
<path d="
M 508.00 236.00 
C 505.73 235.78 501.95 235.20 499.00 235.00
C 501.56 235.46 504.75 236.00 508.00 236.00 Z"/>
</g>
<g fill="#ABABAB" fill-opacity="0.80" stroke="None">
<path d="
M 530.00 267.00 
C 531.89 266.93 533.70 266.23 535.00 266.00
C 533.26 266.12 531.15 266.84 530.00 267.00 Z"/>
</g>
<g fill="#838282" fill-opacity="0.89" stroke="None">
<path d="
M 669.00 274.00 
C 669.52 269.83 667.32 269.32 664.00 266.00
C 666.12 268.48 668.80 270.61 669.00 274.00 Z"/>
</g>
<g fill="#BEBFBF" fill-opacity="0.88" stroke="None">
<path d="
M 523.00 267.00 
C 516.33 267.00 509.67 267.00 503.00 267.00
C 509.23 267.60 516.71 267.60 523.00 267.00 Z"/>
</g>
<g fill="#8F9191" fill-opacity="1.00" stroke="None">
<path d="
M 638.00 408.00 
C 554.33 408.00 470.66 408.00 387.00 408.00
C 390.61 412.43 402.86 407.66 409.00 409.00 C 415.14 410.34 425.02 408.40 432.00 409.00 C 438.98 409.60 447.65 408.73 455.00 409.00 C 462.35 409.27 470.49 408.89 478.00 409.00 C 485.51 409.11 493.43 408.97 501.00 409.00 C 508.57 409.03 516.43 409.03 524.00 409.00 C 531.57 408.97 539.49 409.11 547.00 409.00 C 554.51 408.89 562.65 409.27 570.00 409.00 C 577.35 408.73 586.03 409.61 593.00 409.00 C 599.97 408.39 609.88 410.35 616.00 409.00 C 622.12 407.65 634.37 412.46 638.00 408.00 Z"/>
</g>
<g fill="#C6C6C6" fill-opacity="1.00" stroke="None">
<path d="
M 385.00 441.00 
C 470.33 441.00 555.67 441.00 641.00 441.00
C 634.99 435.97 621.27 441.61 613.00 440.00 C 604.73 438.39 592.94 440.74 584.00 440.00 C 575.06 439.26 565.27 440.30 556.00 440.00 C 546.73 439.70 536.41 440.09 527.00 440.00 C 517.59 439.91 507.39 439.93 498.00 440.00 C 488.61 440.07 479.28 439.72 470.00 440.00 C 460.72 440.28 450.04 439.35 441.00 440.00 C 431.96 440.65 420.39 438.54 412.00 440.00 C 403.61 441.46 391.25 436.16 385.00 441.00 Z"/>
</g>
<g fill="#000000" fill-opacity="0.00" stroke="None">
<path d="
M 260.00 806.00 
C 259.85 807.56 259.20 809.01 259.00 810.00
C 258.50 821.14 255.97 831.75 256.00 843.00
C 291.44 857.15 326.66 865.84 365.00 871.00
C 366.34 871.18 368.21 871.88 369.00 872.00
C 370.33 872.05 371.67 871.95 373.00 872.00
C 374.63 872.06 376.00 872.83 377.00 873.00
C 384.80 873.44 392.35 874.27 400.00 875.00
C 401.96 875.19 404.68 875.85 406.00 876.00
C 423.77 876.50 441.19 879.00 459.00 879.00
C 464.06 879.00 469.68 879.58 474.00 880.00
C 480.33 880.00 486.67 880.00 493.00 880.00
C 506.33 880.00 519.67 880.00 533.00 880.00
C 539.67 880.00 546.33 880.00 553.00 880.00
C 557.06 879.61 562.26 879.00 567.00 879.00
C 570.71 879.00 574.91 878.96 578.00 879.00
C 580.11 878.79 583.22 878.00 586.00 878.00
C 601.10 878.00 615.86 875.42 631.00 875.00
C 632.37 874.84 635.05 874.19 637.00 874.00
C 682.75 869.02 727.79 860.31 770.00 843.00
C 768.45 839.26 769.24 835.08 769.00 831.00
C 768.83 830.02 768.06 828.57 768.00 827.00
C 767.95 825.67 768.05 824.33 768.00 823.00
C 767.87 822.17 767.16 820.36 767.00 819.00
C 765.85 809.05 764.43 798.77 763.00 789.00 C 761.57 779.23 760.14 769.14 758.33 759.67 C 756.52 750.20 755.06 741.21 752.98 732.02 C 750.89 722.84 748.55 713.65 746.33 704.67 C 744.11 695.70 742.02 687.34 739.33 678.67 C 736.63 670.01 734.69 660.72 731.78 652.22 C 728.86 643.73 725.68 635.45 722.98 627.02 C 720.27 618.60 717.55 610.78 714.32 602.68 C 711.09 594.58 708.21 586.02 704.92 578.08 C 701.64 570.13 698.37 562.85 694.93 555.07 C 691.48 547.30 688.47 538.82 684.77 531.23 C 681.07 523.64 677.55 515.49 673.92 508.08 C 670.30 500.66 667.15 492.94 662.92 486.08 C 658.69 479.21 656.58 469.33 651.77 463.23 C 646.96 457.13 646.45 445.56 641.00 441.00
C 555.67 441.00 470.33 441.00 385.00 441.00
C 378.93 445.70 378.36 457.91 373.31 464.31 C 368.25 470.70 366.31 480.61 361.77 487.77 C 357.23 494.93 354.47 503.70 350.31 511.31 C 346.14 518.91 342.98 527.35 339.31 535.31 C 335.63 543.26 331.88 551.19 328.32 559.32 C 324.77 567.45 321.85 576.05 318.31 584.31 C 314.77 592.57 311.66 601.16 308.78 609.78 C 305.89 618.40 301.98 626.49 299.33 635.33 C 296.67 644.17 293.75 653.01 290.98 661.98 C 288.20 670.94 285.60 680.08 283.32 689.32 C 281.04 698.57 278.29 707.58 275.99 716.99 C 273.70 726.40 271.99 736.33 269.98 745.98 C 267.96 755.63 265.89 765.44 264.33 775.33 C 262.77 785.22 260.97 795.93 260.00 806.00 Z"/>
</g>
<g fill="#A3A3A2" fill-opacity="0.82" stroke="None">
<path d="
M 799.00 804.00 
C 798.94 802.41 798.19 801.01 798.00 800.00
C 798.10 801.47 798.86 803.10 799.00 804.00 Z"/>
</g>
<g fill="#CCCBCC" fill-opacity="0.58" stroke="None">
<path d="
M 259.00 810.00 
C 259.20 809.01 259.85 807.56 260.00 806.00
C 259.76 807.07 259.13 808.36 259.00 810.00 Z"/>
</g>
<g fill="#959797" fill-opacity="0.85" stroke="None">
<path d="
M 800.00 812.00 
C 799.84 810.64 799.13 808.83 799.00 808.00
C 799.06 809.69 799.72 810.86 800.00 812.00 Z"/>
</g>
<g fill="#C0C1C1" fill-opacity="0.70" stroke="None">
<path d="
M 768.00 823.00 
C 767.94 821.31 767.28 820.14 767.00 819.00
C 767.16 820.36 767.87 822.17 768.00 823.00 Z"/>
</g>
<g fill="#999998" fill-opacity="0.81" stroke="None">
<path d="
M 802.00 829.00 
C 801.97 827.15 801.17 825.23 801.00 824.00
C 801.07 825.80 801.84 827.81 802.00 829.00 Z"/>
</g>
<g fill="#A1A2A2" fill-opacity="0.84" stroke="None">
<path d="
M 769.00 831.00 
C 768.91 829.51 768.14 827.91 768.00 827.00
C 768.06 828.57 768.83 830.02 769.00 831.00 Z"/>
</g>
<g fill="#9B9D9B" fill-opacity="0.84" stroke="None">
<path d="
M 803.00 838.00 
C 802.95 836.17 802.16 834.21 802.00 833.00
C 802.03 834.83 802.85 836.80 803.00 838.00 Z"/>
</g>
<g fill="#969596" fill-opacity="0.87" stroke="None">
<path d="
M 803.00 854.00 
C 803.93 850.25 803.39 846.69 803.00 843.00
C 803.00 846.57 803.44 850.46 803.00 854.00 Z"/>
</g>
<g fill="#A2A4A4" fill-opacity="0.80" stroke="None">
<path d="
M 369.00 872.00 
C 368.21 871.88 366.34 871.18 365.00 871.00
C 366.22 871.33 367.19 871.93 369.00 872.00 Z"/>
</g>
<g fill="#AFAEB2" fill-opacity="0.73" stroke="None">
<path d="
M 377.00 873.00 
C 376.00 872.83 374.63 872.06 373.00 872.00
C 373.92 872.14 375.46 872.91 377.00 873.00 Z"/>
</g>
<g fill="#8A8A8C" fill-opacity="0.88" stroke="None">
<path d="
M 631.00 875.00 
C 633.25 874.94 635.34 874.32 637.00 874.00
C 635.05 874.19 632.37 874.84 631.00 875.00 Z"/>
</g>
<g fill="#A9AAA8" fill-opacity="0.77" stroke="None">
<path d="
M 406.00 876.00 
C 404.68 875.85 401.96 875.19 400.00 875.00
C 401.65 875.32 403.71 875.94 406.00 876.00 Z"/>
</g>
<g fill="#949596" fill-opacity="0.93" stroke="None">
<path d="
M 578.00 879.00 
C 580.79 879.04 583.89 878.20 586.00 878.00
C 583.22 878.00 580.11 878.79 578.00 879.00 Z"/>
</g>
<g fill="#9E9E9E" fill-opacity="0.88" stroke="None">
<path d="
M 474.00 880.00 
C 469.68 879.58 464.06 879.00 459.00 879.00
C 463.32 879.42 468.94 880.00 474.00 880.00 Z"/>
</g>
<g fill="#929292" fill-opacity="0.85" stroke="None">
<path d="
M 553.00 880.00 
C 557.74 880.00 562.94 879.39 567.00 879.00
C 562.26 879.00 557.06 879.61 553.00 880.00 Z"/>
</g>
<g fill="#727373" fill-opacity="1.00" stroke="None">
<path d="
M 533.00 880.00 
C 519.67 880.00 506.33 880.00 493.00 880.00
C 505.50 881.21 520.43 881.22 533.00 880.00 Z"/>
</g>
<g fill="#B8B9BA" fill-opacity="0.70" stroke="None">
<path d="
M 636.00 907.00 
C 637.75 906.88 639.84 906.16 641.00 906.00
C 639.12 906.08 637.30 906.77 636.00 907.00 Z"/>
</g>
<g fill="#ACAEAF" fill-opacity="0.75" stroke="None">
<path d="
M 613.00 909.00 
C 615.02 908.87 617.58 908.16 619.00 908.00
C 616.81 908.06 614.58 908.75 613.00 909.00 Z"/>
</g>
<g fill="#9A9A9A" fill-opacity="0.87" stroke="None">
<path d="
M 582.00 911.00 
C 585.42 911.00 589.25 910.27 592.00 910.00
C 588.58 910.00 584.75 910.73 582.00 911.00 Z"/>
</g>
<g fill="#EEEFEE" fill-opacity="0.20" stroke="None">
<path d="
M 532.00 912.00 
C 520.44 912.00 508.52 911.15 497.00 912.00
C 507.90 912.30 520.97 913.07 532.00 912.00 Z"/>
</g>
</svg>