<svg xmlns="http://www.w3.org/2000/svg" xmlns:v="https://svgstorm.com"
viewBox = "0 0 1024 1024"
width="1024"
height="1024">
<g fill="None" fill-opacity="0.0" stroke="#000000" stroke-opacity="0.00" stroke-width="0.3"><path d="
M 0.00 1024.00 
L 1024.00 1024.00
L 1024.00 0.00
L 0.00 0.00
L 0.00 1024.00
M 536.00 128.00 
C 538.66 128.00 541.34 127.95 544.00 128.00
C 546.52 128.05 549.17 128.74 551.00 129.00
C 589.29 131.29 627.88 140.73 660.25 160.75 C 692.62 180.78 710.55 219.68 700.00 257.00
C 748.32 274.74 793.31 302.47 806.31 355.69 C 819.30 408.92 837.96 462.18 850.92 516.08 C 863.89 569.97 880.22 625.69 893.00 680.00
C 893.41 682.84 893.51 685.18 893.00 688.00
C 892.01 702.56 883.95 714.77 889.00 729.00 C 894.04 743.24 899.55 757.31 896.07 771.07 C 892.59 784.83 871.23 783.08 859.93 787.93 C 848.62 792.77 829.46 793.37 817.33 798.33 C 805.20 803.28 786.80 805.34 780.70 791.30 C 774.59 777.26 775.52 761.63 770.01 748.99 C 764.50 736.35 746.32 737.64 742.00 723.00
C 739.03 736.25 742.52 755.40 741.00 769.00 C 739.48 782.60 734.92 791.75 725.75 801.75 C 716.58 811.75 703.95 813.18 706.00 829.00 C 708.05 844.82 705.17 861.27 706.00 877.00 C 706.83 892.73 693.31 898.05 679.00 897.00 C 664.69 895.95 646.12 897.48 631.00 897.00 C 615.88 896.52 599.50 897.20 584.00 897.00 C 568.50 896.80 551.62 897.07 536.00 897.00 C 520.38 896.93 504.61 896.97 489.00 897.00 C 473.39 897.03 456.46 896.87 441.00 897.00 C 425.54 897.13 409.03 896.66 394.00 897.00 C 378.97 897.34 360.10 896.25 346.00 897.00 C 331.90 897.75 317.27 894.08 318.00 878.00 C 318.73 861.92 315.55 846.41 318.00 830.00 C 320.45 813.59 307.70 812.47 298.25 802.75 C 288.80 793.04 285.38 783.10 283.22 769.78 C 281.06 756.46 285.22 736.04 282.00 723.00
C 281.32 724.88 279.98 726.32 279.00 728.00
C 276.30 731.63 272.63 735.40 269.00 738.00
C 264.29 741.36 259.55 744.42 254.00 746.00
C 254.03 758.74 246.22 769.77 245.22 782.22 C 244.22 794.67 233.41 805.64 220.93 802.07 C 208.44 798.51 196.60 796.28 184.78 793.22 C 172.95 790.16 159.54 785.85 148.33 783.67 C 137.12 781.49 123.76 774.81 126.93 761.92 C 130.10 749.04 131.42 737.65 135.98 724.98 C 140.53 712.30 133.45 702.68 131.22 689.78 C 128.99 676.88 135.40 663.97 137.93 651.93 C 140.46 639.88 145.09 627.99 147.93 615.93 C 150.76 603.86 153.94 591.99 156.93 579.93 C 159.92 567.87 163.72 555.99 166.93 543.93 C 170.14 531.87 172.76 518.98 175.98 506.98 C 179.19 494.97 182.65 483.77 185.78 471.78 C 188.91 459.79 191.71 446.85 194.99 434.99 C 198.27 423.14 201.64 411.67 204.98 399.98 C 208.31 388.28 211.73 375.72 215.31 364.31 C 218.88 352.89 222.15 340.44 226.93 329.93 C 231.71 319.42 237.44 311.56 245.25 303.25 C 253.06 294.94 261.86 289.25 271.08 283.08 C 280.30 276.91 290.16 272.32 300.23 267.23 C 310.30 262.14 327.06 259.01 322.00 245.00 C 316.94 230.99 324.02 217.91 326.78 205.78 C 329.53 193.65 335.75 186.76 343.30 177.30 C 350.86 167.84 360.11 164.09 369.68 157.68 C 379.25 151.27 389.46 147.27 401.02 144.02 C 412.59 140.78 424.54 136.09 437.07 134.07 C 449.61 132.06 464.85 129.59 478.00 129.00
C 479.47 128.83 481.90 128.06 484.00 128.00
C 487.33 127.91 490.67 128.00 494.00 128.00
C 503.29 127.10 514.00 127.00 524.00 127.00
C 528.08 127.00 532.66 127.68 536.00 128.00 Z"/>
</g>
<g fill="None" fill-opacity="0.0" stroke="#727273" stroke-opacity="0.97" stroke-width="0.3"><path d="
M 494.00 128.00 
C 504.00 128.00 514.00 128.00 524.00 128.00
C 523.96 128.00 524.00 127.00 524.00 127.00
C 514.00 127.00 503.29 127.10 494.00 128.00 Z"/>
</g>
<g fill="None" fill-opacity="0.0" stroke="#C8C8C8" stroke-opacity="0.67" stroke-width="0.3"><path d="
M 524.00 128.00 
C 528.00 128.00 532.00 128.00 536.00 128.00
C 532.66 127.68 528.08 127.00 524.00 127.00
C 524.00 127.00 523.96 128.00 524.00 128.00 Z"/>
</g>
<g fill="None" fill-opacity="0.0" stroke="#979998" stroke-opacity="0.87" stroke-width="0.3"><path d="
M 478.00 129.00 
C 480.12 128.94 482.57 128.16 484.00 128.00
C 481.90 128.06 479.47 128.83 478.00 129.00 Z"/>
</g>
<g fill="None" fill-opacity="0.0" stroke="#000000" stroke-opacity="1.00" stroke-width="0.3"><path d="
M 478.00 129.00 
C 464.85 129.59 449.61 132.06 437.07 134.07 C 424.54 136.09 412.59 140.78 401.02 144.02 C 389.46 147.27 379.25 151.27 369.68 157.68 C 360.11 164.09 350.86 167.84 343.30 177.30 C 335.75 186.76 329.53 193.65 326.78 205.78 C 324.02 217.91 316.94 230.99 322.00 245.00 C 327.06 259.01 310.30 262.14 300.23 267.23 C 290.16 272.32 280.30 276.91 271.08 283.08 C 261.86 289.25 253.06 294.94 245.25 303.25 C 237.44 311.56 231.71 319.42 226.93 329.93 C 222.15 340.44 218.88 352.89 215.31 364.31 C 211.73 375.72 208.31 388.28 204.98 399.98 C 201.64 411.67 198.27 423.14 194.99 434.99 C 191.71 446.85 188.91 459.79 185.78 471.78 C 182.65 483.77 179.19 494.97 175.98 506.98 C 172.76 518.98 170.14 531.87 166.93 543.93 C 163.72 555.99 159.92 567.87 156.93 579.93 C 153.94 591.99 150.76 603.86 147.93 615.93 C 145.09 627.99 140.46 639.88 137.93 651.93 C 135.40 663.97 128.99 676.88 131.22 689.78 C 133.45 702.68 140.53 712.30 135.98 724.98 C 131.42 737.65 130.10 749.04 126.93 761.92 C 123.76 774.81 137.12 781.49 148.33 783.67 C 159.54 785.85 172.95 790.16 184.78 793.22 C 196.60 796.28 208.44 798.51 220.93 802.07 C 233.41 805.64 244.22 794.67 245.22 782.22 C 246.22 769.77 254.03 758.74 254.00 746.00
C 259.55 744.42 264.29 741.36 269.00 738.00
C 272.15 735.36 276.33 731.06 279.00 728.00
C 279.98 726.32 281.32 724.88 282.00 723.00
C 285.22 736.04 281.06 756.46 283.22 769.78 C 285.38 783.10 288.80 793.04 298.25 802.75 C 307.70 812.47 320.45 813.59 318.00 830.00 C 315.55 846.41 318.73 861.92 318.00 878.00 C 317.27 894.08 331.90 897.75 346.00 897.00 C 360.10 896.25 378.97 897.34 394.00 897.00 C 409.03 896.66 425.54 897.13 441.00 897.00 C 456.46 896.87 473.39 897.03 489.00 897.00 C 504.61 896.97 520.38 896.93 536.00 897.00 C 551.62 897.07 568.50 896.80 584.00 897.00 C 599.50 897.20 615.88 896.52 631.00 897.00 C 646.12 897.48 664.69 895.95 679.00 897.00 C 693.31 898.05 706.83 892.73 706.00 877.00 C 705.17 861.27 708.05 844.82 706.00 829.00 C 703.95 813.18 716.58 811.75 725.75 801.75 C 734.92 791.75 739.48 782.60 741.00 769.00 C 742.52 755.40 739.03 736.25 742.00 723.00
C 746.32 737.64 764.50 736.35 770.01 748.99 C 775.52 761.63 774.59 777.26 780.70 791.30 C 786.80 805.34 805.20 803.28 817.33 798.33 C 829.46 793.37 848.62 792.77 859.93 787.93 C 871.23 783.08 892.59 784.83 896.07 771.07 C 899.55 757.31 894.04 743.24 889.00 729.00 C 883.95 714.77 892.01 702.56 893.00 688.00
C 893.18 685.39 893.10 682.62 893.00 680.00
C 880.22 625.69 863.89 569.97 850.92 516.08 C 837.96 462.18 819.30 408.92 806.31 355.69 C 793.31 302.47 748.32 274.74 700.00 257.00
C 710.55 219.68 692.62 180.78 660.25 160.75 C 627.88 140.73 589.29 131.29 551.00 129.00
C 548.68 128.86 545.64 128.16 544.00 128.00
C 541.34 127.95 538.66 128.00 536.00 128.00
C 532.00 128.00 528.00 128.00 524.00 128.00
C 514.00 128.00 504.00 128.00 494.00 128.00
C 490.67 128.00 487.33 127.91 484.00 128.00
C 482.57 128.16 480.12 128.94 478.00 129.00
M 645.00 194.00 
C 646.62 195.21 647.67 196.67 649.00 198.00
C 673.09 218.59 672.94 258.68 648.25 279.25 C 623.56 299.82 588.46 302.81 559.00 307.00
C 573.92 298.70 590.32 289.43 604.23 279.23 C 618.14 269.03 637.54 262.64 644.00 246.00
C 644.22 243.84 644.25 241.15 644.00 239.00
C 639.29 220.00 620.41 225.41 609.25 234.25 C 598.10 243.10 584.74 248.96 573.30 257.30 C 561.86 265.65 549.77 272.02 538.25 280.25 C 526.74 288.49 513.37 299.41 501.30 289.70 C 489.23 279.98 477.47 275.00 465.26 266.74 C 453.05 258.48 442.69 250.67 429.92 244.08 C 417.15 237.49 406.42 221.16 389.98 226.98 C 373.54 232.79 379.73 255.78 393.25 261.75 C 406.77 267.73 416.22 278.22 429.08 284.92 C 441.94 291.62 452.42 302.26 466.00 307.00
C 435.36 301.78 395.41 300.37 371.25 275.75 C 347.09 251.13 354.43 205.40 385.75 189.75 C 417.07 174.10 451.93 163.69 488.00 163.00
C 489.75 162.83 492.60 162.05 495.00 162.00
C 546.43 160.97 603.50 163.15 645.00 194.00
M 789.00 713.00 
C 786.61 713.38 785.44 713.65 783.00 713.00
C 765.68 710.68 767.74 684.70 762.67 671.33 C 757.60 657.95 755.02 636.82 750.00 622.00 C 744.99 607.17 739.86 587.13 738.00 571.00
C 737.74 569.96 737.21 568.51 737.00 567.00
C 734.94 551.83 731.06 535.03 729.01 519.99 C 726.95 504.95 723.03 487.14 721.22 472.78 C 719.41 458.42 718.12 437.31 698.98 440.98 C 679.83 444.64 685.95 464.57 687.98 479.02 C 690.00 493.48 693.81 512.90 695.00 528.00
C 695.20 528.98 695.86 530.49 696.00 532.00
C 697.67 549.38 701.64 564.50 703.98 582.02 C 706.31 599.55 705.84 619.62 706.00 638.00 C 706.16 656.38 705.36 677.86 706.00 696.00 C 706.64 714.14 704.44 736.90 706.00 754.00 C 707.56 771.10 696.95 789.72 678.00 785.00
C 672.80 783.71 677.26 765.56 676.00 758.00 C 674.74 750.44 677.08 735.81 676.00 727.00 C 674.92 718.19 677.62 705.05 676.00 696.00
C 672.01 683.39 657.62 681.25 650.75 669.25 C 643.87 657.26 636.44 649.26 632.07 634.93 C 627.71 620.59 622.57 610.49 622.01 592.99 C 621.45 575.50 604.99 572.11 588.00 574.00 C 571.01 575.89 552.36 573.60 535.00 574.00 C 517.64 574.40 500.66 574.91 483.00 574.00 C 465.34 573.09 448.04 576.74 430.00 574.00 C 411.96 571.26 401.08 581.40 401.02 598.02 C 400.97 614.65 395.38 625.63 390.08 639.08 C 384.77 652.53 379.15 661.64 370.75 672.75 C 362.34 683.85 348.20 686.89 347.00 702.00
C 347.16 711.10 348.86 722.17 348.00 732.00 C 347.14 741.83 349.02 753.36 348.00 763.00 C 346.98 772.64 352.60 786.43 341.00 785.00
C 317.26 782.08 317.03 762.35 318.00 741.00 C 318.97 719.65 317.40 694.98 318.00 673.00 C 318.60 651.02 317.38 627.14 318.00 605.00
C 318.06 602.89 318.85 600.41 319.00 599.00
C 319.04 597.00 318.89 594.99 319.00 593.00
C 319.09 591.38 319.81 590.00 320.00 589.00
C 320.91 575.13 323.60 561.41 325.93 547.93 C 328.26 534.44 329.27 520.28 332.00 507.00 C 334.73 493.71 335.36 479.69 338.78 466.78 C 342.20 453.87 336.33 438.27 321.00 440.00 C 305.67 441.73 304.77 456.47 303.22 469.22 C 301.67 481.97 298.76 496.88 297.02 510.02 C 295.29 523.16 292.40 537.07 290.22 550.22 C 288.04 563.37 285.63 577.01 283.02 590.02 C 280.42 603.04 277.41 614.94 273.69 627.69 C 269.98 640.45 267.10 651.12 263.23 664.23 C 259.36 677.34 258.67 688.06 253.74 701.74 C 248.81 715.43 235.03 714.05 222.99 710.01 C 210.95 705.97 199.35 701.89 186.77 699.23 C 174.20 696.57 162.87 688.48 167.98 674.98 C 173.08 661.47 173.44 650.60 177.78 637.78 C 182.12 624.96 183.75 612.95 187.33 600.33 C 190.91 587.71 193.82 575.78 197.33 563.33 C 200.84 550.87 203.89 538.52 206.99 525.99 C 210.10 513.47 213.86 501.26 216.78 488.78 C 219.69 476.30 223.58 464.04 226.78 451.78 C 229.98 439.51 233.20 426.70 236.78 414.78 C 240.36 402.85 244.20 390.10 247.33 378.33 C 250.45 366.55 254.70 354.32 259.77 343.77 C 264.84 333.22 271.66 324.48 281.75 318.75 C 291.83 313.01 301.37 306.00 312.08 302.08 C 322.78 298.15 334.21 285.53 342.00 296.00
C 345.06 299.51 349.54 303.99 353.00 307.00
C 359.27 311.66 364.09 315.33 371.08 318.92 C 378.06 322.52 385.83 324.78 393.23 327.77 C 400.63 330.76 410.66 330.31 418.02 333.98 C 425.39 337.65 437.11 335.08 444.00 339.00
C 449.84 342.32 444.61 357.31 446.00 365.00 C 447.39 372.69 445.13 385.39 446.00 394.00 C 446.87 402.61 445.09 413.00 446.00 422.00 C 446.91 431.00 444.47 441.98 446.00 451.00
C 451.44 468.91 475.15 467.57 479.00 449.00
C 479.62 442.13 478.62 434.86 479.00 428.00 C 479.38 421.14 478.62 413.77 479.00 407.00 C 479.38 400.23 478.38 391.43 479.00 385.00 C 479.62 378.57 477.67 369.51 479.00 364.00 C 480.33 358.49 475.75 345.98 480.00 343.00
C 485.32 339.28 496.29 345.38 503.00 344.00 C 509.71 342.62 520.88 344.00 528.00 344.00
C 530.76 343.73 534.55 342.93 538.00 343.00
C 540.33 343.05 542.67 342.96 545.00 343.00
C 545.74 360.21 544.01 380.06 545.00 397.00 C 545.99 413.94 542.71 435.47 545.93 451.07 C 549.14 466.68 575.65 465.62 578.31 450.30 C 580.96 434.99 577.76 412.23 579.00 396.00
C 578.29 388.63 576.62 374.64 578.00 367.00 C 579.38 359.36 574.17 342.72 580.00 339.00
C 586.52 334.84 598.81 337.65 606.07 334.07 C 613.34 330.50 623.56 330.99 631.00 328.00 C 638.45 325.01 645.75 322.28 652.74 318.74 C 659.74 315.21 665.05 310.98 671.23 306.23 C 677.41 301.48 682.43 295.86 686.00 289.00
C 702.60 296.84 717.73 305.17 734.23 313.77 C 750.73 322.37 762.69 335.47 768.32 353.68 C 773.96 371.89 780.46 391.47 785.78 410.22 C 791.10 428.98 796.58 449.22 801.78 468.22 C 806.98 487.22 812.00 508.08 816.99 527.01 C 821.98 545.93 828.06 566.54 832.98 585.02 C 837.89 603.51 843.91 626.47 848.00 644.00 C 852.08 661.54 867.34 688.45 846.99 696.99 C 826.64 705.53 809.61 706.87 789.00 713.00
M 642.00 712.00 
C 645.85 722.17 642.50 736.55 643.00 748.00 C 643.50 759.45 644.04 773.46 643.00 785.00
C 638.32 789.87 625.16 784.47 618.00 786.00 C 610.84 787.53 600.03 785.32 592.00 786.00 C 583.97 786.68 574.47 785.71 566.00 786.00 C 557.53 786.29 547.62 785.89 539.00 786.00 C 530.38 786.11 521.63 786.00 513.00 786.00 C 504.37 786.00 495.63 786.12 487.00 786.00 C 478.37 785.88 468.49 786.30 460.00 786.00 C 451.51 785.70 442.08 786.72 434.00 786.00 C 425.92 785.28 415.28 787.61 408.00 786.00 C 400.72 784.39 386.90 789.90 382.00 785.00
C 377.50 780.50 382.11 767.85 381.00 761.00 C 379.89 754.15 381.10 742.34 381.00 735.00 C 380.90 727.66 379.24 716.70 383.00 711.00
C 383.89 709.65 385.02 708.20 386.00 707.00
C 388.38 704.10 391.65 701.70 394.00 699.00
C 401.19 689.34 407.04 681.64 413.25 671.25 C 419.47 660.87 423.86 649.87 427.93 637.93 C 432.00 625.99 429.12 605.93 446.00 608.00 C 462.88 610.07 477.59 607.03 494.00 608.00 C 510.41 608.97 525.79 607.50 542.00 608.00 C 558.21 608.50 573.84 607.62 590.00 608.00
C 593.17 647.96 615.62 682.92 642.00 712.00
M 220.00 745.00 
C 218.82 752.11 216.58 758.96 215.00 766.00
C 197.60 761.50 180.50 756.18 163.00 752.00
C 164.55 745.22 167.94 738.95 169.00 732.00
C 186.18 735.55 202.89 741.00 220.00 745.00
M 856.00 732.00 
C 855.68 739.19 860.37 745.02 861.00 752.00
C 843.86 757.14 826.26 761.07 809.00 766.00
C 806.93 759.45 805.28 752.79 804.00 746.00
C 821.26 741.02 838.40 735.85 856.00 732.00
M 671.00 819.00 
C 671.00 834.00 671.00 849.00 671.00 864.00
C 565.00 864.00 459.00 864.00 353.00 864.00
C 353.00 849.00 353.00 834.00 353.00 819.00
C 459.00 819.00 565.00 819.00 671.00 819.00 Z"/>
</g>
<g fill="None" fill-opacity="0.0" stroke="#A6A7A7" stroke-opacity="0.77" stroke-width="0.3"><path d="
M 551.00 129.00 
C 549.17 128.74 546.52 128.05 544.00 128.00
C 545.64 128.16 548.68 128.86 551.00 129.00 Z"/>
</g>
<g fill="None" fill-opacity="0.0" stroke="#B7B7B7" stroke-opacity="0.80" stroke-width="0.3"><path d="
M 488.00 163.00 
C 490.41 162.95 493.30 162.16 495.00 162.00
C 492.60 162.05 489.75 162.83 488.00 163.00 Z"/>
</g>
<g fill="None" fill-opacity="0.0" stroke="#000000" stroke-opacity="0.01" stroke-width="0.3"><path d="
M 488.00 163.00 
C 451.93 163.69 417.07 174.10 385.75 189.75 C 354.43 205.40 347.09 251.13 371.25 275.75 C 395.41 300.37 435.36 301.78 466.00 307.00
C 452.42 302.26 441.94 291.62 429.08 284.92 C 416.22 278.22 406.77 267.73 393.25 261.75 C 379.73 255.78 373.54 232.79 389.98 226.98 C 406.42 221.16 417.15 237.49 429.92 244.08 C 442.69 250.67 453.05 258.48 465.26 266.74 C 477.47 275.00 489.23 279.98 501.30 289.70 C 513.37 299.41 526.74 288.49 538.25 280.25 C 549.77 272.02 561.86 265.65 573.30 257.30 C 584.74 248.96 598.10 243.10 609.25 234.25 C 620.41 225.41 639.29 220.00 644.00 239.00
C 644.69 241.78 644.63 243.29 644.00 246.00
C 637.54 262.64 618.14 269.03 604.23 279.23 C 590.32 289.43 573.92 298.70 559.00 307.00
C 588.46 302.81 623.56 299.82 648.25 279.25 C 672.94 258.68 673.09 218.59 649.00 198.00
C 647.61 196.81 646.27 195.11 645.00 194.00
C 603.50 163.15 546.43 160.97 495.00 162.00
C 493.30 162.16 490.41 162.95 488.00 163.00 Z"/>
</g>
<g fill="None" fill-opacity="0.0" stroke="#CBCAC9" stroke-opacity="0.57" stroke-width="0.3"><path d="
M 649.00 198.00 
C 647.67 196.67 646.62 195.21 645.00 194.00
C 646.27 195.11 647.61 196.81 649.00 198.00 Z"/>
</g>
<g fill="None" fill-opacity="0.0" stroke="#8F8F90" stroke-opacity="0.91" stroke-width="0.3"><path d="
M 644.00 246.00 
C 644.63 243.29 644.69 241.78 644.00 239.00
C 644.25 241.15 644.22 243.84 644.00 246.00 Z"/>
</g>
<g fill="None" fill-opacity="0.0" stroke="#000000" stroke-opacity="0.00" stroke-width="0.3"><path d="
M 580.00 339.00 
C 576.12 342.55 580.04 351.75 579.00 357.00 C 577.96 362.25 579.36 370.10 579.00 376.00 C 578.64 381.90 579.00 389.90 579.00 396.00
C 577.76 412.23 580.96 434.99 578.31 450.30 C 575.65 465.62 549.14 466.68 545.93 451.07 C 542.71 435.47 545.99 413.94 545.00 397.00 C 544.01 380.06 545.74 360.21 545.00 343.00
C 542.67 342.96 540.33 343.05 538.00 343.00
C 535.31 343.21 531.38 344.00 528.00 344.00
C 520.88 344.00 509.71 342.62 503.00 344.00 C 496.29 345.38 485.32 339.28 480.00 343.00
C 475.90 377.46 485.92 415.60 479.00 449.00
C 475.15 467.57 451.44 468.91 446.00 451.00
C 444.06 444.61 445.32 437.20 445.00 430.00 C 444.68 422.80 445.37 414.20 445.00 407.00 C 444.63 399.80 445.68 390.88 445.00 384.00 C 444.32 377.12 446.43 367.05 445.00 361.00 C 443.57 354.95 448.61 342.79 444.00 339.00
C 437.11 335.08 425.39 337.65 418.02 333.98 C 410.66 330.31 400.63 330.76 393.23 327.77 C 385.83 324.78 378.06 322.52 371.08 318.92 C 364.09 315.33 359.27 311.66 353.00 307.00
C 349.00 304.03 344.93 299.94 342.00 296.00
C 334.21 285.53 322.78 298.15 312.08 302.08 C 301.37 306.00 291.83 313.01 281.75 318.75 C 271.66 324.48 264.84 333.22 259.77 343.77 C 254.70 354.32 250.45 366.55 247.33 378.33 C 244.20 390.10 240.36 402.85 236.78 414.78 C 233.20 426.70 229.98 439.51 226.78 451.78 C 223.58 464.04 219.69 476.30 216.78 488.78 C 213.86 501.26 210.10 513.47 206.99 525.99 C 203.89 538.52 200.84 550.87 197.33 563.33 C 193.82 575.78 190.91 587.71 187.33 600.33 C 183.75 612.95 182.12 624.96 177.78 637.78 C 173.44 650.60 173.08 661.47 167.98 674.98 C 162.87 688.48 174.20 696.57 186.77 699.23 C 199.35 701.89 210.95 705.97 222.99 710.01 C 235.03 714.05 248.81 715.43 253.74 701.74 C 258.67 688.06 259.36 677.34 263.23 664.23 C 267.10 651.12 269.98 640.45 273.69 627.69 C 277.41 614.94 280.42 603.04 283.02 590.02 C 285.63 577.01 288.04 563.37 290.22 550.22 C 292.40 537.07 295.29 523.16 297.02 510.02 C 298.76 496.88 301.67 481.97 303.22 469.22 C 304.77 456.47 305.67 441.73 321.00 440.00 C 336.33 438.27 342.20 453.87 338.78 466.78 C 335.36 479.69 334.73 493.71 332.00 507.00 C 329.27 520.28 328.26 534.44 325.93 547.93 C 323.60 561.41 320.91 575.13 320.00 589.00
C 319.90 590.54 319.15 592.07 319.00 593.00
C 318.89 594.99 319.04 597.00 319.00 599.00
C 318.95 601.13 318.16 603.56 318.00 605.00
C 317.38 627.14 318.60 651.02 318.00 673.00 C 317.40 694.98 318.97 719.65 318.00 741.00 C 317.03 762.35 317.26 782.08 341.00 785.00
C 343.00 784.96 345.00 785.03 347.00 785.00
C 347.00 757.33 347.00 729.67 347.00 702.00
C 348.20 686.89 362.34 683.85 370.75 672.75 C 379.15 661.64 384.77 652.53 390.08 639.08 C 395.38 625.63 400.97 614.65 401.02 598.02 C 401.08 581.40 411.96 571.26 430.00 574.00 C 448.04 576.74 465.34 573.09 483.00 574.00 C 500.66 574.91 517.64 574.40 535.00 574.00 C 552.36 573.60 571.01 575.89 588.00 574.00 C 604.99 572.11 621.45 575.50 622.01 592.99 C 622.57 610.49 627.71 620.59 632.07 634.93 C 636.44 649.26 643.87 657.26 650.75 669.25 C 657.62 681.25 672.01 683.39 676.00 696.00
C 677.97 702.23 676.54 710.05 677.00 717.00 C 677.46 723.95 676.31 733.28 677.00 740.00 C 677.69 746.72 675.63 757.14 677.00 763.00 C 678.37 768.86 673.56 781.89 678.00 785.00
C 696.95 789.72 707.56 771.10 706.00 754.00 C 704.44 736.90 706.64 714.14 706.00 696.00 C 705.36 677.86 706.16 656.38 706.00 638.00 C 705.84 619.62 706.31 599.55 703.98 582.02 C 701.64 564.50 697.67 549.38 696.00 532.00
C 695.77 530.95 695.12 529.58 695.00 528.00
C 693.81 512.90 690.00 493.48 687.98 479.02 C 685.95 464.57 679.83 444.64 698.98 440.98 C 718.12 437.31 719.41 458.42 721.22 472.78 C 723.03 487.14 726.95 504.95 729.01 519.99 C 731.06 535.03 734.94 551.83 737.00 567.00
C 737.30 568.12 737.82 569.40 738.00 571.00
C 739.86 587.13 744.99 607.17 750.00 622.00 C 755.02 636.82 757.60 657.95 762.67 671.33 C 767.74 684.70 765.68 710.68 783.00 713.00
C 784.87 713.25 787.12 713.11 789.00 713.00
C 809.61 706.87 826.64 705.53 846.99 696.99 C 867.34 688.45 852.08 661.54 848.00 644.00 C 843.91 626.47 837.89 603.51 832.98 585.02 C 828.06 566.54 821.98 545.93 816.99 527.01 C 812.00 508.08 806.98 487.22 801.78 468.22 C 796.58 449.22 791.10 428.98 785.78 410.22 C 780.46 391.47 773.96 371.89 768.32 353.68 C 762.69 335.47 750.73 322.37 734.23 313.77 C 717.73 305.17 702.60 296.84 686.00 289.00
C 682.43 295.86 677.41 301.48 671.23 306.23 C 665.05 310.98 659.74 315.21 652.74 318.74 C 645.75 322.28 638.45 325.01 631.00 328.00 C 623.56 330.99 613.34 330.50 606.07 334.07 C 598.81 337.65 586.52 334.84 580.00 339.00 Z"/>
</g>
<g fill="None" fill-opacity="0.0" stroke="#CAC8C9" stroke-opacity="0.75" stroke-width="0.3"><path d="
M 353.00 307.00 
C 349.54 303.99 345.06 299.51 342.00 296.00
C 344.93 299.94 349.00 304.03 353.00 307.00 Z"/>
</g>
<g fill="None" fill-opacity="0.0" stroke="#6D6D6D" stroke-opacity="0.98" stroke-width="0.3"><path d="
M 446.00 451.00 
C 444.47 441.98 446.91 431.00 446.00 422.00 C 445.09 413.00 446.87 402.61 446.00 394.00 C 445.13 385.39 447.39 372.69 446.00 365.00 C 444.61 357.31 449.84 342.32 444.00 339.00
C 448.61 342.79 443.57 354.95 445.00 361.00 C 446.43 367.05 444.32 377.12 445.00 384.00 C 445.68 390.88 444.63 399.80 445.00 407.00 C 445.37 414.20 444.68 422.80 445.00 430.00 C 445.32 437.20 444.06 444.61 446.00 451.00 Z"/>
</g>
<g fill="None" fill-opacity="0.0" stroke="#373838" stroke-opacity="0.99" stroke-width="0.3"><path d="
M 579.00 396.00 
C 579.00 389.90 578.64 381.90 579.00 376.00 C 579.36 370.10 577.96 362.25 579.00 357.00 C 580.04 351.75 576.12 342.55 580.00 339.00
C 574.17 342.72 579.38 359.36 578.00 367.00 C 576.62 374.64 578.29 388.63 579.00 396.00 Z"/>
</g>
<g fill="None" fill-opacity="0.0" stroke="#C9C9CA" stroke-opacity="0.99" stroke-width="0.3"><path d="
M 479.00 449.00 
C 485.92 415.60 475.90 377.46 480.00 343.00
C 475.75 345.98 480.33 358.49 479.00 364.00 C 477.67 369.51 479.62 378.57 479.00 385.00 C 478.38 391.43 479.38 400.23 479.00 407.00 C 478.62 413.77 479.38 421.14 479.00 428.00 C 478.62 434.86 479.62 442.13 479.00 449.00 Z"/>
</g>
<g fill="None" fill-opacity="0.0" stroke="#9FA0A1" stroke-opacity="0.85" stroke-width="0.3"><path d="
M 528.00 344.00 
C 531.38 344.00 535.31 343.21 538.00 343.00
C 534.55 342.93 530.76 343.73 528.00 344.00 Z"/>
</g>
<g fill="None" fill-opacity="0.0" stroke="#C3C5C5" stroke-opacity="0.64" stroke-width="0.3"><path d="
M 696.00 532.00 
C 695.86 530.49 695.20 528.98 695.00 528.00
C 695.12 529.58 695.77 530.95 696.00 532.00 Z"/>
</g>
<g fill="None" fill-opacity="0.0" stroke="#A7A8A7" stroke-opacity="0.73" stroke-width="0.3"><path d="
M 738.00 571.00 
C 737.82 569.40 737.30 568.12 737.00 567.00
C 737.21 568.51 737.74 569.96 738.00 571.00 Z"/>
</g>
<g fill="None" fill-opacity="0.0" stroke="#A6A8A9" stroke-opacity="0.87" stroke-width="0.3"><path d="
M 319.00 593.00 
C 319.15 592.07 319.90 590.54 320.00 589.00
C 319.81 590.00 319.09 591.38 319.00 593.00 Z"/>
</g>
<g fill="None" fill-opacity="0.0" stroke="#B9B9BB" stroke-opacity="0.67" stroke-width="0.3"><path d="
M 318.00 605.00 
C 318.16 603.56 318.95 601.13 319.00 599.00
C 318.85 600.41 318.06 602.89 318.00 605.00 Z"/>
</g>
<g fill="None" fill-opacity="0.0" stroke="#000000" stroke-opacity="0.00" stroke-width="0.3"><path d="
M 394.00 699.00 
C 391.71 702.09 388.56 704.34 386.00 707.00
C 385.02 708.20 383.89 709.65 383.00 711.00
C 378.15 721.50 383.72 735.35 382.00 747.00 C 380.28 758.65 383.29 773.09 382.00 785.00
C 468.67 785.00 555.33 785.00 642.00 785.00
C 640.92 773.11 643.42 760.85 642.00 749.00 C 640.58 737.15 644.66 723.61 642.00 712.00
C 615.62 682.92 593.17 647.96 590.00 608.00
C 573.84 607.62 558.21 608.50 542.00 608.00 C 525.79 607.50 510.41 608.97 494.00 608.00 C 477.59 607.03 462.88 610.07 446.00 608.00 C 429.12 605.93 432.00 625.99 427.93 637.93 C 423.86 649.87 419.47 660.87 413.25 671.25 C 407.04 681.64 401.19 689.34 394.00 699.00 Z"/>
</g>
<g fill="None" fill-opacity="0.0" stroke="#D4D7D5" stroke-opacity="0.63" stroke-width="0.3"><path d="
M 893.00 688.00 
C 893.51 685.18 893.41 682.84 893.00 680.00
C 893.10 682.62 893.18 685.39 893.00 688.00 Z"/>
</g>
<g fill="None" fill-opacity="0.0" stroke="#525253" stroke-opacity="0.99" stroke-width="0.3"><path d="
M 678.00 785.00 
C 673.56 781.89 678.37 768.86 677.00 763.00 C 675.63 757.14 677.69 746.72 677.00 740.00 C 676.31 733.28 677.46 723.95 677.00 717.00 C 676.54 710.05 677.97 702.23 676.00 696.00
C 677.62 705.05 674.92 718.19 676.00 727.00 C 677.08 735.81 674.74 750.44 676.00 758.00 C 677.26 765.56 672.80 783.71 678.00 785.00 Z"/>
</g>
<g fill="None" fill-opacity="0.0" stroke="#919092" stroke-opacity="0.86" stroke-width="0.3"><path d="
M 386.00 707.00 
C 388.56 704.34 391.71 702.09 394.00 699.00
C 391.65 701.70 388.38 704.10 386.00 707.00 Z"/>
</g>
<g fill="None" fill-opacity="0.0" stroke="#3C3C3C" stroke-opacity="1.00" stroke-width="0.3"><path d="
M 341.00 785.00 
C 352.60 786.43 346.98 772.64 348.00 763.00 C 349.02 753.36 347.14 741.83 348.00 732.00 C 348.86 722.17 347.16 711.10 347.00 702.00
C 347.00 729.67 347.00 757.33 347.00 785.00
C 345.00 785.03 343.00 784.96 341.00 785.00 Z"/>
</g>
<g fill="None" fill-opacity="0.0" stroke="#8E8F8F" stroke-opacity="0.99" stroke-width="0.3"><path d="
M 382.00 785.00 
C 383.29 773.09 380.28 758.65 382.00 747.00 C 383.72 735.35 378.15 721.50 383.00 711.00
C 379.24 716.70 380.90 727.66 381.00 735.00 C 381.10 742.34 379.89 754.15 381.00 761.00 C 382.11 767.85 377.50 780.50 382.00 785.00 Z"/>
</g>
<g fill="None" fill-opacity="0.0" stroke="#E2E2E1" stroke-opacity="0.63" stroke-width="0.3"><path d="
M 642.00 785.00 
C 642.50 785.00 643.00 785.00 643.00 785.00
C 644.04 773.46 643.50 759.45 643.00 748.00 C 642.50 736.55 645.85 722.17 642.00 712.00
C 644.66 723.61 640.58 737.15 642.00 749.00 C 643.42 760.85 640.92 773.11 642.00 785.00 Z"/>
</g>
<g fill="None" fill-opacity="0.0" stroke="#B8B7B8" stroke-opacity="0.82" stroke-width="0.3"><path d="
M 789.00 713.00 
C 787.12 713.11 784.87 713.25 783.00 713.00
C 785.44 713.65 786.61 713.38 789.00 713.00 Z"/>
</g>
<g fill="None" fill-opacity="0.0" stroke="#9E9F9F" stroke-opacity="0.87" stroke-width="0.3"><path d="
M 269.00 738.00 
C 272.63 735.40 276.30 731.63 279.00 728.00
C 276.33 731.06 272.15 735.36 269.00 738.00 Z"/>
</g>
<g fill="None" fill-opacity="0.0" stroke="#000000" stroke-opacity="0.03" stroke-width="0.3"><path d="
M 220.00 745.00 
C 202.89 741.00 186.18 735.55 169.00 732.00
C 167.94 738.95 164.55 745.22 163.00 752.00
C 180.50 756.18 197.60 761.50 215.00 766.00
C 216.58 758.96 218.82 752.11 220.00 745.00 Z"/>
</g>
<g fill="None" fill-opacity="0.0" stroke="#000000" stroke-opacity="0.03" stroke-width="0.3"><path d="
M 856.00 732.00 
C 838.40 735.85 821.26 741.02 804.00 746.00
C 805.28 752.79 806.93 759.45 809.00 766.00
C 826.26 761.07 843.86 757.14 861.00 752.00
C 860.37 745.02 855.68 739.19 856.00 732.00 Z"/>
</g>
<g fill="None" fill-opacity="0.0" stroke="#242526" stroke-opacity="1.00" stroke-width="0.3"><path d="
M 643.00 785.00 
C 643.00 785.00 642.50 785.00 642.00 785.00
C 555.33 785.00 468.67 785.00 382.00 785.00
C 386.90 789.90 400.72 784.39 408.00 786.00 C 415.28 787.61 425.92 785.28 434.00 786.00 C 442.08 786.72 451.51 785.70 460.00 786.00 C 468.49 786.30 478.37 785.88 487.00 786.00 C 495.63 786.12 504.37 786.00 513.00 786.00 C 521.63 786.00 530.38 786.11 539.00 786.00 C 547.62 785.89 557.53 786.29 566.00 786.00 C 574.47 785.71 583.97 786.68 592.00 786.00 C 600.03 785.32 610.84 787.53 618.00 786.00 C 625.16 784.47 638.32 789.87 643.00 785.00 Z"/>
</g>
<g fill="None" fill-opacity="0.0" stroke="#000000" stroke-opacity="0.00" stroke-width="0.3"><path d="
M 671.00 819.00 
C 565.00 819.00 459.00 819.00 353.00 819.00
C 353.00 834.00 353.00 849.00 353.00 864.00
C 459.00 864.00 565.00 864.00 671.00 864.00
C 671.00 849.00 671.00 834.00 671.00 819.00 Z"/>
</g>
<g fill="#000000" fill-opacity="0.00" stroke="None">
<path d="
M 0.00 1024.00 
L 1024.00 1024.00
L 1024.00 0.00
L 0.00 0.00
L 0.00 1024.00
M 536.00 128.00 
C 538.66 128.00 541.34 127.95 544.00 128.00
C 546.52 128.05 549.17 128.74 551.00 129.00
C 589.29 131.29 627.88 140.73 660.25 160.75 C 692.62 180.78 710.55 219.68 700.00 257.00
C 748.32 274.74 793.31 302.47 806.31 355.69 C 819.30 408.92 837.96 462.18 850.92 516.08 C 863.89 569.97 880.22 625.69 893.00 680.00
C 893.41 682.84 893.51 685.18 893.00 688.00
C 892.01 702.56 883.95 714.77 889.00 729.00 C 894.04 743.24 899.55 757.31 896.07 771.07 C 892.59 784.83 871.23 783.08 859.93 787.93 C 848.62 792.77 829.46 793.37 817.33 798.33 C 805.20 803.28 786.80 805.34 780.70 791.30 C 774.59 777.26 775.52 761.63 770.01 748.99 C 764.50 736.35 746.32 737.64 742.00 723.00
C 739.03 736.25 742.52 755.40 741.00 769.00 C 739.48 782.60 734.92 791.75 725.75 801.75 C 716.58 811.75 703.95 813.18 706.00 829.00 C 708.05 844.82 705.17 861.27 706.00 877.00 C 706.83 892.73 693.31 898.05 679.00 897.00 C 664.69 895.95 646.12 897.48 631.00 897.00 C 615.88 896.52 599.50 897.20 584.00 897.00 C 568.50 896.80 551.62 897.07 536.00 897.00 C 520.38 896.93 504.61 896.97 489.00 897.00 C 473.39 897.03 456.46 896.87 441.00 897.00 C 425.54 897.13 409.03 896.66 394.00 897.00 C 378.97 897.34 360.10 896.25 346.00 897.00 C 331.90 897.75 317.27 894.08 318.00 878.00 C 318.73 861.92 315.55 846.41 318.00 830.00 C 320.45 813.59 307.70 812.47 298.25 802.75 C 288.80 793.04 285.38 783.10 283.22 769.78 C 281.06 756.46 285.22 736.04 282.00 723.00
C 281.32 724.88 279.98 726.32 279.00 728.00
C 276.30 731.63 272.63 735.40 269.00 738.00
C 264.29 741.36 259.55 744.42 254.00 746.00
C 254.03 758.74 246.22 769.77 245.22 782.22 C 244.22 794.67 233.41 805.64 220.93 802.07 C 208.44 798.51 196.60 796.28 184.78 793.22 C 172.95 790.16 159.54 785.85 148.33 783.67 C 137.12 781.49 123.76 774.81 126.93 761.92 C 130.10 749.04 131.42 737.65 135.98 724.98 C 140.53 712.30 133.45 702.68 131.22 689.78 C 128.99 676.88 135.40 663.97 137.93 651.93 C 140.46 639.88 145.09 627.99 147.93 615.93 C 150.76 603.86 153.94 591.99 156.93 579.93 C 159.92 567.87 163.72 555.99 166.93 543.93 C 170.14 531.87 172.76 518.98 175.98 506.98 C 179.19 494.97 182.65 483.77 185.78 471.78 C 188.91 459.79 191.71 446.85 194.99 434.99 C 198.27 423.14 201.64 411.67 204.98 399.98 C 208.31 388.28 211.73 375.72 215.31 364.31 C 218.88 352.89 222.15 340.44 226.93 329.93 C 231.71 319.42 237.44 311.56 245.25 303.25 C 253.06 294.94 261.86 289.25 271.08 283.08 C 280.30 276.91 290.16 272.32 300.23 267.23 C 310.30 262.14 327.06 259.01 322.00 245.00 C 316.94 230.99 324.02 217.91 326.78 205.78 C 329.53 193.65 335.75 186.76 343.30 177.30 C 350.86 167.84 360.11 164.09 369.68 157.68 C 379.25 151.27 389.46 147.27 401.02 144.02 C 412.59 140.78 424.54 136.09 437.07 134.07 C 449.61 132.06 464.85 129.59 478.00 129.00
C 479.47 128.83 481.90 128.06 484.00 128.00
C 487.33 127.91 490.67 128.00 494.00 128.00
C 503.29 127.10 514.00 127.00 524.00 127.00
C 528.08 127.00 532.66 127.68 536.00 128.00 Z"/>
</g>
<g fill="#727273" fill-opacity="0.97" stroke="None">
<path d="
M 494.00 128.00 
C 504.00 128.00 514.00 128.00 524.00 128.00
C 523.96 128.00 524.00 127.00 524.00 127.00
C 514.00 127.00 503.29 127.10 494.00 128.00 Z"/>
</g>
<g fill="#C8C8C8" fill-opacity="0.67" stroke="None">
<path d="
M 524.00 128.00 
C 528.00 128.00 532.00 128.00 536.00 128.00
C 532.66 127.68 528.08 127.00 524.00 127.00
C 524.00 127.00 523.96 128.00 524.00 128.00 Z"/>
</g>
<g fill="#979998" fill-opacity="0.87" stroke="None">
<path d="
M 478.00 129.00 
C 480.12 128.94 482.57 128.16 484.00 128.00
C 481.90 128.06 479.47 128.83 478.00 129.00 Z"/>
</g>
<g fill="#000000" fill-opacity="1.00" stroke="None">
<path d="
M 478.00 129.00 
C 464.85 129.59 449.61 132.06 437.07 134.07 C 424.54 136.09 412.59 140.78 401.02 144.02 C 389.46 147.27 379.25 151.27 369.68 157.68 C 360.11 164.09 350.86 167.84 343.30 177.30 C 335.75 186.76 329.53 193.65 326.78 205.78 C 324.02 217.91 316.94 230.99 322.00 245.00 C 327.06 259.01 310.30 262.14 300.23 267.23 C 290.16 272.32 280.30 276.91 271.08 283.08 C 261.86 289.25 253.06 294.94 245.25 303.25 C 237.44 311.56 231.71 319.42 226.93 329.93 C 222.15 340.44 218.88 352.89 215.31 364.31 C 211.73 375.72 208.31 388.28 204.98 399.98 C 201.64 411.67 198.27 423.14 194.99 434.99 C 191.71 446.85 188.91 459.79 185.78 471.78 C 182.65 483.77 179.19 494.97 175.98 506.98 C 172.76 518.98 170.14 531.87 166.93 543.93 C 163.72 555.99 159.92 567.87 156.93 579.93 C 153.94 591.99 150.76 603.86 147.93 615.93 C 145.09 627.99 140.46 639.88 137.93 651.93 C 135.40 663.97 128.99 676.88 131.22 689.78 C 133.45 702.68 140.53 712.30 135.98 724.98 C 131.42 737.65 130.10 749.04 126.93 761.92 C 123.76 774.81 137.12 781.49 148.33 783.67 C 159.54 785.85 172.95 790.16 184.78 793.22 C 196.60 796.28 208.44 798.51 220.93 802.07 C 233.41 805.64 244.22 794.67 245.22 782.22 C 246.22 769.77 254.03 758.74 254.00 746.00
C 259.55 744.42 264.29 741.36 269.00 738.00
C 272.15 735.36 276.33 731.06 279.00 728.00
C 279.98 726.32 281.32 724.88 282.00 723.00
C 285.22 736.04 281.06 756.46 283.22 769.78 C 285.38 783.10 288.80 793.04 298.25 802.75 C 307.70 812.47 320.45 813.59 318.00 830.00 C 315.55 846.41 318.73 861.92 318.00 878.00 C 317.27 894.08 331.90 897.75 346.00 897.00 C 360.10 896.25 378.97 897.34 394.00 897.00 C 409.03 896.66 425.54 897.13 441.00 897.00 C 456.46 896.87 473.39 897.03 489.00 897.00 C 504.61 896.97 520.38 896.93 536.00 897.00 C 551.62 897.07 568.50 896.80 584.00 897.00 C 599.50 897.20 615.88 896.52 631.00 897.00 C 646.12 897.48 664.69 895.95 679.00 897.00 C 693.31 898.05 706.83 892.73 706.00 877.00 C 705.17 861.27 708.05 844.82 706.00 829.00 C 703.95 813.18 716.58 811.75 725.75 801.75 C 734.92 791.75 739.48 782.60 741.00 769.00 C 742.52 755.40 739.03 736.25 742.00 723.00
C 746.32 737.64 764.50 736.35 770.01 748.99 C 775.52 761.63 774.59 777.26 780.70 791.30 C 786.80 805.34 805.20 803.28 817.33 798.33 C 829.46 793.37 848.62 792.77 859.93 787.93 C 871.23 783.08 892.59 784.83 896.07 771.07 C 899.55 757.31 894.04 743.24 889.00 729.00 C 883.95 714.77 892.01 702.56 893.00 688.00
C 893.18 685.39 893.10 682.62 893.00 680.00
C 880.22 625.69 863.89 569.97 850.92 516.08 C 837.96 462.18 819.30 408.92 806.31 355.69 C 793.31 302.47 748.32 274.74 700.00 257.00
C 710.55 219.68 692.62 180.78 660.25 160.75 C 627.88 140.73 589.29 131.29 551.00 129.00
C 548.68 128.86 545.64 128.16 544.00 128.00
C 541.34 127.95 538.66 128.00 536.00 128.00
C 532.00 128.00 528.00 128.00 524.00 128.00
C 514.00 128.00 504.00 128.00 494.00 128.00
C 490.67 128.00 487.33 127.91 484.00 128.00
C 482.57 128.16 480.12 128.94 478.00 129.00
M 645.00 194.00 
C 646.62 195.21 647.67 196.67 649.00 198.00
C 673.09 218.59 672.94 258.68 648.25 279.25 C 623.56 299.82 588.46 302.81 559.00 307.00
C 573.92 298.70 590.32 289.43 604.23 279.23 C 618.14 269.03 637.54 262.64 644.00 246.00
C 644.22 243.84 644.25 241.15 644.00 239.00
C 639.29 220.00 620.41 225.41 609.25 234.25 C 598.10 243.10 584.74 248.96 573.30 257.30 C 561.86 265.65 549.77 272.02 538.25 280.25 C 526.74 288.49 513.37 299.41 501.30 289.70 C 489.23 279.98 477.47 275.00 465.26 266.74 C 453.05 258.48 442.69 250.67 429.92 244.08 C 417.15 237.49 406.42 221.16 389.98 226.98 C 373.54 232.79 379.73 255.78 393.25 261.75 C 406.77 267.73 416.22 278.22 429.08 284.92 C 441.94 291.62 452.42 302.26 466.00 307.00
C 435.36 301.78 395.41 300.37 371.25 275.75 C 347.09 251.13 354.43 205.40 385.75 189.75 C 417.07 174.10 451.93 163.69 488.00 163.00
C 489.75 162.83 492.60 162.05 495.00 162.00
C 546.43 160.97 603.50 163.15 645.00 194.00
M 789.00 713.00 
C 786.61 713.38 785.44 713.65 783.00 713.00
C 765.68 710.68 767.74 684.70 762.67 671.33 C 757.60 657.95 755.02 636.82 750.00 622.00 C 744.99 607.17 739.86 587.13 738.00 571.00
C 737.74 569.96 737.21 568.51 737.00 567.00
C 734.94 551.83 731.06 535.03 729.01 519.99 C 726.95 504.95 723.03 487.14 721.22 472.78 C 719.41 458.42 718.12 437.31 698.98 440.98 C 679.83 444.64 685.95 464.57 687.98 479.02 C 690.00 493.48 693.81 512.90 695.00 528.00
C 695.20 528.98 695.86 530.49 696.00 532.00
C 697.67 549.38 701.64 564.50 703.98 582.02 C 706.31 599.55 705.84 619.62 706.00 638.00 C 706.16 656.38 705.36 677.86 706.00 696.00 C 706.64 714.14 704.44 736.90 706.00 754.00 C 707.56 771.10 696.95 789.72 678.00 785.00
C 672.80 783.71 677.26 765.56 676.00 758.00 C 674.74 750.44 677.08 735.81 676.00 727.00 C 674.92 718.19 677.62 705.05 676.00 696.00
C 672.01 683.39 657.62 681.25 650.75 669.25 C 643.87 657.26 636.44 649.26 632.07 634.93 C 627.71 620.59 622.57 610.49 622.01 592.99 C 621.45 575.50 604.99 572.11 588.00 574.00 C 571.01 575.89 552.36 573.60 535.00 574.00 C 517.64 574.40 500.66 574.91 483.00 574.00 C 465.34 573.09 448.04 576.74 430.00 574.00 C 411.96 571.26 401.08 581.40 401.02 598.02 C 400.97 614.65 395.38 625.63 390.08 639.08 C 384.77 652.53 379.15 661.64 370.75 672.75 C 362.34 683.85 348.20 686.89 347.00 702.00
C 347.16 711.10 348.86 722.17 348.00 732.00 C 347.14 741.83 349.02 753.36 348.00 763.00 C 346.98 772.64 352.60 786.43 341.00 785.00
C 317.26 782.08 317.03 762.35 318.00 741.00 C 318.97 719.65 317.40 694.98 318.00 673.00 C 318.60 651.02 317.38 627.14 318.00 605.00
C 318.06 602.89 318.85 600.41 319.00 599.00
C 319.04 597.00 318.89 594.99 319.00 593.00
C 319.09 591.38 319.81 590.00 320.00 589.00
C 320.91 575.13 323.60 561.41 325.93 547.93 C 328.26 534.44 329.27 520.28 332.00 507.00 C 334.73 493.71 335.36 479.69 338.78 466.78 C 342.20 453.87 336.33 438.27 321.00 440.00 C 305.67 441.73 304.77 456.47 303.22 469.22 C 301.67 481.97 298.76 496.88 297.02 510.02 C 295.29 523.16 292.40 537.07 290.22 550.22 C 288.04 563.37 285.63 577.01 283.02 590.02 C 280.42 603.04 277.41 614.94 273.69 627.69 C 269.98 640.45 267.10 651.12 263.23 664.23 C 259.36 677.34 258.67 688.06 253.74 701.74 C 248.81 715.43 235.03 714.05 222.99 710.01 C 210.95 705.97 199.35 701.89 186.77 699.23 C 174.20 696.57 162.87 688.48 167.98 674.98 C 173.08 661.47 173.44 650.60 177.78 637.78 C 182.12 624.96 183.75 612.95 187.33 600.33 C 190.91 587.71 193.82 575.78 197.33 563.33 C 200.84 550.87 203.89 538.52 206.99 525.99 C 210.10 513.47 213.86 501.26 216.78 488.78 C 219.69 476.30 223.58 464.04 226.78 451.78 C 229.98 439.51 233.20 426.70 236.78 414.78 C 240.36 402.85 244.20 390.10 247.33 378.33 C 250.45 366.55 254.70 354.32 259.77 343.77 C 264.84 333.22 271.66 324.48 281.75 318.75 C 291.83 313.01 301.37 306.00 312.08 302.08 C 322.78 298.15 334.21 285.53 342.00 296.00
C 345.06 299.51 349.54 303.99 353.00 307.00
C 359.27 311.66 364.09 315.33 371.08 318.92 C 378.06 322.52 385.83 324.78 393.23 327.77 C 400.63 330.76 410.66 330.31 418.02 333.98 C 425.39 337.65 437.11 335.08 444.00 339.00
C 449.84 342.32 444.61 357.31 446.00 365.00 C 447.39 372.69 445.13 385.39 446.00 394.00 C 446.87 402.61 445.09 413.00 446.00 422.00 C 446.91 431.00 444.47 441.98 446.00 451.00
C 451.44 468.91 475.15 467.57 479.00 449.00
C 479.62 442.13 478.62 434.86 479.00 428.00 C 479.38 421.14 478.62 413.77 479.00 407.00 C 479.38 400.23 478.38 391.43 479.00 385.00 C 479.62 378.57 477.67 369.51 479.00 364.00 C 480.33 358.49 475.75 345.98 480.00 343.00
C 485.32 339.28 496.29 345.38 503.00 344.00 C 509.71 342.62 520.88 344.00 528.00 344.00
C 530.76 343.73 534.55 342.93 538.00 343.00
C 540.33 343.05 542.67 342.96 545.00 343.00
C 545.74 360.21 544.01 380.06 545.00 397.00 C 545.99 413.94 542.71 435.47 545.93 451.07 C 549.14 466.68 575.65 465.62 578.31 450.30 C 580.96 434.99 577.76 412.23 579.00 396.00
C 578.29 388.63 576.62 374.64 578.00 367.00 C 579.38 359.36 574.17 342.72 580.00 339.00
C 586.52 334.84 598.81 337.65 606.07 334.07 C 613.34 330.50 623.56 330.99 631.00 328.00 C 638.45 325.01 645.75 322.28 652.74 318.74 C 659.74 315.21 665.05 310.98 671.23 306.23 C 677.41 301.48 682.43 295.86 686.00 289.00
C 702.60 296.84 717.73 305.17 734.23 313.77 C 750.73 322.37 762.69 335.47 768.32 353.68 C 773.96 371.89 780.46 391.47 785.78 410.22 C 791.10 428.98 796.58 449.22 801.78 468.22 C 806.98 487.22 812.00 508.08 816.99 527.01 C 821.98 545.93 828.06 566.54 832.98 585.02 C 837.89 603.51 843.91 626.47 848.00 644.00 C 852.08 661.54 867.34 688.45 846.99 696.99 C 826.64 705.53 809.61 706.87 789.00 713.00
M 642.00 712.00 
C 645.85 722.17 642.50 736.55 643.00 748.00 C 643.50 759.45 644.04 773.46 643.00 785.00
C 638.32 789.87 625.16 784.47 618.00 786.00 C 610.84 787.53 600.03 785.32 592.00 786.00 C 583.97 786.68 574.47 785.71 566.00 786.00 C 557.53 786.29 547.62 785.89 539.00 786.00 C 530.38 786.11 521.63 786.00 513.00 786.00 C 504.37 786.00 495.63 786.12 487.00 786.00 C 478.37 785.88 468.49 786.30 460.00 786.00 C 451.51 785.70 442.08 786.72 434.00 786.00 C 425.92 785.28 415.28 787.61 408.00 786.00 C 400.72 784.39 386.90 789.90 382.00 785.00
C 377.50 780.50 382.11 767.85 381.00 761.00 C 379.89 754.15 381.10 742.34 381.00 735.00 C 380.90 727.66 379.24 716.70 383.00 711.00
C 383.89 709.65 385.02 708.20 386.00 707.00
C 388.38 704.10 391.65 701.70 394.00 699.00
C 401.19 689.34 407.04 681.64 413.25 671.25 C 419.47 660.87 423.86 649.87 427.93 637.93 C 432.00 625.99 429.12 605.93 446.00 608.00 C 462.88 610.07 477.59 607.03 494.00 608.00 C 510.41 608.97 525.79 607.50 542.00 608.00 C 558.21 608.50 573.84 607.62 590.00 608.00
C 593.17 647.96 615.62 682.92 642.00 712.00
M 220.00 745.00 
C 218.82 752.11 216.58 758.96 215.00 766.00
C 197.60 761.50 180.50 756.18 163.00 752.00
C 164.55 745.22 167.94 738.95 169.00 732.00
C 186.18 735.55 202.89 741.00 220.00 745.00
M 856.00 732.00 
C 855.68 739.19 860.37 745.02 861.00 752.00
C 843.86 757.14 826.26 761.07 809.00 766.00
C 806.93 759.45 805.28 752.79 804.00 746.00
C 821.26 741.02 838.40 735.85 856.00 732.00
M 671.00 819.00 
C 671.00 834.00 671.00 849.00 671.00 864.00
C 565.00 864.00 459.00 864.00 353.00 864.00
C 353.00 849.00 353.00 834.00 353.00 819.00
C 459.00 819.00 565.00 819.00 671.00 819.00 Z"/>
</g>
<g fill="#A6A7A7" fill-opacity="0.77" stroke="None">
<path d="
M 551.00 129.00 
C 549.17 128.74 546.52 128.05 544.00 128.00
C 545.64 128.16 548.68 128.86 551.00 129.00 Z"/>
</g>
<g fill="#B7B7B7" fill-opacity="0.80" stroke="None">
<path d="
M 488.00 163.00 
C 490.41 162.95 493.30 162.16 495.00 162.00
C 492.60 162.05 489.75 162.83 488.00 163.00 Z"/>
</g>
<g fill="#000000" fill-opacity="0.01" stroke="None">
<path d="
M 488.00 163.00 
C 451.93 163.69 417.07 174.10 385.75 189.75 C 354.43 205.40 347.09 251.13 371.25 275.75 C 395.41 300.37 435.36 301.78 466.00 307.00
C 452.42 302.26 441.94 291.62 429.08 284.92 C 416.22 278.22 406.77 267.73 393.25 261.75 C 379.73 255.78 373.54 232.79 389.98 226.98 C 406.42 221.16 417.15 237.49 429.92 244.08 C 442.69 250.67 453.05 258.48 465.26 266.74 C 477.47 275.00 489.23 279.98 501.30 289.70 C 513.37 299.41 526.74 288.49 538.25 280.25 C 549.77 272.02 561.86 265.65 573.30 257.30 C 584.74 248.96 598.10 243.10 609.25 234.25 C 620.41 225.41 639.29 220.00 644.00 239.00
C 644.69 241.78 644.63 243.29 644.00 246.00
C 637.54 262.64 618.14 269.03 604.23 279.23 C 590.32 289.43 573.92 298.70 559.00 307.00
C 588.46 302.81 623.56 299.82 648.25 279.25 C 672.94 258.68 673.09 218.59 649.00 198.00
C 647.61 196.81 646.27 195.11 645.00 194.00
C 603.50 163.15 546.43 160.97 495.00 162.00
C 493.30 162.16 490.41 162.95 488.00 163.00 Z"/>
</g>
<g fill="#CBCAC9" fill-opacity="0.57" stroke="None">
<path d="
M 649.00 198.00 
C 647.67 196.67 646.62 195.21 645.00 194.00
C 646.27 195.11 647.61 196.81 649.00 198.00 Z"/>
</g>
<g fill="#8F8F90" fill-opacity="0.91" stroke="None">
<path d="
M 644.00 246.00 
C 644.63 243.29 644.69 241.78 644.00 239.00
C 644.25 241.15 644.22 243.84 644.00 246.00 Z"/>
</g>
<g fill="#000000" fill-opacity="0.00" stroke="None">
<path d="
M 580.00 339.00 
C 576.12 342.55 580.04 351.75 579.00 357.00 C 577.96 362.25 579.36 370.10 579.00 376.00 C 578.64 381.90 579.00 389.90 579.00 396.00
C 577.76 412.23 580.96 434.99 578.31 450.30 C 575.65 465.62 549.14 466.68 545.93 451.07 C 542.71 435.47 545.99 413.94 545.00 397.00 C 544.01 380.06 545.74 360.21 545.00 343.00
C 542.67 342.96 540.33 343.05 538.00 343.00
C 535.31 343.21 531.38 344.00 528.00 344.00
C 520.88 344.00 509.71 342.62 503.00 344.00 C 496.29 345.38 485.32 339.28 480.00 343.00
C 475.90 377.46 485.92 415.60 479.00 449.00
C 475.15 467.57 451.44 468.91 446.00 451.00
C 444.06 444.61 445.32 437.20 445.00 430.00 C 444.68 422.80 445.37 414.20 445.00 407.00 C 444.63 399.80 445.68 390.88 445.00 384.00 C 444.32 377.12 446.43 367.05 445.00 361.00 C 443.57 354.95 448.61 342.79 444.00 339.00
C 437.11 335.08 425.39 337.65 418.02 333.98 C 410.66 330.31 400.63 330.76 393.23 327.77 C 385.83 324.78 378.06 322.52 371.08 318.92 C 364.09 315.33 359.27 311.66 353.00 307.00
C 349.00 304.03 344.93 299.94 342.00 296.00
C 334.21 285.53 322.78 298.15 312.08 302.08 C 301.37 306.00 291.83 313.01 281.75 318.75 C 271.66 324.48 264.84 333.22 259.77 343.77 C 254.70 354.32 250.45 366.55 247.33 378.33 C 244.20 390.10 240.36 402.85 236.78 414.78 C 233.20 426.70 229.98 439.51 226.78 451.78 C 223.58 464.04 219.69 476.30 216.78 488.78 C 213.86 501.26 210.10 513.47 206.99 525.99 C 203.89 538.52 200.84 550.87 197.33 563.33 C 193.82 575.78 190.91 587.71 187.33 600.33 C 183.75 612.95 182.12 624.96 177.78 637.78 C 173.44 650.60 173.08 661.47 167.98 674.98 C 162.87 688.48 174.20 696.57 186.77 699.23 C 199.35 701.89 210.95 705.97 222.99 710.01 C 235.03 714.05 248.81 715.43 253.74 701.74 C 258.67 688.06 259.36 677.34 263.23 664.23 C 267.10 651.12 269.98 640.45 273.69 627.69 C 277.41 614.94 280.42 603.04 283.02 590.02 C 285.63 577.01 288.04 563.37 290.22 550.22 C 292.40 537.07 295.29 523.16 297.02 510.02 C 298.76 496.88 301.67 481.97 303.22 469.22 C 304.77 456.47 305.67 441.73 321.00 440.00 C 336.33 438.27 342.20 453.87 338.78 466.78 C 335.36 479.69 334.73 493.71 332.00 507.00 C 329.27 520.28 328.26 534.44 325.93 547.93 C 323.60 561.41 320.91 575.13 320.00 589.00
C 319.90 590.54 319.15 592.07 319.00 593.00
C 318.89 594.99 319.04 597.00 319.00 599.00
C 318.95 601.13 318.16 603.56 318.00 605.00
C 317.38 627.14 318.60 651.02 318.00 673.00 C 317.40 694.98 318.97 719.65 318.00 741.00 C 317.03 762.35 317.26 782.08 341.00 785.00
C 343.00 784.96 345.00 785.03 347.00 785.00
C 347.00 757.33 347.00 729.67 347.00 702.00
C 348.20 686.89 362.34 683.85 370.75 672.75 C 379.15 661.64 384.77 652.53 390.08 639.08 C 395.38 625.63 400.97 614.65 401.02 598.02 C 401.08 581.40 411.96 571.26 430.00 574.00 C 448.04 576.74 465.34 573.09 483.00 574.00 C 500.66 574.91 517.64 574.40 535.00 574.00 C 552.36 573.60 571.01 575.89 588.00 574.00 C 604.99 572.11 621.45 575.50 622.01 592.99 C 622.57 610.49 627.71 620.59 632.07 634.93 C 636.44 649.26 643.87 657.26 650.75 669.25 C 657.62 681.25 672.01 683.39 676.00 696.00
C 677.97 702.23 676.54 710.05 677.00 717.00 C 677.46 723.95 676.31 733.28 677.00 740.00 C 677.69 746.72 675.63 757.14 677.00 763.00 C 678.37 768.86 673.56 781.89 678.00 785.00
C 696.95 789.72 707.56 771.10 706.00 754.00 C 704.44 736.90 706.64 714.14 706.00 696.00 C 705.36 677.86 706.16 656.38 706.00 638.00 C 705.84 619.62 706.31 599.55 703.98 582.02 C 701.64 564.50 697.67 549.38 696.00 532.00
C 695.77 530.95 695.12 529.58 695.00 528.00
C 693.81 512.90 690.00 493.48 687.98 479.02 C 685.95 464.57 679.83 444.64 698.98 440.98 C 718.12 437.31 719.41 458.42 721.22 472.78 C 723.03 487.14 726.95 504.95 729.01 519.99 C 731.06 535.03 734.94 551.83 737.00 567.00
C 737.30 568.12 737.82 569.40 738.00 571.00
C 739.86 587.13 744.99 607.17 750.00 622.00 C 755.02 636.82 757.60 657.95 762.67 671.33 C 767.74 684.70 765.68 710.68 783.00 713.00
C 784.87 713.25 787.12 713.11 789.00 713.00
C 809.61 706.87 826.64 705.53 846.99 696.99 C 867.34 688.45 852.08 661.54 848.00 644.00 C 843.91 626.47 837.89 603.51 832.98 585.02 C 828.06 566.54 821.98 545.93 816.99 527.01 C 812.00 508.08 806.98 487.22 801.78 468.22 C 796.58 449.22 791.10 428.98 785.78 410.22 C 780.46 391.47 773.96 371.89 768.32 353.68 C 762.69 335.47 750.73 322.37 734.23 313.77 C 717.73 305.17 702.60 296.84 686.00 289.00
C 682.43 295.86 677.41 301.48 671.23 306.23 C 665.05 310.98 659.74 315.21 652.74 318.74 C 645.75 322.28 638.45 325.01 631.00 328.00 C 623.56 330.99 613.34 330.50 606.07 334.07 C 598.81 337.65 586.52 334.84 580.00 339.00 Z"/>
</g>
<g fill="#CAC8C9" fill-opacity="0.75" stroke="None">
<path d="
M 353.00 307.00 
C 349.54 303.99 345.06 299.51 342.00 296.00
C 344.93 299.94 349.00 304.03 353.00 307.00 Z"/>
</g>
<g fill="#6D6D6D" fill-opacity="0.98" stroke="None">
<path d="
M 446.00 451.00 
C 444.47 441.98 446.91 431.00 446.00 422.00 C 445.09 413.00 446.87 402.61 446.00 394.00 C 445.13 385.39 447.39 372.69 446.00 365.00 C 444.61 357.31 449.84 342.32 444.00 339.00
C 448.61 342.79 443.57 354.95 445.00 361.00 C 446.43 367.05 444.32 377.12 445.00 384.00 C 445.68 390.88 444.63 399.80 445.00 407.00 C 445.37 414.20 444.68 422.80 445.00 430.00 C 445.32 437.20 444.06 444.61 446.00 451.00 Z"/>
</g>
<g fill="#373838" fill-opacity="0.99" stroke="None">
<path d="
M 579.00 396.00 
C 579.00 389.90 578.64 381.90 579.00 376.00 C 579.36 370.10 577.96 362.25 579.00 357.00 C 580.04 351.75 576.12 342.55 580.00 339.00
C 574.17 342.72 579.38 359.36 578.00 367.00 C 576.62 374.64 578.29 388.63 579.00 396.00 Z"/>
</g>
<g fill="#C9C9CA" fill-opacity="0.99" stroke="None">
<path d="
M 479.00 449.00 
C 485.92 415.60 475.90 377.46 480.00 343.00
C 475.75 345.98 480.33 358.49 479.00 364.00 C 477.67 369.51 479.62 378.57 479.00 385.00 C 478.38 391.43 479.38 400.23 479.00 407.00 C 478.62 413.77 479.38 421.14 479.00 428.00 C 478.62 434.86 479.62 442.13 479.00 449.00 Z"/>
</g>
<g fill="#9FA0A1" fill-opacity="0.85" stroke="None">
<path d="
M 528.00 344.00 
C 531.38 344.00 535.31 343.21 538.00 343.00
C 534.55 342.93 530.76 343.73 528.00 344.00 Z"/>
</g>
<g fill="#C3C5C5" fill-opacity="0.64" stroke="None">
<path d="
M 696.00 532.00 
C 695.86 530.49 695.20 528.98 695.00 528.00
C 695.12 529.58 695.77 530.95 696.00 532.00 Z"/>
</g>
<g fill="#A7A8A7" fill-opacity="0.73" stroke="None">
<path d="
M 738.00 571.00 
C 737.82 569.40 737.30 568.12 737.00 567.00
C 737.21 568.51 737.74 569.96 738.00 571.00 Z"/>
</g>
<g fill="#A6A8A9" fill-opacity="0.87" stroke="None">
<path d="
M 319.00 593.00 
C 319.15 592.07 319.90 590.54 320.00 589.00
C 319.81 590.00 319.09 591.38 319.00 593.00 Z"/>
</g>
<g fill="#B9B9BB" fill-opacity="0.67" stroke="None">
<path d="
M 318.00 605.00 
C 318.16 603.56 318.95 601.13 319.00 599.00
C 318.85 600.41 318.06 602.89 318.00 605.00 Z"/>
</g>
<g fill="#000000" fill-opacity="0.00" stroke="None">
<path d="
M 394.00 699.00 
C 391.71 702.09 388.56 704.34 386.00 707.00
C 385.02 708.20 383.89 709.65 383.00 711.00
C 378.15 721.50 383.72 735.35 382.00 747.00 C 380.28 758.65 383.29 773.09 382.00 785.00
C 468.67 785.00 555.33 785.00 642.00 785.00
C 640.92 773.11 643.42 760.85 642.00 749.00 C 640.58 737.15 644.66 723.61 642.00 712.00
C 615.62 682.92 593.17 647.96 590.00 608.00
C 573.84 607.62 558.21 608.50 542.00 608.00 C 525.79 607.50 510.41 608.97 494.00 608.00 C 477.59 607.03 462.88 610.07 446.00 608.00 C 429.12 605.93 432.00 625.99 427.93 637.93 C 423.86 649.87 419.47 660.87 413.25 671.25 C 407.04 681.64 401.19 689.34 394.00 699.00 Z"/>
</g>
<g fill="#D4D7D5" fill-opacity="0.63" stroke="None">
<path d="
M 893.00 688.00 
C 893.51 685.18 893.41 682.84 893.00 680.00
C 893.10 682.62 893.18 685.39 893.00 688.00 Z"/>
</g>
<g fill="#525253" fill-opacity="0.99" stroke="None">
<path d="
M 678.00 785.00 
C 673.56 781.89 678.37 768.86 677.00 763.00 C 675.63 757.14 677.69 746.72 677.00 740.00 C 676.31 733.28 677.46 723.95 677.00 717.00 C 676.54 710.05 677.97 702.23 676.00 696.00
C 677.62 705.05 674.92 718.19 676.00 727.00 C 677.08 735.81 674.74 750.44 676.00 758.00 C 677.26 765.56 672.80 783.71 678.00 785.00 Z"/>
</g>
<g fill="#919092" fill-opacity="0.86" stroke="None">
<path d="
M 386.00 707.00 
C 388.56 704.34 391.71 702.09 394.00 699.00
C 391.65 701.70 388.38 704.10 386.00 707.00 Z"/>
</g>
<g fill="#3C3C3C" fill-opacity="1.00" stroke="None">
<path d="
M 341.00 785.00 
C 352.60 786.43 346.98 772.64 348.00 763.00 C 349.02 753.36 347.14 741.83 348.00 732.00 C 348.86 722.17 347.16 711.10 347.00 702.00
C 347.00 729.67 347.00 757.33 347.00 785.00
C 345.00 785.03 343.00 784.96 341.00 785.00 Z"/>
</g>
<g fill="#8E8F8F" fill-opacity="0.99" stroke="None">
<path d="
M 382.00 785.00 
C 383.29 773.09 380.28 758.65 382.00 747.00 C 383.72 735.35 378.15 721.50 383.00 711.00
C 379.24 716.70 380.90 727.66 381.00 735.00 C 381.10 742.34 379.89 754.15 381.00 761.00 C 382.11 767.85 377.50 780.50 382.00 785.00 Z"/>
</g>
<g fill="#E2E2E1" fill-opacity="0.63" stroke="None">
<path d="
M 642.00 785.00 
C 642.50 785.00 643.00 785.00 643.00 785.00
C 644.04 773.46 643.50 759.45 643.00 748.00 C 642.50 736.55 645.85 722.17 642.00 712.00
C 644.66 723.61 640.58 737.15 642.00 749.00 C 643.42 760.85 640.92 773.11 642.00 785.00 Z"/>
</g>
<g fill="#B8B7B8" fill-opacity="0.82" stroke="None">
<path d="
M 789.00 713.00 
C 787.12 713.11 784.87 713.25 783.00 713.00
C 785.44 713.65 786.61 713.38 789.00 713.00 Z"/>
</g>
<g fill="#9E9F9F" fill-opacity="0.87" stroke="None">
<path d="
M 269.00 738.00 
C 272.63 735.40 276.30 731.63 279.00 728.00
C 276.33 731.06 272.15 735.36 269.00 738.00 Z"/>
</g>
<g fill="#000000" fill-opacity="0.03" stroke="None">
<path d="
M 220.00 745.00 
C 202.89 741.00 186.18 735.55 169.00 732.00
C 167.94 738.95 164.55 745.22 163.00 752.00
C 180.50 756.18 197.60 761.50 215.00 766.00
C 216.58 758.96 218.82 752.11 220.00 745.00 Z"/>
</g>
<g fill="#000000" fill-opacity="0.03" stroke="None">
<path d="
M 856.00 732.00 
C 838.40 735.85 821.26 741.02 804.00 746.00
C 805.28 752.79 806.93 759.45 809.00 766.00
C 826.26 761.07 843.86 757.14 861.00 752.00
C 860.37 745.02 855.68 739.19 856.00 732.00 Z"/>
</g>
<g fill="#242526" fill-opacity="1.00" stroke="None">
<path d="
M 643.00 785.00 
C 643.00 785.00 642.50 785.00 642.00 785.00
C 555.33 785.00 468.67 785.00 382.00 785.00
C 386.90 789.90 400.72 784.39 408.00 786.00 C 415.28 787.61 425.92 785.28 434.00 786.00 C 442.08 786.72 451.51 785.70 460.00 786.00 C 468.49 786.30 478.37 785.88 487.00 786.00 C 495.63 786.12 504.37 786.00 513.00 786.00 C 521.63 786.00 530.38 786.11 539.00 786.00 C 547.62 785.89 557.53 786.29 566.00 786.00 C 574.47 785.71 583.97 786.68 592.00 786.00 C 600.03 785.32 610.84 787.53 618.00 786.00 C 625.16 784.47 638.32 789.87 643.00 785.00 Z"/>
</g>
<g fill="#000000" fill-opacity="0.00" stroke="None">
<path d="
M 671.00 819.00 
C 565.00 819.00 459.00 819.00 353.00 819.00
C 353.00 834.00 353.00 849.00 353.00 864.00
C 459.00 864.00 565.00 864.00 671.00 864.00
C 671.00 849.00 671.00 834.00 671.00 819.00 Z"/>
</g>
</svg>