<svg xmlns="http://www.w3.org/2000/svg" xmlns:v="https://svgstorm.com"
viewBox = "0 0 1024 1024"
width="1024"
height="1024">
<g fill="None" fill-opacity="0.0" stroke="#000000" stroke-opacity="0.00" stroke-width="0.3"><path d="
M 0.00 1024.00 
L 1024.00 1024.00
L 1024.00 0.00
L 0.00 0.00
L 0.00 1024.00
M 742.00 456.00 
C 741.98 475.93 742.03 496.09 742.00 516.00 C 741.97 535.91 742.06 557.29 742.00 577.00 C 741.94 596.71 742.12 618.89 742.00 638.00 C 741.88 657.11 742.42 680.01 741.67 697.67 C 740.92 715.33 741.41 730.97 741.00 750.00 C 740.59 769.03 741.99 787.46 742.00 804.00 C 742.01 820.54 748.08 849.13 727.00 850.00 C 705.92 850.87 687.61 849.61 667.00 850.00 C 646.39 850.39 626.45 849.80 606.00 850.00 C 585.55 850.20 565.36 849.87 545.00 850.00 C 524.64 850.13 505.39 849.86 485.00 850.00 C 464.61 850.14 444.56 849.74 424.00 850.00 C 403.44 850.26 383.89 849.46 363.00 850.00 C 342.11 850.54 323.58 848.83 302.00 850.00 C 280.42 851.17 282.13 829.25 283.22 812.78 C 284.31 796.31 284.51 772.97 284.00 755.00 C 283.49 737.03 282.70 718.72 283.00 699.00 C 283.30 679.28 282.87 659.01 283.00 639.00 C 283.13 618.99 282.94 598.18 283.00 578.00 C 283.06 557.82 282.97 537.25 283.00 517.00 C 283.03 496.75 282.98 476.27 283.00 456.00
C 273.46 467.94 263.27 470.82 254.25 484.25 C 245.22 497.68 229.20 499.38 219.75 486.25 C 210.30 473.11 201.70 467.78 191.25 456.75 C 180.80 445.72 172.08 436.88 162.10 427.90 C 152.12 418.92 143.61 408.23 132.75 399.25 C 121.89 390.27 109.84 374.99 121.75 363.75 C 133.67 352.52 138.96 344.04 149.25 333.25 C 159.53 322.45 166.93 312.87 176.30 302.30 C 185.68 291.74 195.00 283.00 204.25 272.25 C 213.49 261.50 222.82 253.27 232.25 242.25 C 241.68 231.23 250.07 220.26 264.68 216.68 C 279.29 213.10 293.00 206.38 307.68 202.68 C 322.36 198.97 336.31 191.77 351.07 188.07 C 365.84 184.38 379.93 176.46 395.07 174.07 C 410.22 171.68 423.26 182.39 438.07 186.93 C 452.89 191.46 468.46 196.72 485.00 198.00 C 501.55 199.28 524.45 198.97 541.00 198.00 C 557.55 197.04 573.54 191.85 588.22 187.22 C 602.91 182.59 615.83 171.07 631.00 174.00 C 646.17 176.93 660.29 184.03 675.07 187.93 C 689.86 191.82 704.32 198.24 719.02 201.98 C 733.73 205.71 747.91 212.83 762.22 216.78 C 776.54 220.73 783.98 232.05 793.30 242.70 C 802.62 253.34 812.03 261.97 821.75 272.25 C 831.47 282.52 839.31 292.12 849.25 302.75 C 859.20 313.37 866.86 322.29 876.75 333.25 C 886.65 344.20 892.65 351.93 904.25 363.75 C 915.85 375.57 904.55 390.18 893.75 399.75 C 882.95 409.32 874.32 418.52 864.25 428.25 C 854.18 437.98 844.79 445.60 834.75 456.75 C 824.71 467.91 816.19 472.88 806.25 486.25 C 796.30 499.61 781.61 496.91 772.25 483.75 C 762.89 470.60 752.03 467.00 742.00 456.00
M 744.00 537.00 
C 744.00 579.33 744.00 621.67 744.00 664.00
C 742.33 622.73 742.33 578.20 744.00 537.00 Z"/>
</g>
<g fill="None" fill-opacity="0.0" stroke="#000000" stroke-opacity="0.99" stroke-width="0.3"><path d="
M 742.00 456.00 
C 752.03 467.00 762.89 470.60 772.25 483.75 C 781.61 496.91 796.30 499.61 806.25 486.25 C 816.19 472.88 824.71 467.91 834.75 456.75 C 844.79 445.60 854.18 437.98 864.25 428.25 C 874.32 418.52 882.95 409.32 893.75 399.75 C 904.55 390.18 915.85 375.57 904.25 363.75 C 892.65 351.93 886.65 344.20 876.75 333.25 C 866.86 322.29 859.20 313.37 849.25 302.75 C 839.31 292.12 831.47 282.52 821.75 272.25 C 812.03 261.97 802.62 253.34 793.30 242.70 C 783.98 232.05 776.54 220.73 762.22 216.78 C 747.91 212.83 733.73 205.71 719.02 201.98 C 704.32 198.24 689.86 191.82 675.07 187.93 C 660.29 184.03 646.17 176.93 631.00 174.00 C 615.83 171.07 602.91 182.59 588.22 187.22 C 573.54 191.85 557.55 197.04 541.00 198.00 C 524.45 198.97 501.55 199.28 485.00 198.00 C 468.46 196.72 452.89 191.46 438.07 186.93 C 423.26 182.39 410.22 171.68 395.07 174.07 C 379.93 176.46 365.84 184.38 351.07 188.07 C 336.31 191.77 322.36 198.97 307.68 202.68 C 293.00 206.38 279.29 213.10 264.68 216.68 C 250.07 220.26 241.68 231.23 232.25 242.25 C 222.82 253.27 213.49 261.50 204.25 272.25 C 195.00 283.00 185.68 291.74 176.30 302.30 C 166.93 312.87 159.53 322.45 149.25 333.25 C 138.96 344.04 133.67 352.52 121.75 363.75 C 109.84 374.99 121.89 390.27 132.75 399.25 C 143.61 408.23 152.12 418.92 162.10 427.90 C 172.08 436.88 180.80 445.72 191.25 456.75 C 201.70 467.78 210.30 473.11 219.75 486.25 C 229.20 499.38 245.22 497.68 254.25 484.25 C 263.27 470.82 273.46 467.94 283.00 456.00
C 282.98 476.27 283.03 496.75 283.00 517.00 C 282.97 537.25 283.06 557.82 283.00 578.00 C 282.94 598.18 283.13 618.99 283.00 639.00 C 282.87 659.01 283.30 679.28 283.00 699.00 C 282.70 718.72 283.49 737.03 284.00 755.00 C 284.51 772.97 284.31 796.31 283.22 812.78 C 282.13 829.25 280.42 851.17 302.00 850.00 C 323.58 848.83 342.11 850.54 363.00 850.00 C 383.89 849.46 403.44 850.26 424.00 850.00 C 444.56 849.74 464.61 850.14 485.00 850.00 C 505.39 849.86 524.64 850.13 545.00 850.00 C 565.36 849.87 585.55 850.20 606.00 850.00 C 626.45 849.80 646.39 850.39 667.00 850.00 C 687.61 849.61 705.92 850.87 727.00 850.00 C 748.08 849.13 742.01 820.54 742.00 804.00 C 741.99 787.46 740.59 769.03 741.00 750.00 C 741.41 730.97 740.92 715.33 741.67 697.67 C 742.42 680.01 741.88 657.11 742.00 638.00 C 742.12 618.89 741.94 596.71 742.00 577.00 C 742.06 557.29 741.97 535.91 742.00 516.00 C 742.03 496.09 741.98 475.93 742.00 456.00
M 424.00 209.00 
C 423.33 212.29 429.53 214.06 433.25 214.80 C 436.97 215.54 442.76 217.47 447.00 217.00
C 449.37 222.44 458.51 221.85 464.00 221.00
C 466.39 225.08 472.76 224.23 478.03 224.97 C 483.30 225.70 486.44 226.36 491.92 226.14 C 497.41 225.92 508.18 228.20 515.00 228.00 C 521.82 227.80 530.14 225.55 535.03 225.03 C 539.93 224.51 548.54 227.07 550.00 223.00
C 553.93 224.54 566.03 226.22 563.00 221.00
C 565.24 221.35 568.63 224.94 568.00 220.00
C 570.44 222.30 576.57 222.56 576.00 218.00
C 582.30 221.19 585.20 212.38 590.00 217.00
C 591.59 213.75 597.41 212.50 601.70 211.65 C 605.98 210.79 611.40 205.44 615.00 206.00
C 611.51 207.87 616.04 212.79 611.00 212.00
C 611.59 216.42 609.92 226.53 607.93 231.08 C 605.94 235.63 598.70 245.30 596.30 250.30 C 593.90 255.30 586.81 261.04 581.75 266.75 C 576.69 272.46 573.19 272.74 565.77 276.77 C 558.35 280.80 553.11 283.00 545.30 284.65 C 537.50 286.30 533.51 288.75 526.81 287.74 C 520.12 286.73 504.15 289.19 497.71 288.71 C 491.26 288.22 484.76 286.01 478.30 284.36 C 471.84 282.72 464.41 278.42 457.77 275.23 C 451.13 272.04 446.35 270.22 440.70 264.30 C 435.05 258.39 429.63 251.27 426.22 243.78 C 422.82 236.28 417.44 229.87 416.20 222.75 C 414.96 215.64 411.18 211.28 413.00 205.00
C 415.61 208.76 419.65 210.89 424.00 209.00
M 714.00 601.00 
C 715.75 610.14 716.56 622.76 716.00 635.00 C 715.44 647.24 716.42 661.57 716.00 674.00
C 713.08 669.08 716.93 660.85 714.00 656.00
C 714.00 673.15 714.05 690.01 714.00 707.00
C 714.36 705.97 715.06 703.80 716.00 703.00
C 716.34 712.46 715.92 722.98 715.00 732.00 C 714.08 741.02 717.28 748.70 715.99 757.01 C 714.70 765.32 716.31 774.48 716.00 783.00 C 715.69 791.52 715.63 801.92 714.00 808.00
C 714.00 810.67 714.00 813.33 714.00 816.00
C 717.56 811.58 715.41 822.52 716.00 825.00
C 714.67 825.00 713.33 825.00 712.00 825.00
C 697.56 827.99 681.79 823.61 667.00 825.00 C 652.21 826.39 637.00 824.29 622.00 825.00 C 607.00 825.71 591.08 824.47 576.00 825.00
C 583.76 822.70 593.49 824.65 602.00 824.00
C 585.54 823.95 567.22 822.66 550.00 823.00
C 542.81 824.51 532.52 825.59 523.00 825.00 C 513.48 824.41 503.70 825.21 494.00 825.00 C 484.30 824.79 473.77 825.00 464.00 825.00
C 413.00 825.00 362.00 825.00 311.00 825.00
C 311.53 819.39 312.02 814.24 311.00 809.00
C 309.52 785.87 307.01 761.75 310.00 739.00
C 309.79 734.12 309.45 727.14 309.98 721.98 C 310.50 716.81 308.67 710.97 309.00 705.00 C 309.33 699.03 310.04 691.88 309.00 686.00 C 307.96 680.12 311.20 671.60 311.00 672.00
C 310.89 666.89 311.51 660.06 311.00 654.00
C 308.04 665.68 309.09 650.66 309.93 644.93 C 310.77 639.19 308.74 630.48 309.00 624.00
C 309.00 616.92 309.58 609.69 310.00 603.00
C 306.10 573.66 312.21 538.34 310.00 507.00 C 307.79 475.66 313.38 443.91 308.00 414.00
C 305.55 415.80 301.47 412.70 305.00 411.00
C 292.92 409.60 282.72 415.24 272.75 427.75 C 262.79 440.27 251.70 447.01 241.75 457.75 C 231.81 468.49 219.41 447.08 209.75 438.25 C 200.09 429.41 191.65 416.60 179.75 408.80 C 167.86 401.01 157.89 385.22 147.00 376.00
C 152.28 371.93 154.94 365.52 160.30 361.30 C 165.67 357.08 168.07 349.97 172.25 346.25 C 176.43 342.52 181.25 335.37 186.00 335.00
C 194.37 321.20 203.07 312.77 214.75 301.75 C 226.43 290.73 234.83 273.46 248.00 268.00
C 242.63 262.14 253.04 261.64 255.75 256.75 C 258.46 251.86 265.94 247.29 268.00 242.00
C 272.55 243.76 276.62 240.00 282.10 238.10 C 287.58 236.19 291.41 237.22 295.24 234.79 C 299.06 232.36 307.66 233.18 309.00 229.00
C 317.85 232.12 323.77 221.54 332.00 225.00
C 332.65 221.87 336.00 221.10 342.08 219.94 C 348.17 218.78 348.90 216.63 355.23 215.78 C 361.55 214.93 372.80 208.62 381.00 209.00
C 378.48 205.45 382.07 207.42 384.00 206.00
C 386.74 213.55 386.43 225.19 390.26 233.74 C 394.09 242.29 395.59 248.50 401.77 259.23 C 407.95 269.96 414.06 272.62 418.00 282.00
C 423.17 282.06 427.62 291.18 433.25 293.75 C 438.87 296.33 440.66 296.45 446.70 301.31 C 452.73 306.16 458.77 304.33 463.57 307.77 C 468.37 311.21 474.70 310.89 480.10 312.90 C 485.50 314.92 494.60 312.31 496.00 317.00
C 509.67 313.38 525.19 318.19 535.01 315.01 C 544.83 311.82 555.64 313.03 566.00 305.00
C 570.77 307.10 576.65 303.35 581.70 299.70 C 586.74 296.04 596.10 293.00 597.00 287.00
C 604.35 288.86 605.51 274.05 611.00 278.00
C 616.64 267.55 620.75 262.91 629.00 253.00
C 626.10 249.20 630.51 247.29 632.77 242.77 C 635.03 238.25 633.43 231.97 638.00 233.00
C 633.77 229.29 639.85 230.04 637.00 226.00
C 640.04 226.26 641.57 221.35 640.99 217.99 C 640.42 214.63 643.95 211.96 641.00 209.00
C 650.30 208.58 652.67 209.05 661.70 211.35 C 670.73 213.66 689.00 224.42 703.00 224.00
C 700.17 229.55 707.50 223.32 709.69 226.35 C 711.89 229.38 716.87 228.21 719.70 229.35 C 722.52 230.50 726.20 236.74 729.00 232.00
C 738.93 239.67 754.80 236.70 765.25 248.75 C 775.70 260.80 781.05 267.66 791.70 279.30 C 802.36 290.93 809.63 299.07 819.30 310.70 C 828.96 322.34 841.04 332.90 850.00 342.00
C 850.15 348.76 860.20 352.50 863.19 358.25 C 866.18 364.00 874.53 367.92 878.00 374.00
C 851.32 407.44 820.06 433.53 791.00 463.00
C 779.94 456.69 765.41 442.93 755.25 431.75 C 745.09 420.58 737.86 410.07 722.00 411.00
C 716.01 414.75 718.94 421.76 714.00 424.00
C 714.73 461.30 714.95 500.14 716.00 538.00
C 711.43 530.62 716.33 540.05 715.99 544.01 C 715.65 547.96 715.12 552.65 716.00 558.00
C 713.10 554.39 714.11 560.61 714.00 564.00 C 713.89 567.39 714.08 573.37 714.00 577.00
C 717.07 571.24 716.12 581.33 715.22 585.22 C 714.32 589.11 713.80 596.60 714.00 601.00 Z"/>
</g>
<g fill="None" fill-opacity="0.0" stroke="#000000" stroke-opacity="0.02" stroke-width="0.3"><path d="
M 424.00 209.00 
C 419.65 210.89 415.61 208.76 413.00 205.00
C 411.18 211.28 414.96 215.64 416.20 222.75 C 417.44 229.87 422.82 236.28 426.22 243.78 C 429.63 251.27 435.05 258.39 440.70 264.30 C 446.35 270.22 451.13 272.04 457.77 275.23 C 464.41 278.42 471.84 282.72 478.30 284.36 C 484.76 286.01 491.26 288.22 497.71 288.71 C 504.15 289.19 520.12 286.73 526.81 287.74 C 533.51 288.75 537.50 286.30 545.30 284.65 C 553.11 283.00 558.35 280.80 565.77 276.77 C 573.19 272.74 576.69 272.46 581.75 266.75 C 586.81 261.04 593.90 255.30 596.30 250.30 C 598.70 245.30 605.94 235.63 607.93 231.08 C 609.92 226.53 611.59 216.42 611.00 212.00
C 616.04 212.79 611.51 207.87 615.00 206.00
C 611.40 205.44 605.98 210.79 601.70 211.65 C 597.41 212.50 591.59 213.75 590.00 217.00
C 585.20 212.38 582.30 221.19 576.00 218.00
C 576.57 222.56 570.44 222.30 568.00 220.00
C 568.63 224.94 565.24 221.35 563.00 221.00
C 566.03 226.22 553.93 224.54 550.00 223.00
C 548.54 227.07 539.93 224.51 535.03 225.03 C 530.14 225.55 521.82 227.80 515.00 228.00 C 508.18 228.20 497.41 225.92 491.92 226.14 C 486.44 226.36 483.30 225.70 478.03 224.97 C 472.76 224.23 466.39 225.08 464.00 221.00
C 458.51 221.85 449.37 222.44 447.00 217.00
C 442.76 217.47 436.97 215.54 433.25 214.80 C 429.53 214.06 423.33 212.29 424.00 209.00 Z"/>
</g>
<g fill="None" fill-opacity="0.0" stroke="#000000" stroke-opacity="0.00" stroke-width="0.3"><path d="
M 310.00 603.00 
C 310.98 610.35 310.41 617.07 309.00 624.00
C 308.74 630.48 310.77 639.19 309.93 644.93 C 309.09 650.66 308.04 665.68 311.00 654.00
C 311.51 660.06 310.89 666.89 311.00 672.00
C 311.49 695.19 312.00 720.75 312.00 745.00
C 312.00 766.24 311.93 788.56 311.00 809.00
C 312.02 814.24 311.53 819.39 311.00 825.00
C 362.00 825.00 413.00 825.00 464.00 825.00
C 447.17 823.37 428.56 824.14 411.00 824.00
C 456.33 821.63 504.61 823.71 550.00 823.00
C 567.22 822.66 585.54 823.95 602.00 824.00
C 607.77 823.46 613.85 822.64 620.00 823.00 C 626.15 823.36 632.87 822.92 639.00 823.00 C 645.13 823.08 652.02 823.15 658.00 823.00 C 663.98 822.85 671.40 823.49 677.00 823.00 C 682.60 822.51 691.28 824.15 696.00 823.00 C 700.72 821.85 712.82 824.59 712.00 825.00
C 713.33 825.00 714.67 825.00 716.00 825.00
C 715.41 822.52 717.56 811.58 714.00 816.00
C 714.00 813.33 714.00 810.67 714.00 808.00
C 714.00 774.22 713.90 740.91 714.00 707.00
C 714.05 690.01 714.00 673.15 714.00 656.00
C 714.00 636.94 714.00 619.34 714.00 601.00
C 713.80 596.60 714.32 589.11 715.22 585.22 C 716.12 581.33 717.07 571.24 714.00 577.00
C 714.08 573.37 713.89 567.39 714.00 564.00 C 714.11 560.61 713.10 554.39 716.00 558.00
C 715.12 552.65 715.65 547.96 715.99 544.01 C 716.33 540.05 711.43 530.62 716.00 538.00
C 714.95 500.14 714.73 461.30 714.00 424.00
C 718.94 421.76 716.01 414.75 722.00 411.00
C 737.86 410.07 745.09 420.58 755.25 431.75 C 765.41 442.93 779.94 456.69 791.00 463.00
C 820.06 433.53 851.32 407.44 878.00 374.00
C 874.53 367.92 866.18 364.00 863.19 358.25 C 860.20 352.50 850.15 348.76 850.00 342.00
C 841.04 332.90 828.96 322.34 819.30 310.70 C 809.63 299.07 802.36 290.93 791.70 279.30 C 781.05 267.66 775.70 260.80 765.25 248.75 C 754.80 236.70 738.93 239.67 729.00 232.00
C 726.20 236.74 722.52 230.50 719.70 229.35 C 716.87 228.21 711.89 229.38 709.69 226.35 C 707.50 223.32 700.17 229.55 703.00 224.00
C 689.00 224.42 670.73 213.66 661.70 211.35 C 652.67 209.05 650.30 208.58 641.00 209.00
C 643.95 211.96 640.42 214.63 640.99 217.99 C 641.57 221.35 640.04 226.26 637.00 226.00
C 639.85 230.04 633.77 229.29 638.00 233.00
C 633.43 231.97 635.03 238.25 632.77 242.77 C 630.51 247.29 626.10 249.20 629.00 253.00
C 620.75 262.91 616.64 267.55 611.00 278.00
C 605.51 274.05 604.35 288.86 597.00 287.00
C 596.10 293.00 586.74 296.04 581.70 299.70 C 576.65 303.35 570.77 307.10 566.00 305.00
C 555.64 313.03 544.83 311.82 535.01 315.01 C 525.19 318.19 509.67 313.38 496.00 317.00
C 494.60 312.31 485.50 314.92 480.10 312.90 C 474.70 310.89 468.37 311.21 463.57 307.77 C 458.77 304.33 452.73 306.16 446.70 301.31 C 440.66 296.45 438.87 296.33 433.25 293.75 C 427.62 291.18 423.17 282.06 418.00 282.00
C 414.06 272.62 407.95 269.96 401.77 259.23 C 395.59 248.50 394.09 242.29 390.26 233.74 C 386.43 225.19 386.74 213.55 384.00 206.00
C 382.07 207.42 378.48 205.45 381.00 209.00
C 372.80 208.62 361.55 214.93 355.23 215.78 C 348.90 216.63 348.17 218.78 342.08 219.94 C 336.00 221.10 332.65 221.87 332.00 225.00
C 323.77 221.54 317.85 232.12 309.00 229.00
C 307.66 233.18 299.06 232.36 295.24 234.79 C 291.41 237.22 287.58 236.19 282.10 238.10 C 276.62 240.00 272.55 243.76 268.00 242.00
C 265.94 247.29 258.46 251.86 255.75 256.75 C 253.04 261.64 242.63 262.14 248.00 268.00
C 234.83 273.46 226.43 290.73 214.75 301.75 C 203.07 312.77 194.37 321.20 186.00 335.00
C 181.25 335.37 176.43 342.52 172.25 346.25 C 168.07 349.97 165.67 357.08 160.30 361.30 C 154.94 365.52 152.28 371.93 147.00 376.00
C 157.89 385.22 167.86 401.01 179.75 408.80 C 191.65 416.60 200.09 429.41 209.75 438.25 C 219.41 447.08 231.81 468.49 241.75 457.75 C 251.70 447.01 262.79 440.27 272.75 427.75 C 282.72 415.24 292.92 409.60 305.00 411.00
C 301.47 412.70 305.55 415.80 308.00 414.00
C 313.38 443.91 307.79 475.66 310.00 507.00 C 312.21 538.34 306.10 573.66 310.00 603.00 Z"/>
</g>
<g fill="None" fill-opacity="0.0" stroke="#000000" stroke-opacity="0.09" stroke-width="0.3"><path d="
M 744.00 537.00 
C 742.33 578.20 742.33 622.73 744.00 664.00
C 744.00 621.67 744.00 579.33 744.00 537.00 Z"/>
</g>
<g fill="None" fill-opacity="0.0" stroke="#000000" stroke-opacity="0.30" stroke-width="0.3"><path d="
M 714.00 656.00 
C 716.93 660.85 713.08 669.08 716.00 674.00
C 716.42 661.57 715.44 647.24 716.00 635.00 C 716.56 622.76 715.75 610.14 714.00 601.00
C 714.00 619.34 714.00 636.94 714.00 656.00 Z"/>
</g>
<g fill="None" fill-opacity="0.0" stroke="#000000" stroke-opacity="0.51" stroke-width="0.3"><path d="
M 309.00 624.00 
C 310.41 617.07 310.98 610.35 310.00 603.00
C 309.58 609.69 309.00 616.92 309.00 624.00 Z"/>
</g>
<g fill="None" fill-opacity="0.0" stroke="#000000" stroke-opacity="0.30" stroke-width="0.3"><path d="
M 310.00 739.00 
C 310.22 737.36 309.84 735.65 310.00 734.00
C 312.77 736.61 309.19 742.46 312.00 745.00
C 312.00 720.75 311.49 695.19 311.00 672.00
C 311.20 671.60 307.96 680.12 309.00 686.00 C 310.04 691.88 309.33 699.03 309.00 705.00 C 308.67 710.97 310.50 716.81 309.98 721.98 C 309.45 727.14 309.79 734.12 310.00 739.00 Z"/>
</g>
<g fill="None" fill-opacity="0.0" stroke="#000000" stroke-opacity="0.45" stroke-width="0.3"><path d="
M 714.00 707.00 
C 713.90 740.91 714.00 774.22 714.00 808.00
C 715.63 801.92 715.69 791.52 716.00 783.00 C 716.31 774.48 714.70 765.32 715.99 757.01 C 717.28 748.70 714.08 741.02 715.00 732.00 C 715.92 722.98 716.34 712.46 716.00 703.00
C 715.06 703.80 714.36 705.97 714.00 707.00 Z"/>
</g>
<g fill="None" fill-opacity="0.0" stroke="#000000" stroke-opacity="0.55" stroke-width="0.3"><path d="
M 310.00 739.00 
C 307.01 761.75 309.52 785.87 311.00 809.00
C 311.93 788.56 312.00 766.24 312.00 745.00
C 309.19 742.46 312.77 736.61 310.00 734.00
C 309.84 735.65 310.22 737.36 310.00 739.00 Z"/>
</g>
<g fill="None" fill-opacity="0.0" stroke="#000000" stroke-opacity="0.31" stroke-width="0.3"><path d="
M 464.00 825.00 
C 473.77 825.00 484.30 824.79 494.00 825.00 C 503.70 825.21 513.48 824.41 523.00 825.00 C 532.52 825.59 542.81 824.51 550.00 823.00
C 504.61 823.71 456.33 821.63 411.00 824.00
C 428.56 824.14 447.17 823.37 464.00 825.00 Z"/>
</g>
<g fill="None" fill-opacity="0.0" stroke="#000000" stroke-opacity="0.40" stroke-width="0.3"><path d="
M 602.00 824.00 
C 593.49 824.65 583.76 822.70 576.00 825.00
C 591.08 824.47 607.00 825.71 622.00 825.00 C 637.00 824.29 652.21 826.39 667.00 825.00 C 681.79 823.61 697.56 827.99 712.00 825.00
C 712.82 824.59 700.72 821.85 696.00 823.00 C 691.28 824.15 682.60 822.51 677.00 823.00 C 671.40 823.49 663.98 822.85 658.00 823.00 C 652.02 823.15 645.13 823.08 639.00 823.00 C 632.87 822.92 626.15 823.36 620.00 823.00 C 613.85 822.64 607.77 823.46 602.00 824.00 Z"/>
</g>
<g fill="#000000" fill-opacity="0.00" stroke="None">
<path d="
M 0.00 1024.00 
L 1024.00 1024.00
L 1024.00 0.00
L 0.00 0.00
L 0.00 1024.00
M 742.00 456.00 
C 741.98 475.93 742.03 496.09 742.00 516.00 C 741.97 535.91 742.06 557.29 742.00 577.00 C 741.94 596.71 742.12 618.89 742.00 638.00 C 741.88 657.11 742.42 680.01 741.67 697.67 C 740.92 715.33 741.41 730.97 741.00 750.00 C 740.59 769.03 741.99 787.46 742.00 804.00 C 742.01 820.54 748.08 849.13 727.00 850.00 C 705.92 850.87 687.61 849.61 667.00 850.00 C 646.39 850.39 626.45 849.80 606.00 850.00 C 585.55 850.20 565.36 849.87 545.00 850.00 C 524.64 850.13 505.39 849.86 485.00 850.00 C 464.61 850.14 444.56 849.74 424.00 850.00 C 403.44 850.26 383.89 849.46 363.00 850.00 C 342.11 850.54 323.58 848.83 302.00 850.00 C 280.42 851.17 282.13 829.25 283.22 812.78 C 284.31 796.31 284.51 772.97 284.00 755.00 C 283.49 737.03 282.70 718.72 283.00 699.00 C 283.30 679.28 282.87 659.01 283.00 639.00 C 283.13 618.99 282.94 598.18 283.00 578.00 C 283.06 557.82 282.97 537.25 283.00 517.00 C 283.03 496.75 282.98 476.27 283.00 456.00
C 273.46 467.94 263.27 470.82 254.25 484.25 C 245.22 497.68 229.20 499.38 219.75 486.25 C 210.30 473.11 201.70 467.78 191.25 456.75 C 180.80 445.72 172.08 436.88 162.10 427.90 C 152.12 418.92 143.61 408.23 132.75 399.25 C 121.89 390.27 109.84 374.99 121.75 363.75 C 133.67 352.52 138.96 344.04 149.25 333.25 C 159.53 322.45 166.93 312.87 176.30 302.30 C 185.68 291.74 195.00 283.00 204.25 272.25 C 213.49 261.50 222.82 253.27 232.25 242.25 C 241.68 231.23 250.07 220.26 264.68 216.68 C 279.29 213.10 293.00 206.38 307.68 202.68 C 322.36 198.97 336.31 191.77 351.07 188.07 C 365.84 184.38 379.93 176.46 395.07 174.07 C 410.22 171.68 423.26 182.39 438.07 186.93 C 452.89 191.46 468.46 196.72 485.00 198.00 C 501.55 199.28 524.45 198.97 541.00 198.00 C 557.55 197.04 573.54 191.85 588.22 187.22 C 602.91 182.59 615.83 171.07 631.00 174.00 C 646.17 176.93 660.29 184.03 675.07 187.93 C 689.86 191.82 704.32 198.24 719.02 201.98 C 733.73 205.71 747.91 212.83 762.22 216.78 C 776.54 220.73 783.98 232.05 793.30 242.70 C 802.62 253.34 812.03 261.97 821.75 272.25 C 831.47 282.52 839.31 292.12 849.25 302.75 C 859.20 313.37 866.86 322.29 876.75 333.25 C 886.65 344.20 892.65 351.93 904.25 363.75 C 915.85 375.57 904.55 390.18 893.75 399.75 C 882.95 409.32 874.32 418.52 864.25 428.25 C 854.18 437.98 844.79 445.60 834.75 456.75 C 824.71 467.91 816.19 472.88 806.25 486.25 C 796.30 499.61 781.61 496.91 772.25 483.75 C 762.89 470.60 752.03 467.00 742.00 456.00
M 744.00 537.00 
C 744.00 579.33 744.00 621.67 744.00 664.00
C 742.33 622.73 742.33 578.20 744.00 537.00 Z"/>
</g>
<g fill="#000000" fill-opacity="0.99" stroke="None">
<path d="
M 742.00 456.00 
C 752.03 467.00 762.89 470.60 772.25 483.75 C 781.61 496.91 796.30 499.61 806.25 486.25 C 816.19 472.88 824.71 467.91 834.75 456.75 C 844.79 445.60 854.18 437.98 864.25 428.25 C 874.32 418.52 882.95 409.32 893.75 399.75 C 904.55 390.18 915.85 375.57 904.25 363.75 C 892.65 351.93 886.65 344.20 876.75 333.25 C 866.86 322.29 859.20 313.37 849.25 302.75 C 839.31 292.12 831.47 282.52 821.75 272.25 C 812.03 261.97 802.62 253.34 793.30 242.70 C 783.98 232.05 776.54 220.73 762.22 216.78 C 747.91 212.83 733.73 205.71 719.02 201.98 C 704.32 198.24 689.86 191.82 675.07 187.93 C 660.29 184.03 646.17 176.93 631.00 174.00 C 615.83 171.07 602.91 182.59 588.22 187.22 C 573.54 191.85 557.55 197.04 541.00 198.00 C 524.45 198.97 501.55 199.28 485.00 198.00 C 468.46 196.72 452.89 191.46 438.07 186.93 C 423.26 182.39 410.22 171.68 395.07 174.07 C 379.93 176.46 365.84 184.38 351.07 188.07 C 336.31 191.77 322.36 198.97 307.68 202.68 C 293.00 206.38 279.29 213.10 264.68 216.68 C 250.07 220.26 241.68 231.23 232.25 242.25 C 222.82 253.27 213.49 261.50 204.25 272.25 C 195.00 283.00 185.68 291.74 176.30 302.30 C 166.93 312.87 159.53 322.45 149.25 333.25 C 138.96 344.04 133.67 352.52 121.75 363.75 C 109.84 374.99 121.89 390.27 132.75 399.25 C 143.61 408.23 152.12 418.92 162.10 427.90 C 172.08 436.88 180.80 445.72 191.25 456.75 C 201.70 467.78 210.30 473.11 219.75 486.25 C 229.20 499.38 245.22 497.68 254.25 484.25 C 263.27 470.82 273.46 467.94 283.00 456.00
C 282.98 476.27 283.03 496.75 283.00 517.00 C 282.97 537.25 283.06 557.82 283.00 578.00 C 282.94 598.18 283.13 618.99 283.00 639.00 C 282.87 659.01 283.30 679.28 283.00 699.00 C 282.70 718.72 283.49 737.03 284.00 755.00 C 284.51 772.97 284.31 796.31 283.22 812.78 C 282.13 829.25 280.42 851.17 302.00 850.00 C 323.58 848.83 342.11 850.54 363.00 850.00 C 383.89 849.46 403.44 850.26 424.00 850.00 C 444.56 849.74 464.61 850.14 485.00 850.00 C 505.39 849.86 524.64 850.13 545.00 850.00 C 565.36 849.87 585.55 850.20 606.00 850.00 C 626.45 849.80 646.39 850.39 667.00 850.00 C 687.61 849.61 705.92 850.87 727.00 850.00 C 748.08 849.13 742.01 820.54 742.00 804.00 C 741.99 787.46 740.59 769.03 741.00 750.00 C 741.41 730.97 740.92 715.33 741.67 697.67 C 742.42 680.01 741.88 657.11 742.00 638.00 C 742.12 618.89 741.94 596.71 742.00 577.00 C 742.06 557.29 741.97 535.91 742.00 516.00 C 742.03 496.09 741.98 475.93 742.00 456.00
M 424.00 209.00 
C 423.33 212.29 429.53 214.06 433.25 214.80 C 436.97 215.54 442.76 217.47 447.00 217.00
C 449.37 222.44 458.51 221.85 464.00 221.00
C 466.39 225.08 472.76 224.23 478.03 224.97 C 483.30 225.70 486.44 226.36 491.92 226.14 C 497.41 225.92 508.18 228.20 515.00 228.00 C 521.82 227.80 530.14 225.55 535.03 225.03 C 539.93 224.51 548.54 227.07 550.00 223.00
C 553.93 224.54 566.03 226.22 563.00 221.00
C 565.24 221.35 568.63 224.94 568.00 220.00
C 570.44 222.30 576.57 222.56 576.00 218.00
C 582.30 221.19 585.20 212.38 590.00 217.00
C 591.59 213.75 597.41 212.50 601.70 211.65 C 605.98 210.79 611.40 205.44 615.00 206.00
C 611.51 207.87 616.04 212.79 611.00 212.00
C 611.59 216.42 609.92 226.53 607.93 231.08 C 605.94 235.63 598.70 245.30 596.30 250.30 C 593.90 255.30 586.81 261.04 581.75 266.75 C 576.69 272.46 573.19 272.74 565.77 276.77 C 558.35 280.80 553.11 283.00 545.30 284.65 C 537.50 286.30 533.51 288.75 526.81 287.74 C 520.12 286.73 504.15 289.19 497.71 288.71 C 491.26 288.22 484.76 286.01 478.30 284.36 C 471.84 282.72 464.41 278.42 457.77 275.23 C 451.13 272.04 446.35 270.22 440.70 264.30 C 435.05 258.39 429.63 251.27 426.22 243.78 C 422.82 236.28 417.44 229.87 416.20 222.75 C 414.96 215.64 411.18 211.28 413.00 205.00
C 415.61 208.76 419.65 210.89 424.00 209.00
M 714.00 601.00 
C 715.75 610.14 716.56 622.76 716.00 635.00 C 715.44 647.24 716.42 661.57 716.00 674.00
C 713.08 669.08 716.93 660.85 714.00 656.00
C 714.00 673.15 714.05 690.01 714.00 707.00
C 714.36 705.97 715.06 703.80 716.00 703.00
C 716.34 712.46 715.92 722.98 715.00 732.00 C 714.08 741.02 717.28 748.70 715.99 757.01 C 714.70 765.32 716.31 774.48 716.00 783.00 C 715.69 791.52 715.63 801.92 714.00 808.00
C 714.00 810.67 714.00 813.33 714.00 816.00
C 717.56 811.58 715.41 822.52 716.00 825.00
C 714.67 825.00 713.33 825.00 712.00 825.00
C 697.56 827.99 681.79 823.61 667.00 825.00 C 652.21 826.39 637.00 824.29 622.00 825.00 C 607.00 825.71 591.08 824.47 576.00 825.00
C 583.76 822.70 593.49 824.65 602.00 824.00
C 585.54 823.95 567.22 822.66 550.00 823.00
C 542.81 824.51 532.52 825.59 523.00 825.00 C 513.48 824.41 503.70 825.21 494.00 825.00 C 484.30 824.79 473.77 825.00 464.00 825.00
C 413.00 825.00 362.00 825.00 311.00 825.00
C 311.53 819.39 312.02 814.24 311.00 809.00
C 309.52 785.87 307.01 761.75 310.00 739.00
C 309.79 734.12 309.45 727.14 309.98 721.98 C 310.50 716.81 308.67 710.97 309.00 705.00 C 309.33 699.03 310.04 691.88 309.00 686.00 C 307.96 680.12 311.20 671.60 311.00 672.00
C 310.89 666.89 311.51 660.06 311.00 654.00
C 308.04 665.68 309.09 650.66 309.93 644.93 C 310.77 639.19 308.74 630.48 309.00 624.00
C 309.00 616.92 309.58 609.69 310.00 603.00
C 306.10 573.66 312.21 538.34 310.00 507.00 C 307.79 475.66 313.38 443.91 308.00 414.00
C 305.55 415.80 301.47 412.70 305.00 411.00
C 292.92 409.60 282.72 415.24 272.75 427.75 C 262.79 440.27 251.70 447.01 241.75 457.75 C 231.81 468.49 219.41 447.08 209.75 438.25 C 200.09 429.41 191.65 416.60 179.75 408.80 C 167.86 401.01 157.89 385.22 147.00 376.00
C 152.28 371.93 154.94 365.52 160.30 361.30 C 165.67 357.08 168.07 349.97 172.25 346.25 C 176.43 342.52 181.25 335.37 186.00 335.00
C 194.37 321.20 203.07 312.77 214.75 301.75 C 226.43 290.73 234.83 273.46 248.00 268.00
C 242.63 262.14 253.04 261.64 255.75 256.75 C 258.46 251.86 265.94 247.29 268.00 242.00
C 272.55 243.76 276.62 240.00 282.10 238.10 C 287.58 236.19 291.41 237.22 295.24 234.79 C 299.06 232.36 307.66 233.18 309.00 229.00
C 317.85 232.12 323.77 221.54 332.00 225.00
C 332.65 221.87 336.00 221.10 342.08 219.94 C 348.17 218.78 348.90 216.63 355.23 215.78 C 361.55 214.93 372.80 208.62 381.00 209.00
C 378.48 205.45 382.07 207.42 384.00 206.00
C 386.74 213.55 386.43 225.19 390.26 233.74 C 394.09 242.29 395.59 248.50 401.77 259.23 C 407.95 269.96 414.06 272.62 418.00 282.00
C 423.17 282.06 427.62 291.18 433.25 293.75 C 438.87 296.33 440.66 296.45 446.70 301.31 C 452.73 306.16 458.77 304.33 463.57 307.77 C 468.37 311.21 474.70 310.89 480.10 312.90 C 485.50 314.92 494.60 312.31 496.00 317.00
C 509.67 313.38 525.19 318.19 535.01 315.01 C 544.83 311.82 555.64 313.03 566.00 305.00
C 570.77 307.10 576.65 303.35 581.70 299.70 C 586.74 296.04 596.10 293.00 597.00 287.00
C 604.35 288.86 605.51 274.05 611.00 278.00
C 616.64 267.55 620.75 262.91 629.00 253.00
C 626.10 249.20 630.51 247.29 632.77 242.77 C 635.03 238.25 633.43 231.97 638.00 233.00
C 633.77 229.29 639.85 230.04 637.00 226.00
C 640.04 226.26 641.57 221.35 640.99 217.99 C 640.42 214.63 643.95 211.96 641.00 209.00
C 650.30 208.58 652.67 209.05 661.70 211.35 C 670.73 213.66 689.00 224.42 703.00 224.00
C 700.17 229.55 707.50 223.32 709.69 226.35 C 711.89 229.38 716.87 228.21 719.70 229.35 C 722.52 230.50 726.20 236.74 729.00 232.00
C 738.93 239.67 754.80 236.70 765.25 248.75 C 775.70 260.80 781.05 267.66 791.70 279.30 C 802.36 290.93 809.63 299.07 819.30 310.70 C 828.96 322.34 841.04 332.90 850.00 342.00
C 850.15 348.76 860.20 352.50 863.19 358.25 C 866.18 364.00 874.53 367.92 878.00 374.00
C 851.32 407.44 820.06 433.53 791.00 463.00
C 779.94 456.69 765.41 442.93 755.25 431.75 C 745.09 420.58 737.86 410.07 722.00 411.00
C 716.01 414.75 718.94 421.76 714.00 424.00
C 714.73 461.30 714.95 500.14 716.00 538.00
C 711.43 530.62 716.33 540.05 715.99 544.01 C 715.65 547.96 715.12 552.65 716.00 558.00
C 713.10 554.39 714.11 560.61 714.00 564.00 C 713.89 567.39 714.08 573.37 714.00 577.00
C 717.07 571.24 716.12 581.33 715.22 585.22 C 714.32 589.11 713.80 596.60 714.00 601.00 Z"/>
</g>
<g fill="#000000" fill-opacity="0.02" stroke="None">
<path d="
M 424.00 209.00 
C 419.65 210.89 415.61 208.76 413.00 205.00
C 411.18 211.28 414.96 215.64 416.20 222.75 C 417.44 229.87 422.82 236.28 426.22 243.78 C 429.63 251.27 435.05 258.39 440.70 264.30 C 446.35 270.22 451.13 272.04 457.77 275.23 C 464.41 278.42 471.84 282.72 478.30 284.36 C 484.76 286.01 491.26 288.22 497.71 288.71 C 504.15 289.19 520.12 286.73 526.81 287.74 C 533.51 288.75 537.50 286.30 545.30 284.65 C 553.11 283.00 558.35 280.80 565.77 276.77 C 573.19 272.74 576.69 272.46 581.75 266.75 C 586.81 261.04 593.90 255.30 596.30 250.30 C 598.70 245.30 605.94 235.63 607.93 231.08 C 609.92 226.53 611.59 216.42 611.00 212.00
C 616.04 212.79 611.51 207.87 615.00 206.00
C 611.40 205.44 605.98 210.79 601.70 211.65 C 597.41 212.50 591.59 213.75 590.00 217.00
C 585.20 212.38 582.30 221.19 576.00 218.00
C 576.57 222.56 570.44 222.30 568.00 220.00
C 568.63 224.94 565.24 221.35 563.00 221.00
C 566.03 226.22 553.93 224.54 550.00 223.00
C 548.54 227.07 539.93 224.51 535.03 225.03 C 530.14 225.55 521.82 227.80 515.00 228.00 C 508.18 228.20 497.41 225.92 491.92 226.14 C 486.44 226.36 483.30 225.70 478.03 224.97 C 472.76 224.23 466.39 225.08 464.00 221.00
C 458.51 221.85 449.37 222.44 447.00 217.00
C 442.76 217.47 436.97 215.54 433.25 214.80 C 429.53 214.06 423.33 212.29 424.00 209.00 Z"/>
</g>
<g fill="#000000" fill-opacity="0.00" stroke="None">
<path d="
M 310.00 603.00 
C 310.98 610.35 310.41 617.07 309.00 624.00
C 308.74 630.48 310.77 639.19 309.93 644.93 C 309.09 650.66 308.04 665.68 311.00 654.00
C 311.51 660.06 310.89 666.89 311.00 672.00
C 311.49 695.19 312.00 720.75 312.00 745.00
C 312.00 766.24 311.93 788.56 311.00 809.00
C 312.02 814.24 311.53 819.39 311.00 825.00
C 362.00 825.00 413.00 825.00 464.00 825.00
C 447.17 823.37 428.56 824.14 411.00 824.00
C 456.33 821.63 504.61 823.71 550.00 823.00
C 567.22 822.66 585.54 823.95 602.00 824.00
C 607.77 823.46 613.85 822.64 620.00 823.00 C 626.15 823.36 632.87 822.92 639.00 823.00 C 645.13 823.08 652.02 823.15 658.00 823.00 C 663.98 822.85 671.40 823.49 677.00 823.00 C 682.60 822.51 691.28 824.15 696.00 823.00 C 700.72 821.85 712.82 824.59 712.00 825.00
C 713.33 825.00 714.67 825.00 716.00 825.00
C 715.41 822.52 717.56 811.58 714.00 816.00
C 714.00 813.33 714.00 810.67 714.00 808.00
C 714.00 774.22 713.90 740.91 714.00 707.00
C 714.05 690.01 714.00 673.15 714.00 656.00
C 714.00 636.94 714.00 619.34 714.00 601.00
C 713.80 596.60 714.32 589.11 715.22 585.22 C 716.12 581.33 717.07 571.24 714.00 577.00
C 714.08 573.37 713.89 567.39 714.00 564.00 C 714.11 560.61 713.10 554.39 716.00 558.00
C 715.12 552.65 715.65 547.96 715.99 544.01 C 716.33 540.05 711.43 530.62 716.00 538.00
C 714.95 500.14 714.73 461.30 714.00 424.00
C 718.94 421.76 716.01 414.75 722.00 411.00
C 737.86 410.07 745.09 420.58 755.25 431.75 C 765.41 442.93 779.94 456.69 791.00 463.00
C 820.06 433.53 851.32 407.44 878.00 374.00
C 874.53 367.92 866.18 364.00 863.19 358.25 C 860.20 352.50 850.15 348.76 850.00 342.00
C 841.04 332.90 828.96 322.34 819.30 310.70 C 809.63 299.07 802.36 290.93 791.70 279.30 C 781.05 267.66 775.70 260.80 765.25 248.75 C 754.80 236.70 738.93 239.67 729.00 232.00
C 726.20 236.74 722.52 230.50 719.70 229.35 C 716.87 228.21 711.89 229.38 709.69 226.35 C 707.50 223.32 700.17 229.55 703.00 224.00
C 689.00 224.42 670.73 213.66 661.70 211.35 C 652.67 209.05 650.30 208.58 641.00 209.00
C 643.95 211.96 640.42 214.63 640.99 217.99 C 641.57 221.35 640.04 226.26 637.00 226.00
C 639.85 230.04 633.77 229.29 638.00 233.00
C 633.43 231.97 635.03 238.25 632.77 242.77 C 630.51 247.29 626.10 249.20 629.00 253.00
C 620.75 262.91 616.64 267.55 611.00 278.00
C 605.51 274.05 604.35 288.86 597.00 287.00
C 596.10 293.00 586.74 296.04 581.70 299.70 C 576.65 303.35 570.77 307.10 566.00 305.00
C 555.64 313.03 544.83 311.82 535.01 315.01 C 525.19 318.19 509.67 313.38 496.00 317.00
C 494.60 312.31 485.50 314.92 480.10 312.90 C 474.70 310.89 468.37 311.21 463.57 307.77 C 458.77 304.33 452.73 306.16 446.70 301.31 C 440.66 296.45 438.87 296.33 433.25 293.75 C 427.62 291.18 423.17 282.06 418.00 282.00
C 414.06 272.62 407.95 269.96 401.77 259.23 C 395.59 248.50 394.09 242.29 390.26 233.74 C 386.43 225.19 386.74 213.55 384.00 206.00
C 382.07 207.42 378.48 205.45 381.00 209.00
C 372.80 208.62 361.55 214.93 355.23 215.78 C 348.90 216.63 348.17 218.78 342.08 219.94 C 336.00 221.10 332.65 221.87 332.00 225.00
C 323.77 221.54 317.85 232.12 309.00 229.00
C 307.66 233.18 299.06 232.36 295.24 234.79 C 291.41 237.22 287.58 236.19 282.10 238.10 C 276.62 240.00 272.55 243.76 268.00 242.00
C 265.94 247.29 258.46 251.86 255.75 256.75 C 253.04 261.64 242.63 262.14 248.00 268.00
C 234.83 273.46 226.43 290.73 214.75 301.75 C 203.07 312.77 194.37 321.20 186.00 335.00
C 181.25 335.37 176.43 342.52 172.25 346.25 C 168.07 349.97 165.67 357.08 160.30 361.30 C 154.94 365.52 152.28 371.93 147.00 376.00
C 157.89 385.22 167.86 401.01 179.75 408.80 C 191.65 416.60 200.09 429.41 209.75 438.25 C 219.41 447.08 231.81 468.49 241.75 457.75 C 251.70 447.01 262.79 440.27 272.75 427.75 C 282.72 415.24 292.92 409.60 305.00 411.00
C 301.47 412.70 305.55 415.80 308.00 414.00
C 313.38 443.91 307.79 475.66 310.00 507.00 C 312.21 538.34 306.10 573.66 310.00 603.00 Z"/>
</g>
<g fill="#000000" fill-opacity="0.09" stroke="None">
<path d="
M 744.00 537.00 
C 742.33 578.20 742.33 622.73 744.00 664.00
C 744.00 621.67 744.00 579.33 744.00 537.00 Z"/>
</g>
<g fill="#000000" fill-opacity="0.30" stroke="None">
<path d="
M 714.00 656.00 
C 716.93 660.85 713.08 669.08 716.00 674.00
C 716.42 661.57 715.44 647.24 716.00 635.00 C 716.56 622.76 715.75 610.14 714.00 601.00
C 714.00 619.34 714.00 636.94 714.00 656.00 Z"/>
</g>
<g fill="#000000" fill-opacity="0.51" stroke="None">
<path d="
M 309.00 624.00 
C 310.41 617.07 310.98 610.35 310.00 603.00
C 309.58 609.69 309.00 616.92 309.00 624.00 Z"/>
</g>
<g fill="#000000" fill-opacity="0.30" stroke="None">
<path d="
M 310.00 739.00 
C 310.22 737.36 309.84 735.65 310.00 734.00
C 312.77 736.61 309.19 742.46 312.00 745.00
C 312.00 720.75 311.49 695.19 311.00 672.00
C 311.20 671.60 307.96 680.12 309.00 686.00 C 310.04 691.88 309.33 699.03 309.00 705.00 C 308.67 710.97 310.50 716.81 309.98 721.98 C 309.45 727.14 309.79 734.12 310.00 739.00 Z"/>
</g>
<g fill="#000000" fill-opacity="0.45" stroke="None">
<path d="
M 714.00 707.00 
C 713.90 740.91 714.00 774.22 714.00 808.00
C 715.63 801.92 715.69 791.52 716.00 783.00 C 716.31 774.48 714.70 765.32 715.99 757.01 C 717.28 748.70 714.08 741.02 715.00 732.00 C 715.92 722.98 716.34 712.46 716.00 703.00
C 715.06 703.80 714.36 705.97 714.00 707.00 Z"/>
</g>
<g fill="#000000" fill-opacity="0.55" stroke="None">
<path d="
M 310.00 739.00 
C 307.01 761.75 309.52 785.87 311.00 809.00
C 311.93 788.56 312.00 766.24 312.00 745.00
C 309.19 742.46 312.77 736.61 310.00 734.00
C 309.84 735.65 310.22 737.36 310.00 739.00 Z"/>
</g>
<g fill="#000000" fill-opacity="0.31" stroke="None">
<path d="
M 464.00 825.00 
C 473.77 825.00 484.30 824.79 494.00 825.00 C 503.70 825.21 513.48 824.41 523.00 825.00 C 532.52 825.59 542.81 824.51 550.00 823.00
C 504.61 823.71 456.33 821.63 411.00 824.00
C 428.56 824.14 447.17 823.37 464.00 825.00 Z"/>
</g>
<g fill="#000000" fill-opacity="0.40" stroke="None">
<path d="
M 602.00 824.00 
C 593.49 824.65 583.76 822.70 576.00 825.00
C 591.08 824.47 607.00 825.71 622.00 825.00 C 637.00 824.29 652.21 826.39 667.00 825.00 C 681.79 823.61 697.56 827.99 712.00 825.00
C 712.82 824.59 700.72 821.85 696.00 823.00 C 691.28 824.15 682.60 822.51 677.00 823.00 C 671.40 823.49 663.98 822.85 658.00 823.00 C 652.02 823.15 645.13 823.08 639.00 823.00 C 632.87 822.92 626.15 823.36 620.00 823.00 C 613.85 822.64 607.77 823.46 602.00 824.00 Z"/>
</g>
</svg>